<svg xmlns="http://www.w3.org/2000/svg" width="310.717" height="136.488" viewBox="0 0 310.717 136.488">
  <g id="Img" transform="translate(-0.058 136.488) rotate(-90)">
    <path id="Pfad_316" data-name="Pfad 316" d="M40.346,122.058c0-4.11,0-8.249-.145-12.5a29.543,29.543,0,0,0-3.5-.145c.2-1.563,2.084-5.673,3.647-7.931,0-3.444,0-6.889-.116-10.478-1.245-.781-2.4-1.389-3.56-2,1.245-3.184,2.46-6.339,3.676-9.465,0-6.078,0-12.128-.116-18.322-1.737,0-3.242,1.216-5.21.376a91.008,91.008,0,0,1,5.326-10.159c0-8.133,0-16.238-.116-24.487-2.547,2.6-4.978,5.3-7.439,8.018a.846.846,0,0,1-.029-.868c2.055-3.792,4.139-7.583,6.194-11.375.318-.579.666-1.071,1.389-1.1,0-3.676,0-7.323-.145-11.173-1.795-.058-3.415.058-5.239.174.232-.666.405-1.187.579-1.708.926-2.981,1.852-5.934,2.75-8.915-1.389,0-2.75,0-4.342.116a43.466,43.466,0,0,0-6.31,11.491,2.213,2.213,0,0,1-1.418,1.534,39.831,39.831,0,0,0-10.651,5.3,3.392,3.392,0,0,1-1.389.376,2.391,2.391,0,0,0-.405-.637,5.863,5.863,0,0,0-4.11,2.634,7.131,7.131,0,0,1-1.187,1.1v.116c-.347.695-.695,1.274-.984,1.881a1.578,1.578,0,0,1-1.447.839,2.289,2.289,0,0,1-.434.463c-1.621,1.245-3.242,2.46-4.863,3.7-.463.376-1.071.724-.55,1.476,1.534-.029,2.808-1.36,4.515-.753-.232,2.026-.463,3.965-.579,6.02,1.129,1.071,2.2,2.084,3.3,2.981,1.505-3.01,2.981-5.876,4.515-8.886a29.88,29.88,0,0,0,10.623-1.071c-.116,2-.232,3.676-.347,5.355-.087,1.331-.116,1.389-1.418,1.766-1.36.405-2.75.753-4.11,1.216A25.055,25.055,0,0,0,9.52,41.361a39.825,39.825,0,0,0,2.547,3.821c2.344-.926,4.515-1.939,6.8-2.605a23.539,23.539,0,0,1,5.528-.724,5.329,5.329,0,0,0,2.75-.289,7.4,7.4,0,0,1,2.489-.347,1.154,1.154,0,0,1-1.071,1.245c-1.3.174-2.6.232-3.879.376A31.5,31.5,0,0,0,20,43.474c-2.576.695-5.094,1.621-7.583,2.547.695,1.621,1.331,3.126,2.142,4.631a36.567,36.567,0,0,0,9.9.174c-.174.608-.26.984-.405,1.36-.608,1.65-1.36,3.271-1.852,4.949-.724,2.46-1.36,4.949-1.939,7.439-.289,1.158-.579,2.026-1.939,2.46a23.008,23.008,0,0,0-4.313,2.287c-1.505,3.589-2.952,7.062-4.226,10.536,2.75.405,5.442.2,8.1.9C17.567,82,17.306,83.1,17.017,84.2a1.478,1.478,0,0,1-1.274,1.187,47.216,47.216,0,0,0-5.326,1.187c-2.229.666-4.428,1.476-6.715,2.287a18.254,18.254,0,0,0-1.3,2.75C3.558,92.8,4.658,93.9,5.9,94.966a62.791,62.791,0,0,1,11.722-1.36c2.692-.058,5.355-.029,8.046,0a9.961,9.961,0,0,1,1.476.2c-.318,1.013-.955.81-1.476.81-2.923.029-5.818,0-8.741,0a16.248,16.248,0,0,0-2.055.058c-2.808.318-5.615.695-8.365,1.129,1.852,1.939,3.618,3.792,5.442,5.615a7.975,7.975,0,0,0,1.621,1.129c3.329.2,6.541.463,9.841.695a47.106,47.106,0,0,1-1.766,6.57,7.254,7.254,0,0,0,1.447,1.274c4.631,2.837,9.089,5.991,14.009,8.278a.881.881,0,0,1,.232.232c.55,1.331,1.795,1.852,3.01,2.46m-1.679-48.8c.029,0,.058.029.087.029a.3.3,0,0,0-.145.174c-.029.029-.087.029-.116.058.029-.058.087-.116.174-.261M26.626,53.6a2.108,2.108,0,0,0,.318-.753,17.909,17.909,0,0,1,.666-1.737Q31.6,43.778,35.628,36.47c.347-.608.782-1.187,1.187-1.766a1.075,1.075,0,0,1,.029.984c-.724,1.36-1.447,2.721-2.2,4.052L27.61,52.418c-.145.289-.463.492-.695.926a2.5,2.5,0,0,0-.347.637c-.029.087-.087.174-.116.261-.029-.029-.087-.058-.116-.087a1.055,1.055,0,0,0,.289-.55m8.249-.666c.029-.087.087-.174.116-.261.029.029.087.058.116.087a1.338,1.338,0,0,0-.261.608C33.689,55.6,32.531,57.8,31.4,60.059c-2,4.023-3.936,8.075-5.9,12.128-.492,1.042-.955,2.113-1.418,3.184-.145-.058-.289-.116-.463-.174.174-.55.318-1.1.55-1.65a172,172,0,0,1,7.9-16.469A24.384,24.384,0,0,1,33.6,54.415a13.5,13.5,0,0,1,1.274-1.476M22.14,65.211c-.029,0-.058-.029-.087-.029.029-.029.087-.029.174-.26,1.3-1.881,2.605-3.734,3.907-5.615,2.142-3.155,4.428-6.223,6.368-9.523a5.914,5.914,0,0,1,3.879-2.634,2.335,2.335,0,0,1-.521.955A68.462,68.462,0,0,0,24.774,63.648a2.7,2.7,0,0,1-2.634,1.563M24.774,81.97c.926-1.187,1.447-2.663,3.126-3.242a42.856,42.856,0,0,0,9.262-4.689,2.75,2.75,0,0,1,.695-.2c-1.245,2.258-2.808,4.2-4.139,6.281-1.389,2.142-2.576,4.4-3.85,6.628-2.373-.521-4.66-1.042-7.265-1.621.781-1.129,1.389-2.055,2.171-3.155M23.616,35.225c-.666-.376-.145-.81,0-1.158.926-2.026,1.91-4.023,2.894-6.02.116-.26.232-.579.463-.695a17.591,17.591,0,0,1,4.2-1.621c-.2.55-.261.9-.405,1.187-.9,1.91-1.91,3.792-2.634,5.76-.579,1.563-1.274,2.605-3.1,2.4a11.087,11.087,0,0,0-1.418.145m6.455,74.5c-.55-.029-1.1-.029-1.679-.058a2.658,2.658,0,0,1,0-.695c.839-2.171,1.679-4.371,2.576-6.541a1.55,1.55,0,0,1,.579-.81,14.412,14.412,0,0,1,3.936-1.129c-.087.318-.087.492-.145.637-1.36,2.431-2.75,4.863-4.139,7.294a4.128,4.128,0,0,1-1.129,1.3M22.893,76.7c.145-.232.26-.463.463-.81.116,1.274.116,1.274-.868,2.026.145-.405.232-.724.405-1.216M35.339,51.926h0m2.084-17.888h0M22,79.713Z" transform="translate(96.085 0.058)" fill="#99be55"/>
    <path id="Pfad_317" data-name="Pfad 317" d="M126.607,68.894a5.087,5.087,0,0,0-.116-1.245c-.434-.289-.782-.376-1.071-.55-2.779-1.795-5.528-3.647-8.307-5.413-2.923-1.881-5.847-3.763-8.857-5.5a46.7,46.7,0,0,1-11.549-9.754c-2.171-2.489-4.544-4.8-6.86-7.178-.174-.2-.521-.232-1.042-.492a18.05,18.05,0,0,1,1.013,2.489,3.676,3.676,0,0,0,1.245,2.171.777.777,0,0,1-.029.753,1.246,1.246,0,0,1-.9.289c-.232-.029-.463-.318-.695-.463-2.721-1.968-5.413-3.994-8.162-5.9-5.615-3.907-11.52-7.381-17.424-10.825-4.313-2.518-8.8-4.255-13.864-4.284-1.766-.029-3.5-.289-5.268-.463-1.737-.174-3.5-.434-5.239-.55-2.952-.174-5.9-.261-8.886-.347-3.647-.116-7.294-.2-10.941-.347-2.113-.087-4.226-.116-6.31-.376a10,10,0,0,1-5.355-2.113A17.8,17.8,0,0,1,3.246,12.8c-1.1-2.4-.637-4.631.174-6.918a2.773,2.773,0,0,1,.492-.695,8.706,8.706,0,0,1,5.557-3.1c1.216-.2,2.46-.261,4.023-.405C12.451,1.048,11.7.238,10.83.122c-3.56-.434-6.976.2-9.146,3.358C.468,5.245-1.009,7.329.96,9.616c.029.029.029.116.029.174-.116,1.795,1.592,3.126,1.3,5.007-.029.261.289.608.492.868A19.812,19.812,0,0,0,9.99,22.554c1.418.724,2.837,1.505,4.544.868a2.423,2.423,0,0,1,1.36.029c1.158.318,2.2,1.158,3.56.637.174-.058.492.232.753.318a2.945,2.945,0,0,0,.955.26c2.547.145,5.123.289,7.67.347,3.039.058,6.049,0,9.088.029a10.561,10.561,0,0,1,1.36.029c4.544.666,8.915,2.055,13.488,2.634a6.872,6.872,0,0,1,3.358,1.476A14.9,14.9,0,0,0,59.543,30.6a1.476,1.476,0,0,1,.637.55c.955,1.621,2.634,2.055,4.2,2.779.608.289,1.447.434,1.795.926a6.721,6.721,0,0,0,2.4,1.852,23.31,23.31,0,0,0,4.834,2.518,23.009,23.009,0,0,1,3.618,1.447c1.766.926,3.531,1.852,5.21,2.894,1.129.695,2.46,1.245,2.692,2.865.029.261.405.521.695.724,6.136,4.66,12.707,8.654,19.248,12.707a2.544,2.544,0,0,0,1.274.405,7.067,7.067,0,0,1,4.313,1.823,6.224,6.224,0,0,0,2.229,1.216,8.005,8.005,0,0,1,3.358,1.939,20.367,20.367,0,0,0,3.271,2.113,1.467,1.467,0,0,0,1.3-.029c1.534-1.1,2.663-.145,3.879.608A15.611,15.611,0,0,0,126.607,68.894Z" transform="translate(9.824 55.972)" fill="#6a594b"/>
    <path id="Pfad_318" data-name="Pfad 318" d="M7.149,85.82a8.542,8.542,0,0,0,.289-1.447c.145-1.968.261-3.965.347-5.934a2.054,2.054,0,0,1,1.042-1.65c1.274-.868,2.576-1.65,3.85-2.518,1.389-.955,2.779-1.91,4.284-2.952.289,1.679.608,3.358.9,5.094a30.9,30.9,0,0,0,1.158-5.9c.087-2.865.087-5.615-.029-8.51a3.936,3.936,0,0,0-1.447.9C16.006,64.488,14.53,66.167,13,67.73A21.589,21.589,0,0,0,9.378,72.65a4.815,4.815,0,0,1-1.505,1.91,3.748,3.748,0,0,1,.318-1.274c1.389-3.271,3.85-5.7,6.165-8.278.868-.984,1.708-1.968,2.6-2.923.666-.695,1.389-1.331,2.113-1.968,0-5.615,0-11.23-.087-16.932-.955,1.534-1.737,3.184-2.663,4.747-.9,1.505-1.939,2.952-2.981,4.371s-1.795,3.068-3.271,4.2c.724-8.625,4.371-16.093,9.031-23.155a2.967,2.967,0,0,0-.116-.926c-.232-.232-.376-.261-.376-.347-.608-2.75-1.216-5.5-1.795-8.249a1.908,1.908,0,0,1,.174-1.129c.666-1.158,1.418-2.287,2.142-3.415a.552.552,0,0,0-.087-.289c-.318-.087-.608-.145-.695-.029-1.013,1.505-2.026,3.01-3.01,4.544-1.158,1.766-2.113,3.618-3.3,5.384C10.159,31.723,8.712,34.82,7.062,37.8c-.029.087-.174.116-.405.232-.029-.347-.2-.695-.087-.926a75.8,75.8,0,0,1,2.894-7.091c.926-1.881,2.344-3.5,3.386-5.326a34.022,34.022,0,0,0,2.576-5.384c.926-2.692,1.621-5.442,2.287-8.22.2-.868.434-1.91-.347-2.663a41.693,41.693,0,0,1-2.431,9.117c-.318-.9-.492-1.534-.782-2.142a3.533,3.533,0,0,1,.289-4.11,7.332,7.332,0,0,0,.695-1.534c.753-1.563,1.505-3.126,2.316-4.834.81,1.042-.087,1.881.174,2.721.376-.666.608-1.331.9-1.939a4.153,4.153,0,0,1,.666-.781,2.744,2.744,0,0,0-.058-.608.865.865,0,0,1,.058-.434c0-1.274,0-2.547-.087-3.879a16.247,16.247,0,0,0-1.418,2.489c-1.245,2.692-2.46,5.384-3.7,8.047-.2.405-.405.81-.637,1.216C11.317,14.964,9.2,18.119,7.236,21.39a15.262,15.262,0,0,0-1.3,3.821,12.95,12.95,0,0,1,1.592,5.876,1.967,1.967,0,0,1-.318,1.129,20.414,20.414,0,0,0-1.795,5.5c-.2.868-.434,1.737-.695,2.808C3.907,38,3.242,35.717,2.4,33.489,1.708,31.694.81,29.986,0,28.365a21.1,21.1,0,0,0,.666,2.952c.608,1.795,1.274,3.531,1.939,5.3,1.187,3.184,1.187,6.686,2.46,9.87.029.116.029.232.058.347.347,2.46.695,4.949,1.1,7.41A113.129,113.129,0,0,1,7.236,65.935a16.076,16.076,0,0,1-2.113,9.146,16.579,16.579,0,0,0-2.46,7.236c0,.261-.318.492-.637.926-.232-.724-.405-1.187-.637-1.852C1.1,82.028.9,82.4.724,82.81c.376,1.65.753,3.329,1.3,5.036a3.542,3.542,0,0,1,.347,1.216.4.4,0,0,0,.116.26c.608,1.3,1.071,2.46,1.534,3.618a.693.693,0,0,0,.2-.637c-.492-2.113-1.013-4.2-1.505-6.31a2.837,2.837,0,0,1-.058-1.3c.608-2.113,2.171-3.56,3.589-5.094.058-.058.2,0,.55,0,0,1.447-.029,2.923.029,4.371a9.567,9.567,0,0,0,.318,1.852m9.32-58.583c.376,1.563.695,3.126,1.129,4.631a3.529,3.529,0,0,1-.405,2.952c-1.766,3.039-3.531,6.107-5.326,9.146-.029.058-.2.058-.434.145a22.46,22.46,0,0,0-.55-2.779c-.463-1.447-.087-3.068-.926-4.457-.232-.376.174-1.158.347-1.737.145-.521.405-1.013.579-1.534a10.565,10.565,0,0,1,.434-1.447c.839-1.476,1.708-2.952,2.576-4.4.579-.955,1.187-1.881,1.939-3.068.26.984.405,1.65.637,2.547M5.731,45.558a29.481,29.481,0,0,1,3.3-8.191c.608,2.287.984,4.573,1.563,6.8a8.692,8.692,0,0,1-.261,4.863,31.558,31.558,0,0,0-.81,3.647C9,55.573,8.51,58.467,8.046,61.159,7.294,56.181,6.541,51,5.731,45.558M7.12,23.647a14.253,14.253,0,0,1,.637-1.534c.492-.9,1.071-1.737,1.592-2.6.81-1.36,1.621-2.721,2.489-4.052a7.542,7.542,0,0,1,1.187-1.071,31.626,31.626,0,0,0,.955,3.126,3.31,3.31,0,0,1-.318,3.068c-1.505,2.576-2.952,5.21-4.428,7.815a8.389,8.389,0,0,1-.724,1.042H8.075c-.434-1.795-.492-3.7-.955-5.789m.724,43.011c0-.81-.029-1.592,0-2.4A3.176,3.176,0,0,1,8.075,63.1c.955-1.795,1.939-3.589,2.952-5.355.637-1.129,1.331-2.229,2-3.329.116,0,.26.029.376.029.318,1.418.608,2.865,1.013,4.255a1.812,1.812,0,0,1-.376,1.852c-1.852,2.431-3.647,4.949-5.47,7.41-.145.2-.405.289-.753.579C7.844,67.874,7.844,67.411,7.844,66.659Z" transform="translate(117.298 176.271)" fill="#96ba50"/>
    <path id="Pfad_321" data-name="Pfad 321" d="M16.527,20.384a10.914,10.914,0,0,0-.116-1.881c-1.187,1.534-2.258,3.184-3.329,4.834-.81,1.245-1.216,2.75-2.576,3.676.232-1.968,1.3-3.589,2.084-5.326.81-1.766,1.476-3.618,2.2-5.442.695.289,1.216.492,1.737.724a3.231,3.231,0,0,0-.116-.955c-.463-.868-1.187-1.592-1.1-2.2a23.186,23.186,0,0,1,1.216-4.052c0-3.213,0-6.426-.087-9.754a1.069,1.069,0,0,0-.753.2,14.192,14.192,0,0,0-1.187,2.4A13.026,13.026,0,0,1,13.459,5.42c-1.563,2.837-3.3,5.586-3.994,8.8A3.3,3.3,0,0,1,8.8,15.782c-1.563,1.679-2.113,3.85-2.981,5.847a43.2,43.2,0,0,0-2.142,6.628c-1.158,4.457-2.2,8.915-3.213,13.43A39.055,39.055,0,0,0,0,45.942a14.383,14.383,0,0,0,1.447.145,6.313,6.313,0,0,1,.261,4.544c-.521,2.084-.9,4.2-1.245,6.31a15.371,15.371,0,0,0-.029,2.6c1.331-.55,1.447-1.679,1.91-2.431-.347.029-.55.029-.868.058-.347-2.373.405-4.515,1.129-6.657.434-1.331.782-2.721,1.187-4.081C4.8,42.96,5.586,39.4,7.236,36.1a173.093,173.093,0,0,1,8.481-15.167,5.666,5.666,0,0,1,.81-.55m-4.515-7.091c.521-.839.782-1.939,2.113-2.489a9.377,9.377,0,0,1-.347,1.013c-1.071,2.055-2.229,4.11-3.242,6.194C9.928,19.284,9.552,20.673,9.031,22,7.728,25.1,6.4,28.2,5.094,31.3c-.289.637-.579,1.3-.839,1.939-.116-.058-.261-.087-.376-.145a12.444,12.444,0,0,1,1.1-3.618c1.447-3.531,2.865-7.062,4.371-10.565.753-1.823,1.679-3.589,2.663-5.615M9.349,30.254a24.231,24.231,0,0,1-2.055,3.7c-.116-.058-.2-.116-.318-.174.81-1.766,1.621-3.56,2.489-5.47.724.81.145,1.216-.116,1.939M3.734,34.046c-.029,0-.058-.029,0,0M14.3,10.311Z" transform="translate(119.903 145.293)" fill="#98bd54"/>
    <path id="Pfad_324" data-name="Pfad 324" d="M15.109,0a1.1,1.1,0,0,0-.782.405A173.086,173.086,0,0,0,5.847,15.572C4.226,18.843,3.445,22.4,2.4,25.905,2,27.265,1.65,28.626,1.216,29.986.493,32.128-.26,34.27.087,36.643a7.606,7.606,0,0,0,.955-.116,3.648,3.648,0,0,0,.695-.984,20.462,20.462,0,0,1,1.418-3.792c1.939-3.271,4.052-6.426,6.107-9.638A8.045,8.045,0,0,0,9.9,20.9c1.245-2.692,2.46-5.384,3.7-8.047.405-.868.9-1.708,1.418-2.663.087-3.386.087-6.715.087-10.188M8.423,15.312c1.158-1.389,1.708-3.271,3.386-4.255a5.1,5.1,0,0,1-.782,1.592c-1.274,2.026-2.721,3.965-3.792,6.078C6.05,21.1,5.182,23.676,4.168,26.137c-.492,1.187-.753,2.518-1.737,3.473,1.389-4.949,2.894-9.812,5.991-14.3M12.5,9.957Z" transform="translate(121.321 165.851)" fill="#9bbf58"/>
    <path id="Pfad_326" data-name="Pfad 326" d="M9.031,0C4.371,6.889.724,14.356,0,22.982c1.476-1.129,2.2-2.779,3.271-4.2,1.042-1.418,2.084-2.865,2.981-4.371.926-1.563,1.737-3.213,2.663-4.892C9.031,6.339,9.031,3.242,9.031,0Z" transform="translate(127.4 209.759)" fill="#9cc159"/>
    <path id="Pfad_327" data-name="Pfad 327" d="M10.882,3.271a2.987,2.987,0,0,1,.289,2.779c-.666,2.75-1.36,5.528-2.287,8.22a32.75,32.75,0,0,1-2.576,5.384C5.266,21.477,3.877,23.1,2.922,24.979,1.793,27.265.954,29.7.027,32.07c-.087.232.058.579.087.926.232-.116.376-.145.405-.232,1.65-2.981,3.1-6.078,4.978-8.915,1.158-1.766,2.142-3.618,3.3-5.384,1.013-1.505,2-3.039,3.01-4.544.087-.116.405-.058.695-.058.087-4.544.087-9.117.087-13.864a1.336,1.336,0,0,0-.666.608c-.289.608-.521,1.274-.9,2.055A2.8,2.8,0,0,0,10.882,3.271Z" transform="translate(123.783 181.278)" fill="#9cc159"/>
    <path id="Pfad_328" data-name="Pfad 328" d="M5.773,4.48c0-1.389,0-2.75-.145-4.313a8.421,8.421,0,0,0-2.2-.145C2.618.109,1.894.341,1.663,1.3,1.142,3.438.592,5.551.042,7.692A.9.9,0,0,0,.736,8.879.463.463,0,0,0,1,8.5,13.127,13.127,0,0,1,2.676,6.824C3.689,6.043,4.731,5.261,5.773,4.48Z" transform="translate(130.658 138.563)" fill="#98bd54"/>
    <path id="Pfad_329" data-name="Pfad 329" d="M2.431,15.369a.977.977,0,0,1-.637-1.216c.55-2.142,1.1-4.255,1.621-6.4A1.681,1.681,0,0,1,5.181,6.484c.666-.058,1.36-.029,2.2-.029a1.728,1.728,0,0,0,.145-.9,13.971,13.971,0,0,0-2.373-.174C4.313,4.342,4.428,3.85,5.47,3.01A14.786,14.786,0,0,0,5.876,0c-.347.029-.55.087-.608.2A60.925,60.925,0,0,0,2.026,9.031c-.347,1.36-.637,2.75-1.013,4.11-.087.318-.434.55-.666.955a3.67,3.67,0,0,0,.087.984c.174.9.753,1.795-.434,2.46a6.288,6.288,0,0,0,.087,1.3A6.071,6.071,0,0,0,.81,20.029C1.042,18.293,1.187,16.643,2.431,15.369Z" transform="translate(128.905 132.16)" fill="#92b74a"/>
    <path id="Pfad_331" data-name="Pfad 331" d="M6.02.868A8.82,8.82,0,0,0,4.284,0c-.724,1.823-1.389,3.676-2.2,5.442C1.274,7.178.2,8.8,0,10.767c1.36-.926,1.766-2.431,2.576-3.676,1.071-1.65,2.142-3.3,3.329-4.978A4.14,4.14,0,0,0,6.02.868Z" transform="translate(130.41 161.538)" fill="#9bbf58"/>
    <path id="Pfad_332" data-name="Pfad 332" d="M11.2,0A17.284,17.284,0,0,0,9.089,1.823c-.9.955-1.737,1.939-2.6,2.923C4.168,7.323,1.708,9.783.318,13.025A3.748,3.748,0,0,0,0,14.3a4.815,4.815,0,0,0,1.505-1.91A20,20,0,0,1,5.123,7.468c1.534-1.592,3.01-3.242,4.544-4.834a6.422,6.422,0,0,1,1.447-1.042A9.1,9.1,0,0,0,11.2,0Z" transform="translate(125.229 236.504)" fill="#abcd6d"/>
    <path id="Pfad_333" data-name="Pfad 333" d="M4.66,0a30.759,30.759,0,0,0-3.1,2.229A8.406,8.406,0,0,0,0,3.879C1.331,3.126,2.576,2.316,3.936,1.36c-.029.434-.029.637-.029.839.2-.087.376-.145.666-.261A13.449,13.449,0,0,0,4.66,0Z" transform="translate(131.771 143.187)" fill="#92b74a"/>
    <path id="Pfad_335" data-name="Pfad 335" d="M.058,0C.029,0,0,.087,0,.232.058.261.058.087.058,0Z" transform="translate(136.373 180.178)" fill="#9cc159"/>
    <path id="Pfad_339" data-name="Pfad 339" d="M19.583,9.928c-1.129,1.563-2.142,3.039-3.155,4.544A78.586,78.586,0,0,1,4.908,27.729C3.634,28.944,2.3,30.1,1,31.318a2.469,2.469,0,0,0-.984,2.2,6.817,6.817,0,0,0,1.331,0A50.759,50.759,0,0,1,14.72,32.273c2.547.087,5.094.463,7.641.608a23.984,23.984,0,0,0,11.954-2.229c1.331-.637,2.692-1.245,4.226-1.968.695-.463,1.187-.868,1.737-1.158a26.417,26.417,0,0,0,7.612-6.715c4.515-5.5,4.631-15.283.724-20.116A6.538,6.538,0,0,0,47.08.463a6.8,6.8,0,0,0,1.013,1.592c.376.463.955.839,1.158,1.36.463,1.071.753,2.229,1.1,3.3-.376.695-1.36.955-.81,1.939.81,1.418.579,2.923.116,4.544a6.718,6.718,0,0,0,.087,1.331c.55,1.389-.492,2.113-1.129,3.1a4.946,4.946,0,0,1-.376.666,3.273,3.273,0,0,1-.289.376A24.269,24.269,0,0,1,44.619,23.3a36.516,36.516,0,0,1-8.539,5.586,47.174,47.174,0,0,1-4.718,1.737,10.046,10.046,0,0,1-5.355,1.245c-3.068.029-6.136-.2-9.233-.318-.232,0-.434-.116-.666-.116-1.939-.058-3.879-.174-5.818-.116-1.939.087-3.85.405-5.76.579-.521.058-1.071,0-2.026,0,1.679-1.679,3.068-2.981,4.371-4.4,2.46-2.605,4.978-5.181,7.265-7.96,2.837-3.415,5.384-7.091,8.22-10.478a39.449,39.449,0,0,1,4.313-3.7,4.2,4.2,0,0,1,.9-.666,25.852,25.852,0,0,1,6.686-2.373,15.471,15.471,0,0,1,1.737-.695c.753-.232.955-.637.579-1.418a1.632,1.632,0,0,0-.029-.2c-.463,0-.9.029-1.476.029-.984.434-1.823.9-2.721,1.245A28.586,28.586,0,0,0,20.306,9.291,5.866,5.866,0,0,1,19.583,9.928Z" transform="translate(0 81.999)" fill="#38908b"/>
    <path id="Pfad_350" data-name="Pfad 350" d="M9.866,3.5C8.477,2.894,7.088,2.316,5.7,1.708c-.608-.261-1.216-.521-2-.926A1.558,1.558,0,0,1,3.354.376h0C2.254.261,1.154.116.025,0c-.2,1.36.868,1.939,1.389,3.01.492,1.187.868,2.171,1.3,3.3.463,1.766.868,3.387,1.331,5.181.347,1.766.666,3.415,1.013,5.21.116,3.155.2,6.136.289,9.291.029,1.36.029,2.547.058,3.734.116,4.023.2,8.075.347,12.1.058,1.476.2,2.952.347,4.544.492,2.287.9,4.428,1.389,6.57.318,1.36.753,2.721,1.216,4.139,1.042,1.824,1.968,3.56,3.039,5.384.782.9,1.476,1.708,2.2,2.518,2.316,2.663,5.3,4.428,8.278,6.223a21.209,21.209,0,0,1,5.644,4.689c.347.232.637.434.9.637V74.792c.81.405,1.447.724,2.171,1.042a26.684,26.684,0,0,0,1.505-2.75c.405-.753.637-1.3.984-1.824,1.621-2.373,3.271-4.718,4.921-7.062,1.447-3.473,2.894-6.947,4.4-10.68.145-.637.174-1.042.289-1.418a24.964,24.964,0,0,0,1.129-8.365c-.26-2.923-.666-5.818-1.013-8.741-.637-1.505-1.3-3.01-2.026-4.718-.174-.376-.26-.55-.347-.724-.81-1.245-1.621-2.489-2.547-3.907-.753-.955-1.389-1.766-2.026-2.547-1.042-1.013-2.113-2.026-3.358-3.155C31,18.38,29.346,16.9,27.7,15.456A98.175,98.175,0,0,0,16.61,7.323c-.608-.405-1.245-.782-2.026-1.3-1.476-.81-2.75-1.476-4.139-2.171-.261-.145-.405-.232-.579-.347h0M24.8,65.761c-.058,1.505.2,3.01,0,4.8-1.36-1.042-2.4-1.91-3.531-2.663-1.013-.695-2.055-1.679-3.184-1.795-1.592-.174-2.171-1.1-2.952-2.373-.521-.637-1.013-1.3-1.737-2.055A23.886,23.886,0,0,1,8.506,50.537c-.55-3.3-.782-6.657-1.042-9.986-.2-2.663-.232-5.355-.347-8.018L6.769,22.461c-.087-2.489-.174-5.007-.376-7.5A26.1,26.1,0,0,0,4.569,7C3.933,5.442,3.325,3.879,2.63,2.113a4.463,4.463,0,0,1,.984.145C6.827,3.734,10.04,5.21,13.224,6.715c.405.174.724.55,1.3.868,2.2.724,3.792,2.4,5.789,3.85a17.022,17.022,0,0,1,1.737,1.013c.9.695,1.737,1.476,2.6,2.2,2.084,1.679,4.2,3.329,6.252,5.007a3.651,3.651,0,0,1,1.013,1.36c.463,1.071.81,2.2,1.245,3.3a6.034,6.034,0,0,0,.521.753c.463-.347.839-.666,1.245-.984a7.352,7.352,0,0,1,.695.579,20.884,20.884,0,0,1,3.879,5.991,28,28,0,0,1,2.808,17.569,24.519,24.519,0,0,1-.521,3.879c-.753,2.316-1.679,4.544-2.634,6.773-.434,1.042-2.287,1.274-3.155.521-.174-.145-.318-.318-.492-.492-.9-.782-1.447-.666-2.026.347a13.7,13.7,0,0,1-1.245,2A8.846,8.846,0,0,0,29.925,65.7c-.029.289-.347.55-.55.81a4.182,4.182,0,0,1-3.126,1.331c-1.158-.81-.405-2.171-.926-3.242a1.277,1.277,0,0,0-.81.492C24.628,65.269,24.628,65.443,24.8,65.761Z" transform="translate(67.2 15.717)" fill="#38908b"/>
    <path id="Pfad_352" data-name="Pfad 352" d="M0,1.394a1.325,1.325,0,0,0,.463.695C3.358,1.8,6.165,1.423,9,1.1a16.091,16.091,0,0,1,2.055-.058H19.8c.521,0,1.158.2,1.476-.81A9.962,9.962,0,0,0,19.8.033c-2.692-.029-5.355-.058-8.046,0A65.334,65.334,0,0,0,0,1.394Z" transform="translate(101.813 93.63)" fill="#b0d072"/>
    <path id="Pfad_353" data-name="Pfad 353" d="M.006,3.965a1.046,1.046,0,0,0,.2.666c2.6-.753,5.094-1.679,7.67-2.373a31.509,31.509,0,0,1,4.689-.637c1.3-.145,2.6-.232,3.879-.376A1.136,1.136,0,0,0,17.517,0a7.507,7.507,0,0,0-2.489.347,5.328,5.328,0,0,1-2.75.289A25.162,25.162,0,0,0,6.75,1.36,69.95,69.95,0,0,0,.006,3.965Z" transform="translate(108.089 41.275)" fill="#abcd6d"/>
    <path id="Pfad_354" data-name="Pfad 354" d="M11.259,0A7.575,7.575,0,0,0,9.986,1.274,30.249,30.249,0,0,0,8.452,3.936,175.381,175.381,0,0,0,.55,20.406c-.2.55-.347,1.1-.55,1.65.145.058.289.116.463.174.463-1.071.926-2.113,1.418-3.184,1.968-4.052,3.907-8.075,5.9-12.128,1.1-2.258,2.287-4.457,3.444-6.8Z" transform="translate(119.672 53.171)" fill="#abcd6d"/>
    <path id="Pfad_355" data-name="Pfad 355" d="M0,18.438a4.112,4.112,0,0,0,.695-.724L7.728,5.036C8.481,3.7,9.2,2.345,9.928.984A1.075,1.075,0,0,0,9.9,0C9.494.579,9.06,1.158,8.712,1.766,6.02,6.657,3.358,11.52.695,16.411a12.485,12.485,0,0,0-.666,1.852Z" transform="translate(123.058 34.733)" fill="#abcd6d"/>
    <path id="Pfad_358" data-name="Pfad 358" d="M.347.9C.2,1.3.116,1.592,0,2.026.984,1.245.984,1.245.868,0A9.072,9.072,0,0,0,.347.9Z" transform="translate(118.572 75.979)" fill="#abcd6d"/>
    <path id="Pfad_359" data-name="Pfad 359" d="M.232,0A2.413,2.413,0,0,0,0,.347C.029.376.087.405.116.434A1.587,1.587,0,0,0,.232.087Z" transform="translate(122.479 53.865)" fill="#abcd6d"/>
    <path id="Pfad_360" data-name="Pfad 360" d="M.347,0A3.387,3.387,0,0,0,0,.579V.695A3.386,3.386,0,0,0,.347.116Z" transform="translate(122.711 53.171)" fill="#abcd6d"/>
    <path id="Pfad_361" data-name="Pfad 361" d="M0,.434.261.087C.232.058.174.029.145,0A1.587,1.587,0,0,0,.029.347Z" transform="translate(130.931 52.736)" fill="#abcd6d"/>
    <path id="Pfad_362" data-name="Pfad 362" d="M.013,0Z" transform="translate(131.439 51.984)" fill="#abcd6d"/>
    <path id="Pfad_363" data-name="Pfad 363" d="M.174,0C.116.063.058.091,0,.149.029.12.087.12.145.063.174-.024.174,0,.174,0Z" transform="translate(134.549 73.427)" fill="#665a4e"/>
    <path id="Pfad_364" data-name="Pfad 364" d="M.116.007C.087.036.058.036,0,.065.029.065.058.094.087.036S.116.007.116.007Z" transform="translate(118.138 65.175)" fill="#6a5d54"/>
    <path id="Pfad_365" data-name="Pfad 365" d="M0,.065C.029.036.058.036.116.007.087.007.058-.022.029.036S0,.065,0,.065Z" transform="translate(134.723 73.338)" fill="#665a4e"/>
    <path id="Pfad_366" data-name="Pfad 366" d="M.013.008C-.016.037.013-.021.013.008Z" transform="translate(133.494 34.117)" fill="#abcd6d"/>
    <path id="Pfad_367" data-name="Pfad 367" d="M0,.013Z" transform="translate(118.08 79.758)" fill="#abcd6d"/>
    <path id="Pfad_368" data-name="Pfad 368" d="M7.233,66.4a7.231,7.231,0,0,0,.724-1.274c.232.666.405,1.158.637,1.852.318-.434.637-.695.637-.926a16.338,16.338,0,0,1,2.46-7.236A16.076,16.076,0,0,0,13.8,49.668,113.122,113.122,0,0,0,12.79,37.975c-.405-2.46-.724-4.949-1.1-7.41a1.453,1.453,0,0,0-.058-.347c-1.274-3.184-1.274-6.657-2.46-9.87-.666-1.766-1.331-3.531-1.939-5.3a21.923,21.923,0,0,1-.666-3.039A2.182,2.182,0,0,0,6.1,10.97a9.682,9.682,0,0,1-2.4-5.7c0-.029.087-.087.116-.232a4.444,4.444,0,0,0-.463-1.274C1.965,2.865,2.37,1.274,1.791,0,.547.55.489,1.621.4,2.576.2,5.065.112,7.554.026,10.044A38.686,38.686,0,0,0,.633,18,4.494,4.494,0,0,1,.344,21.39a.918.918,0,0,0,.174.579,2.829,2.829,0,0,1,.2,3.213,9.891,9.891,0,0,0,.232,1.939,1.539,1.539,0,0,1,.116,2.142,5.348,5.348,0,0,0-.029.666.349.349,0,0,0,.2.289c.868.492.81,1.245.868,2,.232,2.923.261,5.9.753,8.77.81,4.834,1.91,9.638,2.923,14.472.463,2.229.955,4.428,1.534,6.715a16.44,16.44,0,0,1,.492,1.766,2.134,2.134,0,0,0-.405.116c-.174-.637-.347-1.3-.521-2.055a3.069,3.069,0,0,0-.695-.579c.347,1.592.666,3.213,1.042,4.978m.695-27.439c.232,2.142.405,4.313.695,6.426.492,3.589,1.1,7.178,1.621,10.767.174,1.158.318,2.287.492,3.444-.116.029-.232.058-.376.087-.232-.868-.55-1.708-.724-2.576A125.683,125.683,0,0,1,7.522,42.78c-.232-2.952-.666-5.876-.984-8.8-.261-2.663-.347-5.326-.753-7.96a77.8,77.8,0,0,0-2.6-12.851,4.1,4.1,0,0,1-.087-.9c.2.116.318.145.376.232.116.261.232.521.318.782a59.744,59.744,0,0,1,2.75,13.343c.376,4.023.926,8.018,1.389,12.33M2.515,10.246l.116.116c-.029,0-.058-.029-.116-.116m.347,1.013.116.116C2.949,11.375,2.92,11.375,2.862,11.259Z" transform="translate(110.674 192.45)" fill="#9bbf58"/>
    <path id="Pfad_369" data-name="Pfad 369" d="M4.689,6.509C4.573,5.7,4.371,5.062,4.342,4.4,4.284,2.949,4.313,1.473,4.313.026c-.347,0-.521-.058-.55,0C2.373,1.589.782,3.036.174,5.12a2.505,2.505,0,0,0,.058,1.3c.492,2.113,1.013,4.2,1.505,6.31a.625.625,0,0,1-.2.637C1.071,12.211.579,11.025,0,9.809c.753,2.663,1.592,5.384,2.46,8.075.347,1.071.782,2.142,1.187,3.213.2.492.434.984.666,1.476.145-.029.289-.058.405-.087C4.689,17.219,4.689,11.922,4.689,6.509Z" transform="translate(119.759 255.755)" fill="#99be57"/>
    <path id="Pfad_370" data-name="Pfad 370" d="M7.5,30.941c.232.232.463.376.782.666a.4.4,0,0,0,.26.116c-.492-2.2-.984-4.428-1.447-6.628-1.013-4.8-2.113-9.609-2.923-14.472-.492-2.894-.55-5.847-.753-8.77C3.358,1.1,3.444.347,2.547,0a48.084,48.084,0,0,0,.318,5.413,2.933,2.933,0,0,1-.116.753,9.143,9.143,0,0,0-.463-.926C1.476,3.473.724,1.766,0,.232A20.393,20.393,0,0,0,.492,2.865C1.331,5.528,2.4,8.1,3.039,10.8A74.919,74.919,0,0,1,5.5,27.034a1.307,1.307,0,0,0,.347.782c.029-1.042.029-1.968.029-2.865.116-.029.232-.029.347-.058.174,1.013.376,2.055.579,3.155.029.087,0,.232.029.347.029.26.029.405.058.579a.865.865,0,0,1,.347.087,5.509,5.509,0,0,1,.318,1.708C7.5,30.739,7.468,30.884,7.5,30.941Z" transform="translate(109.368 222.842)" fill="#92b74a"/>
    <path id="Pfad_371" data-name="Pfad 371" d="M.181,1.592A5.542,5.542,0,0,0,.007,0,5.744,5.744,0,0,0,.181,1.592Z" transform="translate(116.597 251.902)" fill="#9bbf58"/>
    <path id="Pfad_372" data-name="Pfad 372" d="M.181,1.042A2.321,2.321,0,0,0,.007,0,2.321,2.321,0,0,0,.181,1.042Z" transform="translate(119.346 264.116)" fill="#99be57"/>
    <path id="Pfad_373" data-name="Pfad 373" d="M60.32,149.15a3.154,3.154,0,0,0-.087-.955c-.492-2.4-.695-4.6-1.274-6.715-1.245-4.544-2.692-9.06-4.023-13.575a59.578,59.578,0,0,1-2.6-12.128c-.116-1.708-.145-3.415-.376-5.094a61.47,61.47,0,0,1-.666-9.523,16.084,16.084,0,0,0-.232-2.026,6.6,6.6,0,0,1,.695-4.052,5.272,5.272,0,0,1,.637,1.36c.782,2.2,1.505,4.4,2.344,6.57.174.463.695.782,1.1,1.158.029-.029.029-.087,0-.232a27.711,27.711,0,0,1-2.258-8.481,14.065,14.065,0,0,1,.463-6.4c.521-1.447.955-2.923,1.447-4.371a10.843,10.843,0,0,1,.579-1.3c.145,2.171.232,4.11.434,6.02.232,2.084.637,4.139.984,6.194.753-1.042.463-2.229.289-3.3a40.817,40.817,0,0,1-.608-7.96c.087-2.489.174-4.978.376-7.468.087-.926.145-2.026,1.389-2.576.579,1.274.174,2.865,1.534,3.618-.232-1.505-.55-2.923-.9-4.457a6.014,6.014,0,0,1,0-1.91,36.033,36.033,0,0,1,1.418-3.85,46.715,46.715,0,0,0,3.242-9.175c.26-1.274.637-2.518,1.013-3.994.289,2,.608,3.734.781,5.5a34.591,34.591,0,0,1,.318,6.455c-.318,3.213-1.071,6.4-1.534,9.581a4.432,4.432,0,0,0,0,2.952c1.1-2.142,2-3.965,2.923-5.76-.376-.058-.753-.116-1.36-.174a39.056,39.056,0,0,1,.463-4.255c1.013-4.486,2.055-8.973,3.213-13.43a43.2,43.2,0,0,1,2.142-6.628c.868-2,1.447-4.168,2.981-5.847a3.824,3.824,0,0,0,.666-1.563c.695-3.242,2.4-5.963,3.994-8.8a9.639,9.639,0,0,0,.926-2.75c-1.389,1.968-2.6,3.965-3.879,6.078a4.709,4.709,0,0,0-.984-1.013c-.839.55-.434,1.274-.55,1.91-.087.579-.116,1.158-.174,1.852-1.1-.781-1.1-.781-1.187-1.708-.145-1.3-.347-2.576-.405-3.879-.116-2.547-.521-5.152-.174-7.641A70.412,70.412,0,0,1,76.239,12.5a26.316,26.316,0,0,1,1.245-2.779A2.3,2.3,0,0,0,76.5,9.2c-1.042,3.242-1.968,6.368-2.894,9.61-.174.608-.347,1.071-.492,1.476-1.563.232-2.981.434-4.834.695.753-1.245,1.331-2.142,1.881-3.184.376-1.013.724-1.91,1.1-2.779,1.013-2.547,2.055-5.123,3.068-7.67,0-.753-.637-.955-1.274-1.187-.695,1.881-1.245,3.647-1.823,5.442-.26.753-.637,1.447-.926,2.2-.405,1.1-.724,2.258-1.216,3.329-.782,1.708-1.708,3.358-2.518,5.065-1.36,3.01-2.923,5.934-3.329,9.291a5.429,5.429,0,0,1-.521,1.447c-.116-.029-.26-.058-.376-.087a7.473,7.473,0,0,0,.116-2.113,16.506,16.506,0,0,1,.376-6.426,51.192,51.192,0,0,1,1.91-8.278c.579-1.592,1.013-3.271,1.534-4.892.839-2.518,1.708-5.036,2.576-7.583a3.97,3.97,0,0,0-1.274-.579C66.861,4.631,66.253,6.136,65.7,7.7a3.481,3.481,0,0,1-3.068,2.316,8.831,8.831,0,0,1,.26-1.737C63.62,6.31,64.4,4.371,65.183,2.431c.087-.232.405-.376.608-.579a4.977,4.977,0,0,0-1.3-.608A18.927,18.927,0,0,0,63.1,3.821c-.087-.029-.174-.058-.289-.087.174-1.1.376-2.171.55-3.271A3.257,3.257,0,0,0,62.4,0a7.159,7.159,0,0,0-.434,1.331c0,.376-.029.637-.029,1.013-.463,2.316-.955,4.457-1.331,6.628-.232,1.476-.753,2.547-2.344,2.894-1.389.318-2.692.9-4.081,1.216-3.965.926-7.931,1.968-12.1,1.881-1.1-.029-2.229.087-3.358.029-2.084-.058-4.2.261-6.281.2a7.018,7.018,0,0,1-4.023-.868c.232-.579.405-1.071.579-1.534a24.038,24.038,0,0,0-2.2,1.274,1.266,1.266,0,0,0-.318,1.042c.029.2.521.405.81.463,1.447.174,2.923.318,4.4.376,1.708.058,3.415-.029,5.123.029,1.245.029,2.489.318,3.7.261,2.258-.116,4.515-.405,7.033-.637,4.139-.955,7.96-1.91,12.012-2.894v3.126c1.331-1.042,1.331-1.042,2-3.039.55-1.621,1.129-2.026,2.779-2.026-.695,3.473-1.418,6.976-2.084,10.478-.145.782-.521,1.071-1.331,1.274a93.55,93.55,0,0,0-9.378,2.6c-3.792,1.36-7.468,3.068-11.288,4.718-1.476.724-2.894,1.3-4.255,2.026-3.1,1.65-6.136,3.386-9.233,5.065-.492.261-1.042.405-1.65.666-1.158.753-2.229,1.418-3.358,2.171-2.779,1.737-5.47,3.386-8.249,5.123-1.389.926-2.721,1.766-4.11,2.721-.492.376-.9.666-1.389,1.071-1.071.926-2.055,1.737-2.952,2.576A29.142,29.142,0,0,0,9,49.379c2.894-1.823,5.673-3.85,8.539-5.673a130.415,130.415,0,0,1,14.125-8.018c2.894-1.36,5.731-2.894,8.6-4.284,2.663-1.3,5.326-2.6,8.047-3.763a74.345,74.345,0,0,1,12.1-3.589,9.416,9.416,0,0,1,1.042-.087c-.087,2-.174,3.85-.26,5.818v1.042c.145,1.939-.376,3.792.579,5.528.289.55-.116.984-.637,1.216-1.3.579-2.6,1.129-3.907,1.708a60.126,60.126,0,0,0-6.368,2.865,16.644,16.644,0,0,1-3.7,1.592c-.753.2-1.534.463-2.287.695-2.663.81-5.268,1.737-7.96,2.4-5.123,1.3-10.275,2.489-15.4,3.734-3.473.839-6.947,1.592-10.478,2.171a24.738,24.738,0,0,0-7.554,2,5.311,5.311,0,0,1-1.245.232,17.564,17.564,0,0,0,.608-2.2C.695,54.56.463,54.82,0,56.036c.955-.2,1.823-.434,2.692-.579,5.5-1.071,11.028-2.113,16.527-3.184,1.447-.289,2.865-.666,4.428-1.042,1.563-.434,2.981-.839,4.4-1.158,3.271-.781,6.541-1.505,9.928-2.344,1.708-.521,3.329-.782,4.863-1.389,4.573-1.766,9.06-3.676,13.6-5.528,2.634-1.071,5.268-2.142,7.989-3.271A18.059,18.059,0,0,1,69.061,35.6c-.9,2.547-1.737,4.949-2.605,7.323-.463,1.274-.9,2.547-1.418,3.821-.145.318-.492.579-.724.955.029.9-.029,1.679.029,2.431.318,3.242-.9,5.5-3.994,6.628a37.24,37.24,0,0,0-4.776,2.489,3.587,3.587,0,0,0-1.1,1.274c2.576-1.158,5.036-2.258,7.728-3.5a32.894,32.894,0,0,1-1.968,7.12c-1.187,3.01-2.344,6.049-3.531,9.089-.289.782-.579,1.592-.868,2.344a8.071,8.071,0,0,0-1.795.2,16.815,16.815,0,0,0,1.447,1.418c-.347,1.158-.637,2.344-1.071,3.5-.376.984-.926,1.91-1.274,2.837.174.116.347.289.318.376L50.942,91.9a1.156,1.156,0,0,1-1.3.839c-1.129,0-2.287-.029-3.415.058-3.242.26-6.455.608-9.812.984-.984.145-1.852.232-2.837.405-2.287.579-4.486,1.1-6.773,1.679-.608.174-1.129.289-1.679.492-1.766.868-3.444,1.65-5.152,2.4-.984.434-2,.782-2.981,1.187,0,0,0-.029-.029.058a1.145,1.145,0,0,1-.434.289,26.446,26.446,0,0,0-7.062,5.21,12.645,12.645,0,0,1-1.042.724c-.608.695-1.158,1.3-1.737,2.026-1.187,1.534-2.316,2.952-3.473,4.515-.347.608-.637,1.129-.984,1.708a2.5,2.5,0,0,0,2.721-.521c-.376-.347-.753-.608-.347-1.071.289-.347.637-.666.926-1.013,2.779-3.647,5.818-7.033,9.841-9.349,1.476-.839,3.039-1.505,4.6-2.229a18.549,18.549,0,0,0,2.2-.926A21.958,21.958,0,0,1,29.9,96.3c5.76-1.187,11.636-1.939,17.482-2.808.637-.087,1.389-.26,1.766.55-.029.174-.029.289-.116.376a34.262,34.262,0,0,1-9.088,6.223c-2.779,1.476-5.586,2.923-8.452,4.2a78.956,78.956,0,0,1-7.67,2.923c-5.644,1.795-11.317,3.444-16.99,5.123-.579.174-1.1.376-1.013,1.071a25.9,25.9,0,0,0,3.039-.753c1.36-.521,2.6-.984,3.907-1.36,2.084-.637,4.2-1.245,6.4-1.91.955-.289,1.766-.521,2.576-.782,1.939-.608,3.965-1.071,5.847-1.852,2.837-1.158,5.586-2.547,8.394-3.821,1.331-.608,2.692-1.245,4.081-1.939.868-.666,1.679-1.216,2.721-.753a2.666,2.666,0,0,1,.55-.753c1.36-1.042,2.721-2.055,4.081-3.068.637-.463,1.274-.926,1.91-1.418.116.087.2.174.318.26-.926,2.171-1.852,4.342-2.779,6.657-.347,1.071-.695,2-1.1,3.039a12.466,12.466,0,0,0-.637,1.534c-.434,1.795-1.679,2.373-3.386,2.46a51.566,51.566,0,0,0-12.012,2.316,45.975,45.975,0,0,0-7.989,3.647c-2.084,1.621-4.081,3.155-6.165,4.776-.955,1.129-1.91,2.084-2.721,3.184-1.592,2.2-3.126,4.457-4.631,6.715-.347.521-.81,1.158-.2,1.881a3.791,3.791,0,0,0,.81,0c1.245-.347,2.489-.781,3.734-1.1,3.068-.781,6.165-1.534,9.291-2.4.55-.463.984-.955,2.055-.579-.9.463-1.534.781-2.258,1.158-2.229,1.389-4.371,2.663-6.426,4.11a35.412,35.412,0,0,0-7.554,7.583c-2.229,2.837-2.663,6.339-3.386,9.725a4.219,4.219,0,0,0,.145,1.216c.9-.347,1.679-.666,2.431-.984,2.373-.955,4.718-2,7.12-2.865a28.961,28.961,0,0,0,6.744-3.242c.984-.666,1.939-1.331,3.1-2.113-.058.405-.029.666-.145.81-.81,1.1-1.621,2.2-2.46,3.271a38.126,38.126,0,0,0-5.326,8.336c-.289.666-.666,1.3-.984,2.084-.463,1.505-.926,2.894-1.389,4.428-.347,1.3-.695,2.46-1.042,3.763-.608,1.708-.463,3.473-1.245,5.007-.145.289-.029.666-.087,1.013-.289,2.316-.579,4.6-.868,6.918-.261,2.084-.608,4.139-.839,6.223-.26,2.431-.405,4.863-.55,7.294-.029.26.289.55.521.984a118.225,118.225,0,0,0,8.365-14.762c2.4-5.007,4.515-10.13,7.091-15.456.289.637.521.9.521,1.158a13.2,13.2,0,0,0-.029,1.852c1.1-.116.9-.9.839-1.447-.318-3.386.463-6.686.81-9.986a58.943,58.943,0,0,1,1.766-8.307,22.315,22.315,0,0,1,3.56-7.149c.174,1.187.347,1.939.405,2.721.058.666.376.9.984.724-.2-1.129-.521-2.113-.608-3.126-.116-1.592,1.36-5.094,3.039-7.236,0,.868.029,1.505,0,2.171-.116,2.779-.2,5.557-.347,8.336-.087,1.65-.232,3.271-.347,4.921-.2,2.952-.492,5.876-.608,8.828a31.207,31.207,0,0,0,.347,4.544c.347,2.373.637,4.6.9,7,.666,3.792,1.331,7.439,2.113,11.028.2-.347.376-.637.318-.868-.347-2.287-.753-4.573-1.129-6.889-.174-1.013-.434-2-.55-3.01-.289-2.547-.579-5.065-.724-7.612-.174-3.126-.376-6.252-.261-9.378.145-3.85.695-7.67.955-11.52.2-3.184.232-6.368.376-9.552a6.837,6.837,0,0,1,1.476-3.7c.232.926.434,1.563.55,2.229a75.968,75.968,0,0,1,1.447,9.928c.116,3.039.839,6.078.9,9.117.087,3.792.405,7.641-.232,11.433-.087.579-.376,1.447.637,1.563.2-.376.405-.666.637-1.071a141.377,141.377,0,0,0-.637-17.569c-.289-2.981-.637-5.991-1.1-8.944-.289-1.91-.724-3.792-1.187-5.644a5.809,5.809,0,0,1,.695-5.007A29.868,29.868,0,0,0,42,118.787c.232-.463.521-.926.9-1.621a42.66,42.66,0,0,1,.376,4.747,57.674,57.674,0,0,0,1.187,13.575c1.3,6.165,2.952,12.272,4.544,18.38.695,2.634,1.679,5.181,2.634,7.873.463,1.129.868,2.171,1.245,3.184a.845.845,0,0,1,.261-.058c.145-1.042.289-2.084.434-3.3.116-6.541.261-12.909.318-19.306.029-2.894-.2-5.789-.347-8.683a37.063,37.063,0,0,0-.376-4.4c-1.129-5.991-2.518-11.925-5.789-17.193a4.394,4.394,0,0,1,0-5.065,4.015,4.015,0,0,0,.318-.55c.492-1.187.955-2.258,1.418-3.444a6.335,6.335,0,0,1,1.389-3.473v3.936c.116,1.36.2,2.576.318,3.936.145,2.2.232,4.255.434,6.281a47.82,47.82,0,0,0,.782,6.078c.868,3.763,1.881,7.5,2.923,11.2.955,3.386,2.055,6.744,2.981,10.13.724,2.692,1.274,5.413,1.968,8.1a3.622,3.622,0,0,0,.405.029M24.834,127.644h-.347a1.248,1.248,0,0,0,.55-.289,1.84,1.84,0,0,0,.637-.318h.347a1.248,1.248,0,0,0-.55.289,2.122,2.122,0,0,0-.637.318M70.393,38.5c.174-.521.318-1.071.492-1.592a21.107,21.107,0,0,1,.753-2.4c.145-.289.608-.463.984-.724.463,2.344.984,4.428,1.3,6.512a5.344,5.344,0,0,1-1.389,4.544,3.366,3.366,0,0,0-1.3-.781,5.357,5.357,0,0,1-.376,5.268,14.559,14.559,0,0,0-.608,1.563c-.174.55-.347,1.071-.55,1.766-.405-.492-.608-.753-1.013-.868a8.349,8.349,0,0,1,.145,4.978,17.336,17.336,0,0,1-1.823,4.66,21.552,21.552,0,0,1-.579-3.5c-.2-2.316-.289-4.66-.55-6.947-.116-.955.2-1.36.955-1.592a5.813,5.813,0,0,0,1.621,1.013c-.116-.26-.2-.55-.318-.781a4.784,4.784,0,0,1-.174-4.631,54.556,54.556,0,0,0,1.968-6.136,3.517,3.517,0,0,1,.463-.347M27.208,126.631c-.087,0-.2.029-.289.029a.971.971,0,0,0,.405-.434,3.825,3.825,0,0,1,.753-.637,39.316,39.316,0,0,0,9.523-6.773c.9-.9,2.055-1.563,3.068-2.489.058-.087.087-.174.145-.26a3.59,3.59,0,0,0-.116.724c-.781,1.766-1.621,3.5-2.316,5.3a3.858,3.858,0,0,1-3.821,2.75,2.34,2.34,0,0,0-.637.2c-2.2.492-4.428.984-6.715,1.592m25.5,28.279v2.4a7.316,7.316,0,0,1-.318,2.952,5.637,5.637,0,0,1-.753-1.505A153.478,153.478,0,0,1,45.414,135a75,75,0,0,1-1.245-12.707c0-2.779.2-5.586.318-8.365.058-1.158.81-1.65,1.766-2.142.116.174.232.289.318.434a26.391,26.391,0,0,1,2.692,5.876,50.9,50.9,0,0,1,2.229,7.7,95.46,95.46,0,0,1,1.476,10.275c.261,5.876.087,11.78.058,17.656,0,.26-.232.579-.318,1.187m-24.776-9.465a23.207,23.207,0,0,0-1.158,3.56c-.521,3.184-1.331,6.368-1.158,9.638.058,1.216.116,2.4-1.129,3.155a1.792,1.792,0,0,0-.434.724c-.724,1.563-1.447,3.1-2.142,4.66-1.679,3.792-3.271,7.67-5.094,11.4-1.534,3.184-3.271,6.252-5.007,9.349a5.232,5.232,0,0,1-1.91,2.316c.2-2.258.376-4.255.579-6.281.232-2.142.463-4.284.724-6.426.174-1.245.463-2.46.666-3.676.318-1.91.521-3.821.955-5.7a63.464,63.464,0,0,1,3.415-10.738,46.221,46.221,0,0,1,4.342-8.075c2.75-4.081,6.252-7.525,9.2-11.4a1.934,1.934,0,0,1,1.534-1.013c-1.129,2.808-2.229,5.528-3.386,8.51m-11.78.926c-1.187.405-2.4.753-3.56,1.187-1.216.463-2.431.984-3.647,1.476-1.129.434-2.055,1.36-3.618,1.3.434-1.766.81-3.415,1.274-5.036a7.775,7.775,0,0,1,.984-2.547,36.237,36.237,0,0,1,3.676-4.457,46.238,46.238,0,0,1,5.528-4.834c3.531-2.518,7.149-4.921,11.4-6.078,2.344-.637,4.747-1.158,7.12-1.708a13.9,13.9,0,0,1,1.389-.2c-.81,1.795-1.505,3.329-2.229,4.863a7.807,7.807,0,0,1-2.634,3.473,5.264,5.264,0,0,0-1.187,1.216,40.551,40.551,0,0,1-14.5,11.346m-3.965-19.451c2.258-3.7,5.47-6.541,8.77-9.262a18.72,18.72,0,0,1,7.265-3.647c1.65-.434,3.3-.9,4.949-1.245,3.068-.666,6.107-1.274,9.175-1.881a5.563,5.563,0,0,1,.984,0,2.581,2.581,0,0,1-1.042,2.142c-1.795,1.679-3.589,3.329-5.355,5.036a48.9,48.9,0,0,1-7.294,5.615,31.623,31.623,0,0,1-9.928,4.457c-3.039.695-6.165,1.129-9.06,2.316-.058.029-.2-.058-.492-.2a16.036,16.036,0,0,1,2.026-3.329m52.158-95.69c.405-3.039,2.055-5.644,3.184-8.423a1.156,1.156,0,0,1,.753-.579c1.476-.232,2.981-.376,4.6-.579,0,.695.029,1.245,0,1.795-.087,1.187-.232,2.373-.289,3.56s.029,2.4-.029,3.589a2.046,2.046,0,0,1-.347,1.245c-1.563,1.274-2.952,2.865-5.036,3.415-.868.232-1.679.695-2.547,1.013a11.71,11.71,0,0,1-1.245.289c.347-1.824.637-3.415.955-5.326M25.471,161.972Z" transform="translate(53.534 118.122)" fill="#92b74a"/>
    <path id="Pfad_374" data-name="Pfad 374" d="M33.546,5.065a9.672,9.672,0,0,0,.318-1.245A67.617,67.617,0,0,0,27.41,0C21.766,2.865,16.354,5.731,11.172,9.031a20.666,20.666,0,0,0-2.692,2.055A42.552,42.552,0,0,1,2.2,15.977a5.913,5.913,0,0,1-1.274.376,1.12,1.12,0,0,0-.26.029c-.087,0-.087.145-.087.232-.174.55-.347,1.013-.579,1.592a7.018,7.018,0,0,0,4.023.868c2.084.058,4.2-.261,6.281-.2,1.129.029,2.229-.087,3.358-.029,4.168.116,8.1-.955,12.1-1.881,1.389-.318,2.692-.9,4.081-1.216,1.592-.376,2.113-1.418,2.344-2.894.347-2.171.868-4.342,1.187-6.628a2.208,2.208,0,0,0-1.1.174c-4.863,2.258-9.725,4.544-14.617,6.744A49.84,49.84,0,0,1,5.47,17.019c-.174.029-.347-.087-.521-.116,0-.116-.029-.232-.029-.347.782-.289,1.534-.637,2.344-.868C9,15.167,10.8,14.762,12.5,14.154A129.079,129.079,0,0,0,27.844,7.41c1.852-.9,3.821-1.563,5.7-2.344M4.226,17.222Z" transform="translate(81.957 114.301)" fill="#9bbf58"/>
    <path id="Pfad_377" data-name="Pfad 377" d="M6.683,0C5.728,2.46,4.86,4.978,4.02,7.526c-.55,1.621-.955,3.271-1.534,4.892A54.446,54.446,0,0,0,.576,20.7,16,16,0,0,0,.2,27.121a7.472,7.472,0,0,1-.116,2.113c.116.029.261.058.376.087a9.664,9.664,0,0,0,.521-1.447c.405-3.358,1.968-6.281,3.329-9.291.781-1.708,1.737-3.358,2.518-5.065.492-1.071.81-2.229,1.216-3.329.289-.753.666-1.447.926-2.2.608-1.766,1.129-3.56,1.737-5.47C9.4,1.592,8.1.839,6.683,0Z" transform="translate(115.796 121.797)" fill="#9cc159"/>
    <path id="Pfad_378" data-name="Pfad 378" d="M15.283,12.764a5.374,5.374,0,0,0-.116-4.428c-.55-.984.434-1.245.81-1.939-.347-1.071-.637-2.229-1.1-3.3a7.225,7.225,0,0,0-1.158-1.36C13.343,1.274,13,.753,12.591.174,10.478.058,8.394.029,5.991,0H2.258c.376.695.145,1.129-.579,1.331A5.182,5.182,0,0,0,0,2.113,21.282,21.282,0,0,0,3.85,4.689c.724.347,1.36.955,2.344.782C7.5,5.239,8.683,4.4,10.1,4.776c.174.029.405-.174.579-.289C12.793,3.1,12.851,3.126,13.517,5.5c.579,1.968,1.1,3.907.463,5.991C13.691,12.446,14.385,12.793,15.283,12.764Z" transform="translate(34.373 82.26)" fill="#479a93"/>
    <path id="Pfad_379" data-name="Pfad 379" d="M4.293,0A15.787,15.787,0,0,0,2.962,2.721,70.412,70.412,0,0,0,.125,15.63,45.081,45.081,0,0,0,.3,23.271c.058,1.3.261,2.576.405,3.879.087.926.087.926,1.187,1.708.058-.695.087-1.3.174-1.852.087-.637-.289-1.389.55-2.026a1.3,1.3,0,0,0,.174-.608,4.489,4.489,0,0,0-.724-1.216,5.431,5.431,0,0,0-.492,1.563,2.973,2.973,0,0,1-.521-1.766c.2-2.779.434-5.528.782-8.278a50.864,50.864,0,0,1,1.1-6.339c.608-2.46,1.476-4.892,2.229-7.323A5.406,5.406,0,0,0,4.293,0Z" transform="translate(126.783 127.963)" fill="#98bd54"/>
    <path id="Pfad_380" data-name="Pfad 380" d="M6.078,0C3.965,1.939,1.65,3.618,0,6.049a2.212,2.212,0,0,0,2.084.261c2.6-.579,5.21-1.158,7.815-1.679a18.887,18.887,0,0,1,2.692-.2A19.662,19.662,0,0,0,6.078,0Z" transform="translate(79.41 98.15)" fill="#94b74a"/>
    <path id="Pfad_381" data-name="Pfad 381" d="M0,16.99A3.111,3.111,0,0,0,1.216,16.7,41.092,41.092,0,0,0,7.5,11.809a22.83,22.83,0,0,1,2.692-2.055C15.369,6.455,20.782,3.56,26.31.695A2.7,2.7,0,0,0,25.442,0,109.9,109.9,0,0,0,4.921,12.591C3.213,13.893,1.679,15.456,0,16.99Z" transform="translate(82.942 113.606)" fill="#92b74a"/>
    <path id="Pfad_382" data-name="Pfad 382" d="M0,16.325c.232-.26.579-.521.666-.81.376-1.36.666-2.75,1.013-4.11A58.521,58.521,0,0,1,4.921,2.576c.058-.116.261-.2.521-.318A11.634,11.634,0,0,0,3.531,0,32.07,32.07,0,0,0,2.055,4.11q-.782,3.039-1.3,6.165C.405,12.272.232,14.3,0,16.325Z" transform="translate(129.252 129.815)" fill="#98bd54"/>
    <path id="Pfad_383" data-name="Pfad 383" d="M1.369,17.28c.232-2.142.405-4.2.753-6.194q.521-3.126,1.3-6.165c.347-1.36.9-2.692,1.389-4.168A1.9,1.9,0,0,0,4.206,0C3.366,2.4,2.5,4.8,1.89,7.265A52.785,52.785,0,0,0,.79,13.6c-.347,2.75-.579,5.528-.782,8.278A2.973,2.973,0,0,0,.53,23.647a13.253,13.253,0,0,1,.405-1.621,7.037,7.037,0,0,0,.087-1.447c.116-.984.232-1.679.347-2.4Z" transform="translate(127.854 128.976)" fill="#abcd6d"/>
    <path id="Pfad_385" data-name="Pfad 385" d="M3.271,0a1.647,1.647,0,0,0-.724.55C1.766,2.489.984,4.428.261,6.4A9.185,9.185,0,0,0,0,8.133,3.407,3.407,0,0,0,3.068,5.818c.55-1.534,1.158-3.068,1.766-4.747A6.779,6.779,0,0,0,3.271,0Z" transform="translate(116.17 120.061)" fill="#9abf57"/>
    <path id="Pfad_386" data-name="Pfad 386" d="M2.171,0A21.158,21.158,0,0,0,0,1.274C1.505,2.75,3.126,4.139,4.834,5.615c.2-1.36.2-1.36-1.679-4.892A7.8,7.8,0,0,0,2.171,0Z" transform="translate(92.869 91.638)" fill="#96ba50"/>
    <path id="Pfad_387" data-name="Pfad 387" d="M.666,0C.376,1.071.2,2.142,0,3.242c.087.029.174.058.289.087.405-.839.782-1.679,1.274-2.6A3.47,3.47,0,0,0,.666,0Z" transform="translate(116.343 118.643)" fill="#96ba50"/>
    <path id="Pfad_388" data-name="Pfad 388" d="M.874,0C-.139.695-.255,1.187.44,2.258A15.642,15.642,0,0,0,.874,0Z" transform="translate(133.472 135.285)" fill="#98bd54"/>
    <path id="Pfad_389" data-name="Pfad 389" d="M0,.2C1.16.289,2.289.289,3.591.261,2.578.145,1.45.058.118,0-.027,0,0,.145,0,.2Z" transform="translate(36.599 81.999)" fill="#5f5851"/>
    <path id="Pfad_390" data-name="Pfad 390" d="M6.553,2.431C6.351,1.65,6.206.984,5.945,0c-.753,1.187-1.36,2.113-1.939,3.068-.868,1.447-1.766,2.894-2.576,4.4A11.946,11.946,0,0,0,1,8.915C.822,9.436.562,9.928.417,10.449c-.174.579-.579,1.36-.347,1.737C.909,13.6.533,15.2,1,16.643a21.451,21.451,0,0,1,.55,2.779c.232-.087.376-.087.434-.145,1.795-3.039,3.56-6.107,5.326-9.146a3.529,3.529,0,0,0,.405-2.952C7.248,5.673,6.958,4.11,6.553,2.431Z" transform="translate(127.186 200.96)" fill="#9cc159"/>
    <path id="Pfad_391" data-name="Pfad 391" d="M0,9.378c.463,1.968.521,3.85.955,5.673h.434c.232-.347.521-.695.724-1.042C3.589,11.4,5.036,8.77,6.541,6.194A3.31,3.31,0,0,0,6.86,3.126C6.512,2.2,6.281,1.187,5.9,0c-.492.434-.955.666-1.187,1.071C3.85,2.4,3.068,3.763,2.229,5.123c-.521.868-1.1,1.737-1.592,2.6A9.394,9.394,0,0,0,0,9.378Z" transform="translate(124.419 190.685)" fill="#9cc159"/>
    <path id="Pfad_407" data-name="Pfad 407" d="M8.075,2.6c-.926,1.91-1.852,3.676-2.6,5.5-1.505,3.5-2.923,7.062-4.371,10.565A11.619,11.619,0,0,0,0,22.287c.116.058.261.087.376.145.289-.637.579-1.3.839-1.939,1.3-3.1,2.634-6.165,3.936-9.291.55-1.3.9-2.721,1.505-3.994C7.67,5.094,8.8,3.068,9.9,1.013A9.377,9.377,0,0,0,10.246,0C8.915.55,8.654,1.65,8.075,2.6Z" transform="translate(123.782 156.096)" fill="#abcd6d"/>
    <path id="Pfad_408" data-name="Pfad 408" d="M.013.013Z" transform="translate(123.595 179.326)" fill="#abcd6d"/>
    <path id="Pfad_409" data-name="Pfad 409" d="M.013,0Z" transform="translate(134.218 155.575)" fill="#abcd6d"/>
    <path id="Pfad_412" data-name="Pfad 412" d="M5.876,4.342C2.837,8.712,1.331,13.6,0,18.553c.984-.955,1.245-2.287,1.737-3.473C2.75,12.591,3.589,10.044,4.8,7.67A68.879,68.879,0,0,1,8.6,1.592,5.105,5.105,0,0,0,9.378,0C7.67.984,7.091,2.837,5.876,4.342Z" transform="translate(123.811 176.907)" fill="#abcd6d"/>
    <path id="Pfad_413" data-name="Pfad 413" d="M.013.013Z" transform="translate(133.842 175.824)" fill="#abcd6d"/>
    <path id="Pfad_420" data-name="Pfad 420" d="M.006,0C-.023.058.063.145.179.289.237.2.15.116.006,0Z" transform="translate(70.635 16.151)" fill="#99be57"/>
    <path id="Pfad_421" data-name="Pfad 421" d="M.434,0A12.474,12.474,0,0,0,0,2.171C1.158,1.795.579.868.434,0Z" transform="translate(128.905 147.268)" fill="#98bd54"/>
    <path id="Pfad_426" data-name="Pfad 426" d="M24.111,0a34.008,34.008,0,0,0-4.255,3.589C17.019,7,14.472,10.652,11.636,14.067c-2.287,2.75-4.8,5.326-7.265,7.96-1.3,1.389-2.721,2.721-4.371,4.4.926,0,1.476.058,2.026,0,1.91-.174,3.85-.492,5.76-.579,1.939-.087,3.879.058,5.818.116.232,0,.434.116.666.116,3.068.116,6.136.347,9.233.318a9.39,9.39,0,0,0,5.413-1.36c1.245-1.042,2.576-1.679,2.923-3.213a.829.829,0,0,1,.318-.405c.984-.839,1.968-1.737,3.01-2.489.9-.637,1.968-1.042,2.837-1.737a26.108,26.108,0,0,0,2.547-2.518,3.336,3.336,0,0,0,.926-3.271,5.293,5.293,0,0,1,.492-3.792,3.961,3.961,0,0,0,.087-3.56C41.3,2.229,40,1.766,38.322,2.866a2.46,2.46,0,0,1-2.373.2C34.5,2.634,33,2,31.347,2.808a2.733,2.733,0,0,1-2.46-.521,1.891,1.891,0,0,0-2.373-.608A1.5,1.5,0,0,1,24.574.724C24.4.463,24.255.232,24.111,0M34.1,9.87c.029,0,.058-.029.087-.029a1.176,1.176,0,0,0-.174.318c-.058.087-.145.174-.289.405-.145.405-.347.753-1.274.463a9.264,9.264,0,0,0,1.36-.868A2.637,2.637,0,0,1,34.1,9.87m-2.46,1.737c.174-.029.376-.029.9-.087-.405.434-.55.695-.781.81-1.505.81-2.981,1.708-4.544,2.4-3.184,1.36-6.57,2.258-9.552,4.139a3.067,3.067,0,0,1-.868.289,10.131,10.131,0,0,1,4.081-2.634c3.589-1.534,7.352-2.576,10.767-4.921M15.833,19.8v-.405h.145a.5.5,0,0,1-.145.405m-.753.289Z" transform="translate(2.534 87.441)" fill="#73b2a5"/>
    <path id="Pfad_427" data-name="Pfad 427" d="M0,2.837a4.584,4.584,0,0,0,.347.839,1.507,1.507,0,0,0,1.939.955,1.935,1.935,0,0,1,2.373.608,2.62,2.62,0,0,0,2.46.521c1.679-.81,3.155-.2,4.6.261a2.46,2.46,0,0,0,2.373-.2C15.746,4.747,17.077,5.21,17.83,7a3.961,3.961,0,0,1-.087,3.56,5.293,5.293,0,0,0-.492,3.792,3.273,3.273,0,0,1-.926,3.271,34.843,34.843,0,0,1-2.547,2.518c-.868.695-1.939,1.071-2.837,1.737-1.042.753-2.026,1.65-3.01,2.489-.116.116-.289.26-.318.405-.318,1.563-1.679,2.171-2.808,3.155a27.682,27.682,0,0,0,4.573-1.592,36.517,36.517,0,0,0,8.539-5.586,19.3,19.3,0,0,0,3.213-4.66c-.2-.405-.521-.753-.434-.839.724-1.129,1.505-2.229,2.258-3.329V10.68c-.9-.116-1.592-.463-1.3-1.418.608-2.084.087-3.994-.463-5.991C20.521.9,20.464.868,18.351,2.258c-.174.116-.434.347-.579.289-1.418-.347-2.6.463-3.907.695-1.013.174-1.65-.434-2.344-.782A33.658,33.658,0,0,1,7.612,0,19.938,19.938,0,0,0,.926,2.171,3.7,3.7,0,0,0,0,2.837Z" transform="translate(26.703 84.517)" fill="#5ba59c"/>
    <path id="Pfad_428" data-name="Pfad 428" d="M2.352,0A30.286,30.286,0,0,0,.007,3.271c-.058.116.232.434.463.724.2,0,.289-.058.405-.318a3.161,3.161,0,0,1,.376-.666C1.831,2.113,2.873,1.418,2.352,0Z" transform="translate(47.391 96.471)" fill="#479a93"/>
    <path id="Pfad_429" data-name="Pfad 429" d="M.347,0A1.647,1.647,0,0,0,0,.492,1.015,1.015,0,0,0,.347,0Z" transform="translate(48.266 99.597)" fill="#5ba59c"/>
    <path id="Pfad_436" data-name="Pfad 436" d="M11.665,5.413a5.791,5.791,0,0,0-1.071-.81C7.41,3.1,4.2,1.621.984.145A3.544,3.544,0,0,0,0,0C.695,1.766,1.3,3.329,1.939,4.892a25.9,25.9,0,0,1,1.823,7.96c.174,2.489.26,5.007.376,7.5.145,3.358.232,6.715.347,10.073.087,2.663.145,5.355.347,8.018.26,3.329.492,6.686,1.042,9.986A22.328,22.328,0,0,0,10.97,59.567a13.188,13.188,0,0,0,1.737-1.476c.955.839.955.839,2.75.434a1.2,1.2,0,0,0-.116-.637c-.695-.608-.666-1.187-.232-2a4.026,4.026,0,0,1,1.129,2.489c.492.926.9,1.795,1.389,2.663a2.292,2.292,0,0,1,.55.753c0,.087,0,.261.116.261.753.434,1.36.839,2.2,1.389a14.807,14.807,0,0,1,.145-2.431c.174-.753.608-1.447.839-2.2a16.1,16.1,0,0,0,.463-2.084,36.678,36.678,0,0,0-1.3-11.983c-1.3-4.313-2.6-8.625-3.879-12.938a13.852,13.852,0,0,1-.839-5.094,1,1,0,0,1,.405.521c1.621,4.8,3.3,9.581,4.776,14.443a26.433,26.433,0,0,1,1.505,8.191c-.058,2.344-.232,4.66-.347,7.12a11.945,11.945,0,0,0-.145,1.621c.029.232.318.434.492.579a1.78,1.78,0,0,1,.029-.376c.289-.81.579-1.505.926-2.431,1.1.984.666,2,.753,3.039a6.487,6.487,0,0,0,.116,1.563,10.891,10.891,0,0,0,.955-.637,6.618,6.618,0,0,0,.984-.868c.232-.955.463-1.766.608-2.663.376-.868.955-1.65,1.3-2.489A7.953,7.953,0,0,1,31,51.116a7.549,7.549,0,0,0,2-2.287c.261-.434.608-.839.839-1.274a8.678,8.678,0,0,0,.782-2.2,41.572,41.572,0,0,0,.347-4.226A8.107,8.107,0,0,0,34.7,39.1a24.906,24.906,0,0,0-2.981-7.728c-1.447-2.373-2.6-4.921-3.936-7.381-.955-1.737-1.737-3.647-3.358-4.892a40.529,40.529,0,0,1-3.5-3.155c-1.968-1.881-4.2-3.5-6.223-5.326-1.592-1.36-3.358-2.721-3.039-5.21M15.456,25.5a.519.519,0,0,0,.145-.2c.029.029.087.116.058.116A.133.133,0,0,1,15.456,25.5Z" transform="translate(69.917 17.888)" fill="#75b2a5"/>
    <path id="Pfad_437" data-name="Pfad 437" d="M9.449,47.5c-.232.81-.463,1.65-.695,2.75-.405,1.621-.81,2.981-1.216,4.4-1.36-.9-1.447-1.331-.839-3.01a8.215,8.215,0,0,0-.116-1.592,7.036,7.036,0,0,0-1.563-.463v.376c-.029.753-.058,1.274-.116,1.881-.376-.116-.579-.174-.81-.261a5.056,5.056,0,0,0-.289,1.274c0,.145.318.318.521.492.261-.087.521-.145.839-.261.521,1.071-.232,2.431.926,3.242a4.037,4.037,0,0,0,3.126-1.331c.2-.26.521-.521.55-.81a9.077,9.077,0,0,1,2.316-4.457,17.712,17.712,0,0,0,1.245-2c.579-1.013,1.158-1.129,2.026-.347.174.145.318.318.492.492A2.2,2.2,0,0,0,19,47.353c.955-2.229,1.881-4.486,2.634-6.773a32.954,32.954,0,0,0,.521-3.879,28,28,0,0,0-2.808-17.569,21.1,21.1,0,0,0-3.879-5.991,7.354,7.354,0,0,0-.695-.579c-.405.318-.781.608-1.245.984a3.965,3.965,0,0,1-.521-.753c-.434-1.1-.781-2.229-1.245-3.3a3.9,3.9,0,0,0-1.013-1.36C8.7,6.426,6.584,4.8,4.5,3.126c-.9-.724-1.708-1.505-2.6-2.2A6.175,6.175,0,0,0,.042,0,3.206,3.206,0,0,0,.737,2.721,10.154,10.154,0,0,0,4.384,5.355c.405.174.926.463,1.042.782A4.957,4.957,0,0,0,7.134,8.191c2.171,2.142,3.531,4.863,5.268,7.323a10.193,10.193,0,0,1,1.563,2.373c.782,2.373,2.981,4.081,3.068,6.773,0,.261.318.463.405.724a5.5,5.5,0,0,1,.318,1.129c.26,2.142.463,4.284.753,6.4.492,3.792.637,7.583-.579,11.259-.839,0-.839,0-1.418-.521-1.071-1.013-2.026-.9-2.808.347a9.123,9.123,0,0,0-1.042,1.766A2.682,2.682,0,0,1,9.449,47.5Z" transform="translate(87.53 27.294)" fill="#4d9e97"/>
    <path id="Pfad_439" data-name="Pfad 439" d="M15.32,51.405c1.534.261,2.634-.116,3.184-1.65a9.122,9.122,0,0,1,1.042-1.766c.782-1.245,1.737-1.331,2.808-.347.579.55.579.55,1.418.521,1.245-3.7,1.071-7.468.579-11.259-.289-2.142-.492-4.284-.753-6.4a5.5,5.5,0,0,0-.318-1.129c-.116-.26-.405-.492-.405-.724-.058-2.692-2.258-4.4-3.068-6.773a9.624,9.624,0,0,0-1.563-2.373c-1.737-2.46-3.1-5.181-5.268-7.323-.637-.637-1.418-1.1-1.708-2.055-.116-.347-.637-.608-1.042-.782A10.512,10.512,0,0,1,6.579,6.715a3.546,3.546,0,0,1-.81-2.779C3.974,2.46,2.411.753.067,0-.367,2.46,1.4,3.821,2.961,5.21c2.026,1.824,4.226,3.444,6.223,5.326a40.066,40.066,0,0,0,3.5,3.155c1.621,1.216,2.4,3.126,3.358,4.892,1.331,2.46,2.46,5.007,3.936,7.381a24.209,24.209,0,0,1,2.981,7.728,9.475,9.475,0,0,1,.261,2.026,34.189,34.189,0,0,1-.347,4.226,9.092,9.092,0,0,1-.782,2.2,12.081,12.081,0,0,1-.839,1.274,7.177,7.177,0,0,1-2,2.287,7.767,7.767,0,0,0-2.721,3.213A19.69,19.69,0,0,1,15.32,51.405Z" transform="translate(81.572 23.3)" fill="#61a99e"/>
    <path id="Pfad_440" data-name="Pfad 440" d="M2.721,0c0,.145,0,.318.029.695.2.868.376,1.534.608,2.287-1.187.289-2.258.55-3.358.81C.579,4.949,1.158,5.876,2.75,6.049c1.1.116,2.171,1.1,3.184,1.795,1.1.753,2.142,1.621,3.531,2.663a23.667,23.667,0,0,0-.174-4.834,8.641,8.641,0,0,0-.955,1.939C6.57,6.976,6.194,5.442,5.528,4.139a.358.358,0,0,0-.116-.261c-.261-.318-.405-.55-.55-.753A30.171,30.171,0,0,0,3.473.434,6.817,6.817,0,0,0,2.721,0Z" transform="translate(82.565 75.805)" fill="#4d9e97"/>
    <path id="Pfad_441" data-name="Pfad 441" d="M0,5.152C.55,6.426.926,7.989,2.692,8.625c.289-.724.521-1.331.868-2.026a1.619,1.619,0,0,0,.087-.666c-.174-.289-.521-.463-.521-.608a10.081,10.081,0,0,1,.289-1.274c.232.087.434.145.81.261.029-.608.058-1.129.116-1.795-.174-.347-.492-.579-.492-.782-.029-.492.087-.984.058-1.621A.358.358,0,0,0,3.647,0C3.5.637,3.386,1.3,3.184,1.939c-.232.753-.666,1.447-.839,2.2A14.808,14.808,0,0,0,2.2,6.57C1.36,5.991.753,5.586,0,5.152Z" transform="translate(88.18 74.792)" fill="#61a99e"/>
    <path id="Pfad_442" data-name="Pfad 442" d="M1.534,3.589c1.187-.2,2.287-.463,3.444-.753-.232-.753-.405-1.389-.608-2.171C2.576.839,2.576.839,1.621,0,1.129.492.608.984,0,1.534A14.031,14.031,0,0,0,1.534,3.589Z" transform="translate(80.915 75.95)" fill="#61a99e"/>
    <path id="Pfad_443" data-name="Pfad 443" d="M.492.347C.434.232.261.145,0,0,.058.116.2.2.492.347Z" transform="translate(77.182 19.219)" fill="#665a4e"/>
    <path id="Pfad_444" data-name="Pfad 444" d="M4.776,26.542c-.463-4.168-1.013-8.162-1.331-12.186A61.763,61.763,0,0,0,.695,1.013C.608.753.492.492.376.232.347.145.2.116,0,0A4.1,4.1,0,0,0,.087.9a84.978,84.978,0,0,1,2.6,12.851c.405,2.634.492,5.326.753,7.96.289,2.923.753,5.847.984,8.8A125.683,125.683,0,0,0,6.541,44.835c.174.868.492,1.708.724,2.576.116-.029.232-.058.376-.087-.174-1.158-.318-2.287-.492-3.444C6.6,40.29,6.02,36.7,5.528,33.112,5.152,31,4.978,28.828,4.776,26.542Z" transform="translate(113.825 204.723)" fill="#abcd6d"/>
    <path id="Pfad_445" data-name="Pfad 445" d="M2.4,5.847A40.978,40.978,0,0,0,1.071,1.795,9.435,9.435,0,0,1,.81.695L.724.637C.463.376.289.2.116,0,.087.029,0,.087,0,.116A9.87,9.87,0,0,0,2.4,5.847Z" transform="translate(114.346 197.545)" fill="#92b74a"/>
    <path id="Pfad_446" data-name="Pfad 446" d="M1.274,5.644a2.577,2.577,0,0,0,.608.753C1.331,4.342.724,2.2,0,0,.232,1.331.579,2.721.926,4.255,1.071,4.776,1.158,5.152,1.274,5.644Z" transform="translate(113.188 191.814)" fill="#99bd58"/>
    <path id="Pfad_447" data-name="Pfad 447" d="M.018,0A17.176,17.176,0,0,0,.163,2.923,2.362,2.362,0,0,0,.018,0Z" transform="translate(111.173 214.419)" fill="#92b74a"/>
    <path id="Pfad_448" data-name="Pfad 448" d="M.347.087A.522.522,0,0,0,0,0,15.552,15.552,0,0,0,.434,1.939a2.131,2.131,0,0,0,.405-.116C.695,1.274.579.724.347.087Z" transform="translate(117.646 254.536)" fill="#96ba50"/>
    <path id="Pfad_449" data-name="Pfad 449" d="M.019,0A8.831,8.831,0,0,0,.135,1.881,1.243,1.243,0,0,0,.019,0Z" transform="translate(111.607 219.571)" fill="#92b74a"/>
    <path id="Pfad_450" data-name="Pfad 450" d="M0,0A.116.116,0,0,0,.116.058.15.15,0,0,0,0,0Z" transform="translate(113.188 202.726)" fill="#abcd6d"/>
    <path id="Pfad_451" data-name="Pfad 451" d="M0,0A.116.116,0,0,0,.116.058.15.15,0,0,0,0,0Z" transform="translate(113.536 203.768)" fill="#abcd6d"/>
    <path id="Pfad_452" data-name="Pfad 452" d="M4.826,9.841V9.2c-.376-.492-.9-.81-1.071-1.274C2.916,5.76,2.192,3.56,1.411,1.36A5.272,5.272,0,0,0,.774,0,6.6,6.6,0,0,0,.079,4.052,9.668,9.668,0,0,1,.311,6.078,61.972,61.972,0,0,0,.976,15.6c.232,1.679.261,3.386.376,5.094a57.7,57.7,0,0,0,2.6,12.128C5.289,37.338,6.736,41.853,7.981,46.4c.579,2.113.782,4.342,1.274,6.6a12.069,12.069,0,0,0,.579-3.039A4.21,4.21,0,0,1,9.6,48.887c.116-3.039.2-6.078.376-9.089.029-.289.405-.579.608-.839.029-.376.029-.724.029-1.216a5.3,5.3,0,0,1-.318-1.071,75.189,75.189,0,0,0-2.46-16.238C7.2,17.743,6.129,15.167,5.289,12.5c-.2-.839-.289-1.679-.463-2.663M3.755,20.956A112.353,112.353,0,0,1,1.9,7.7a19.344,19.344,0,0,1,.955,3.531c.782,4.284,1.505,8.6,2.316,12.88Q6.78,32.533,8.444,40.985c.058.318.087.637.145.955A10.224,10.224,0,0,1,6.91,37.772c-1.071-5.47-2.084-11-3.155-16.817M1.584,6.512Z" transform="translate(104.513 213.203)" fill="#9bbf58"/>
    <path id="Pfad_453" data-name="Pfad 453" d="M1.013,0C.782.145.405.434.376.724.232,3.763.116,6.8,0,9.812a2.69,2.69,0,0,0,.232.926A32.694,32.694,0,0,0,.724,6.744C.81,5.963.9,5.47.984,5.007c.029-1.274.029-2.547.087-3.936A4.439,4.439,0,0,0,1.013,0Z" transform="translate(114.115 252.249)" fill="#92b74a"/>
    <path id="Pfad_454" data-name="Pfad 454" d="M.376.087A.562.562,0,0,0,0,0,3.119,3.119,0,0,0,.261.839,1.589,1.589,0,0,0,.376.087Z" transform="translate(111.828 228.139)" fill="#9bbf5a"/>
    <path id="Pfad_455" data-name="Pfad 455" d="M1.389,28.336a3.819,3.819,0,0,0-.579.376c-.289.753-.521,1.418-.81,2.316A3.961,3.961,0,0,0,1.245,30.8a24.738,24.738,0,0,1,7.554-2c3.531-.579,7-1.331,10.478-2.171,5.123-1.245,10.275-2.431,15.4-3.734,2.692-.695,5.3-1.592,7.96-2.4.753-.232,1.505-.492,2.287-.695a16.087,16.087,0,0,0,3.7-1.592c2.026-1.158,4.255-1.91,6.368-2.865,1.3-.579,2.6-1.129,3.907-1.708.521-.232.955-.666.637-1.216-.955-1.737-.405-3.589-.695-5.528a57.818,57.818,0,0,0-5.76,1.245c-.434.116-.984.145-1.274.434-.926.926-2.142,1.013-3.271,1.274-3.271.782-6.57,1.36-9.667,2.75-2.344,1.042-4.66,2.171-6.976,3.242-5.123,2.344-10.275,4.689-15.4,7.033-1.823.839-3.618,1.708-5.442,2.518a2.406,2.406,0,0,1-.81.087,32.954,32.954,0,0,1,4.284-2.576c2.808-1.418,5.586-2.865,8.423-4.168,3.879-1.795,7.815-3.444,11.751-5.152a69.577,69.577,0,0,1,6.657-2.692c5.239-1.737,10.536-3.3,15.8-4.921A12.421,12.421,0,0,1,59.017,5.7c.087-1.852.174-3.7.261-5.7a8.83,8.83,0,0,0-1.042.087,72.675,72.675,0,0,0-12.1,3.589c-2.721,1.158-5.384,2.46-8.047,3.763-2.865,1.389-5.7,2.923-8.6,4.284A130.415,130.415,0,0,0,15.369,19.74c-2.894,1.823-5.673,3.85-8.539,5.673a27.561,27.561,0,0,1-3.936,1.881c-.116,0-.116,0-.116.116C2.6,28.307,2.026,28.365,1.389,28.336Z" transform="translate(55.763 142.145)" fill="#9bbf58"/>
    <path id="Pfad_456" data-name="Pfad 456" d="M4.97,25.413a3.893,3.893,0,0,0,1.158-.2c.405-.26.608-.492.868-.521,5.731-1.042,11.491-2.026,17.222-3.126a35.574,35.574,0,0,0,5.413-1.447c1.852-.666,3.647-1.563,5.442-2.373a1.744,1.744,0,0,1,2.113.376,6.154,6.154,0,0,0,1.274-.753c.058-.2.087-.376.174-.405,2.287-1.187,4.6-2.373,6.918-3.5a4.249,4.249,0,0,1,1.274-.087c.232-.116.405-.232.55-.318.405-.434.724-1.013,1.216-1.274a35.567,35.567,0,0,1,4.776-2.489c3.068-1.129,4.313-3.415,3.994-6.628-.087-.753,0-1.534-.145-2.46a1.054,1.054,0,0,0-.608-.2.431.431,0,0,1,0,.2c-.405,1.071-1.274.926-1.939.81a14.882,14.882,0,0,0-5.065,0c-2.229.318-4.515.376-6.744.724A25.119,25.119,0,0,0,34.551,4.11a2.322,2.322,0,0,1-.984.318,10.879,10.879,0,0,0-4.631,1.563c-3.3,1.679-6.57,3.415-9.87,5.094-1.418.724-2.894,1.331-4.255,2.142A71.807,71.807,0,0,0,3.147,21.766,34.274,34.274,0,0,1,.021,24.024a.812.812,0,0,0,.029.145c-.232.984.405,1.563.695,2.229.608-.087,1.187-.2,1.939-.376.174-.058.318-.116.318-.116l.116.087c.376-.087.781-.174,1.331-.347a2.855,2.855,0,0,1,.521-.232m22.4-11.665c-1.1.608-2.2,1.216-3.271,1.852a47.367,47.367,0,0,1-9.87,4.66c-2.779.9-5.47,1.968-8.22,2.952a3.845,3.845,0,0,1-.9-.058,5,5,0,0,1,.984-.608c3.5-1.36,7-2.721,10.507-4.11a39.585,39.585,0,0,0,4.11-1.708c2.258-1.187,4.371-2.75,6.686-3.763,4.428-1.939,8.973-3.618,13.488-5.355a11.215,11.215,0,0,1,1.766-.347c-.087.347-.232.521-.434.579-2.46.9-4.949,1.737-7.381,2.721-2.46.955-4.834,2.026-7.468,3.184M45.029,6.657l-.434.087a.692.692,0,0,1,.434-.087M43.727,7c-.058.029-.145.029-.2.058a.166.166,0,0,1,.2-.058M4.333,23.5Z" transform="translate(60.576 165.706)" fill="#9bbf58"/>
    <path id="Pfad_457" data-name="Pfad 457" d="M.01,13.345c3.01.521,5.991,1.042,9,1.563.347.058.666.116,1.274.174,2.026.318,3.734.637,5.47.926a30.124,30.124,0,0,0,9.812.116c.55-.145,1.013-.26,1.563-.376a.688.688,0,0,0,.347-.087,1.3,1.3,0,0,0,.318-.376c.376-.434.724-.9,1.129-.984,2.026-.347,3.994-1.245,6.194-.955.058,0,.2-.029.232-.145a2.789,2.789,0,0,1,.753-.782c1.968-1.1,3.907-2.229,5.9-3.271a11.536,11.536,0,0,1,2-.666,6.009,6.009,0,0,0,.608-.579c.463-.955,1.013-1.852,1.389-2.837.434-1.158.724-2.344,1.071-3.5-.55-.492-.984-.9-1.563-1.447a.75.75,0,0,0-.695-.058c-3.792.26-7.5.579-11.2.521A31.731,31.731,0,0,0,23.079,2.52C19.4,3.735,15.814,5.182,12.225,6.687c-3.763,1.592-7.468,3.386-11.2,5.065A1.543,1.543,0,0,0,.01,13.345M16.972,9.929l4.255-.347c.666-.058,1.36-.145,2.026-.232,1.968-.261,3.936-.55,5.9-.753a33.82,33.82,0,0,0,9.088-2.142c1.187-.492,2.4-.9,3.589-1.36.058.116.087.2.145.318a4.339,4.339,0,0,1-.724.55,45.642,45.642,0,0,1-5.9,2.229c-3.184.753-6.455,1.274-9.725,1.737-2.4.347-4.863.492-7.294.724-1.129.116-2.258.2-3.386.289-.9.058-1.795.116-2.721.145a9.1,9.1,0,0,1,4.747-1.158M42.732,4.98Z" transform="translate(61.975 193.838)" fill="#9abf57"/>
    <path id="Pfad_458" data-name="Pfad 458" d="M18.09,8.394C19.219,5.528,20.29,2.808,21.419,0a1.934,1.934,0,0,0-1.534,1.013c-2.981,3.879-6.455,7.323-9.2,11.4a46.222,46.222,0,0,0-4.342,8.075A67.1,67.1,0,0,0,2.923,31.231c-.434,1.881-.637,3.792-.955,5.7-.2,1.245-.492,2.46-.666,3.676-.289,2.142-.521,4.284-.724,6.426C.376,49.061.2,51.058,0,53.315A5.232,5.232,0,0,0,1.91,51c1.737-3.1,3.473-6.165,5.007-9.349,1.795-3.734,3.386-7.612,5.094-11.4.695-1.563,1.418-3.126,2.142-4.66.116-.26.232-.608.434-.724,1.245-.753,1.187-1.968,1.129-3.155-.174-3.271.608-6.455,1.158-9.638A33.984,33.984,0,0,1,18.09,8.394M4.2,40.435c-.087.2-.174.376-.376.839a6.962,6.962,0,0,1-.058-.955A50.175,50.175,0,0,1,7.149,28.742c2.373-5.847,4.892-11.636,7.352-17.453a2.669,2.669,0,0,1,1.418-1.795c-.492,1.158-.839,1.968-1.187,2.779-1.968,4.776-3.85,9.609-5.9,14.356A108.817,108.817,0,0,0,4.2,40.435Z" transform="translate(63.404 255.028)" fill="#9bbf58"/>
    <path id="Pfad_459" data-name="Pfad 459" d="M10.97,20.84A40.652,40.652,0,0,0,25.326,9.552a5.264,5.264,0,0,1,1.187-1.216,7.411,7.411,0,0,0,2.634-3.473C29.87,3.329,30.565,1.795,31.376,0a13.9,13.9,0,0,0-1.389.2c-2.373.55-4.776,1.071-7.12,1.708-4.255,1.129-7.873,3.56-11.4,6.078a45.917,45.917,0,0,0-5.528,4.834A36.237,36.237,0,0,0,2.258,17.28a8.188,8.188,0,0,0-.984,2.547C.81,21.448.434,23.1,0,24.863c1.563.087,2.489-.868,3.618-1.3,1.216-.463,2.4-1.013,3.647-1.476C8.452,21.621,9.667,21.274,10.97,20.84Z" transform="translate(58.831 243.624)" fill="#9cc159"/>
    <path id="Pfad_460" data-name="Pfad 460" d="M1.243,20.554c.058-.695.579-.9,1.158-1.071,5.673-1.708,11.346-3.358,16.99-5.123a66.364,66.364,0,0,0,7.67-2.923c2.865-1.274,5.673-2.75,8.452-4.2A34.262,34.262,0,0,0,44.6,1.017c.058-.058.058-.2.116-.376-.347-.81-1.129-.666-1.766-.55C37.105.988,31.259,1.711,25.47,2.9a20.916,20.916,0,0,0-7.728,3.068,13.55,13.55,0,0,1-2.2.926c-1.534.724-3.126,1.389-4.6,2.229-4.023,2.316-7.062,5.7-9.841,9.349-.289.347-.608.666-.926,1.013-.405.463-.029.695.434,1.042a1.66,1.66,0,0,0,.637.029M33.372,4.23c1.534-.492,3.039-.984,4.573-1.447.029.145.087.261.116.405C35.021,5.011,31.4,5.3,28.162,6.574c-3.3,1.274-6.6,2.489-9.9,3.763-3.213,1.274-6.426,2.6-9.928,4.023a4.242,4.242,0,0,1,2.229-1.679C14.789,11,19.015,9.237,23.27,7.674c3.242-1.274,6.57-2.258,10.1-3.444M7.582,14.91Z" transform="translate(57.993 211.637)" fill="#9bbf58"/>
    <path id="Pfad_461" data-name="Pfad 461" d="M1.968,16.177A18.1,18.1,0,0,0,0,19.389c.289.116.434.232.492.2,2.923-1.216,6.02-1.621,9.06-2.316a31.332,31.332,0,0,0,9.928-4.457A45.713,45.713,0,0,0,26.773,7.2c1.766-1.708,3.589-3.358,5.355-5.036A2.62,2.62,0,0,0,33.17.026a5.584,5.584,0,0,0-.984,0c-3.068.608-6.136,1.216-9.175,1.881-1.679.347-3.3.81-4.949,1.245A18.523,18.523,0,0,0,10.8,6.8C7.526,9.519,4.313,12.356,1.968,16.177Z" transform="translate(63.665 228.981)" fill="#9cc159"/>
    <path id="Pfad_462" data-name="Pfad 462" d="M6.083,51.579a3.231,3.231,0,0,0-.116-.955c-.955-1.418-.463-2.75-.405-4.081.029-.55.174-1.129.174-1.679-.087-2.808-.2-5.644-.289-8.452a.987.987,0,0,1,.695-1.129v-.9c-1.013-.232-.753-1.1-.637-1.679.637-3.792.318-7.641.232-11.433-.058-3.039-.782-6.078-.9-9.117A75.968,75.968,0,0,0,3.392,2.229C3.276,1.563,3.073.926,2.842,0A6.62,6.62,0,0,0,1.365,3.7c-.116,3.184-.145,6.368-.376,9.552-.261,3.85-.782,7.67-.955,11.52-.116,3.126.087,6.252.261,9.378.145,2.547.434,5.094.724,7.612.116,1.013.376,2,.55,3.01.376,2.287.781,4.573,1.129,6.889.029.26-.145.521-.318.984a.6.6,0,0,0,.145.637c.232.145.434.232.463.376.376,2.229.781,4.428,1.071,6.657.087.724.2,1.216,1.042,1.158a2.494,2.494,0,0,0-.087-.666c-.145-1.245-.2-2.287-.232-3.329-.029-.695.434-.81.984-.781a1.432,1.432,0,0,0-.116-.608,5.231,5.231,0,0,1,.289-4.486C5.939,51.579,6.026,51.579,6.083,51.579Z" transform="translate(89.507 244.145)" fill="#9cc159"/>
    <path id="Pfad_463" data-name="Pfad 463" d="M8.512,42.866a3.026,3.026,0,0,0,.347-.926c.029-5.876.2-11.78-.058-17.656A95.456,95.456,0,0,0,7.325,14.009,51.88,51.88,0,0,0,5.1,6.31,25.153,25.153,0,0,0,2.4.434C2.318.289,2.2.174,2.086,0,1.1.463.35.984.321,2.142.205,4.921-.026,7.728,0,10.507A78.4,78.4,0,0,0,1.247,23.213,156.81,156.81,0,0,0,7.47,46.977a4.893,4.893,0,0,0,.753,1.505A6.743,6.743,0,0,0,8.454,45.3,32.268,32.268,0,0,1,5.473,32.881C5.357,31,5.27,29.147,5.1,27.265c-.289-2.808-.637-5.644-.984-8.452-.376-3.039-.839-6.049-1.245-9.089-.261-1.881-.521-3.792-.782-5.673a1.063,1.063,0,0,1,.579.666A127.084,127.084,0,0,1,5.155,21.187c.116,1.36.261,2.721.405,4.052a58.224,58.224,0,0,1,.579,5.9A42.2,42.2,0,0,0,7.673,41.217,5.549,5.549,0,0,0,8.512,42.866Z" transform="translate(97.701 229.846)" fill="#9bbf58"/>
    <path id="Pfad_464" data-name="Pfad 464" d="M1.006,44.372a7.06,7.06,0,0,0,.926-1.679,24.8,24.8,0,0,1,.781-3.618c1.013-3.5,2.171-6.947,3.1-10.449.608-2.287.868-4.66,1.3-7a40.716,40.716,0,0,0,.753-8.973c-.087-2.344-.029-4.689,0-7,0-.55-.174-1.216.637-1.476a3.163,3.163,0,0,0-.029-.579c-.608.029-.955-.174-.984-.868C7.431,1.939,7.258,1.187,7.084,0a22.624,22.624,0,0,0-3.56,7.149,58.943,58.943,0,0,0-1.766,8.307c-.318,3.329-1.1,6.628-.81,9.986.058.55.261,1.331-.839,1.447a1.087,1.087,0,0,0,0,.955c.261.405.521.608.521.839.029,1.91.029,3.821,0,5.7a1.792,1.792,0,0,1-.318.724,1.239,1.239,0,0,0,.145.608c.261.318.492.492.492.666C.919,38.525.832,40.638.8,42.78a7.5,7.5,0,0,0,.2,1.592M6.129,6.86c-.116,1.36-.174,2.721-.347,4.052-.376,2.865-.81,5.7-1.274,8.568a39.523,39.523,0,0,0-.81,7.612c.058,1.968,0,3.936,0,5.9-.116,0-.232.029-.347.029a41.943,41.943,0,0,1-.608-5.673,63.513,63.513,0,0,1,.782-6.57c.463-3.589,1.505-7.091,1.621-10.738.058-1.795.463-3.589.695-5.384.087,0,.2.029.289.029Z" transform="translate(78.839 256.822)" fill="#9bbf58"/>
    <path id="Pfad_465" data-name="Pfad 465" d="M.9,9.754C.579,11.491.318,13.112,0,14.906a7.269,7.269,0,0,0,1.245-.289A24.551,24.551,0,0,1,3.792,13.6c2.084-.55,3.473-2.113,5.036-3.415a1.725,1.725,0,0,0,.347-1.245c.058-1.187-.029-2.4.029-3.589s.2-2.373.289-3.56c.029-.55,0-1.1,0-1.795-1.621.2-3.126.347-4.6.579a1.11,1.11,0,0,0-.753.579C2.981,3.994,1.331,6.57.9,9.754Z" transform="translate(116.951 139.743)" fill="#9cc159"/>
    <path id="Pfad_466" data-name="Pfad 466" d="M48.771.035A4.974,4.974,0,0,0,46.919.15c-5.268,1.621-10.565,3.213-15.8,4.921-2.258.753-4.457,1.766-6.657,2.692-3.936,1.679-7.873,3.358-11.751,5.152-2.837,1.3-5.615,2.779-8.423,4.168A28.5,28.5,0,0,0,0,19.659a2.493,2.493,0,0,0,.81-.087c1.823-.81,3.618-1.679,5.442-2.518,5.123-2.344,10.275-4.689,15.4-7.033,2.344-1.071,4.66-2.171,6.976-3.242,3.1-1.389,6.4-1.968,9.667-2.75a6.189,6.189,0,0,0,3.271-1.274c.289-.289.839-.318,1.274-.434C44.719,1.858,46.6,1.395,48.6.932A1.433,1.433,0,0,0,48.771.035Z" transform="translate(66.038 147.928)" fill="#abcd6d"/>
    <path id="Pfad_467" data-name="Pfad 467" d="M6.484,38.9a11.112,11.112,0,0,1-.9-1.737A40.792,40.792,0,0,1,4.052,27.092a58.227,58.227,0,0,0-.579-5.9c-.145-1.36-.261-2.721-.405-4.052A127.085,127.085,0,0,0,.579.666,1.046,1.046,0,0,0,0,0C.261,1.881.521,3.792.782,5.673c.405,3.039.868,6.049,1.245,9.089.347,2.808.695,5.615.984,8.452.2,1.852.261,3.734.376,5.615A31.337,31.337,0,0,0,6.368,41.072,8.384,8.384,0,0,0,6.484,38.9Z" transform="translate(99.729 233.957)" fill="#abcd6d"/>
    <path id="Pfad_468" data-name="Pfad 468" d="M28.6,0a42.672,42.672,0,0,0-5.673,2.229A129.079,129.079,0,0,1,7.583,8.973c-1.708.608-3.5.984-5.239,1.534-.782.232-1.563.579-2.344.868,0,.116.029.232.029.347.174.029.347.145.521.116A51.532,51.532,0,0,0,12.735,7.96c4.892-2.2,9.725-4.515,14.617-6.744A6.389,6.389,0,0,1,28.452.9,1.782,1.782,0,0,0,28.6,0Z" transform="translate(86.907 119.511)" fill="#b0d072"/>
    <path id="Pfad_469" data-name="Pfad 469" d="M.666,8.654a8.307,8.307,0,0,0,.26,1.274c.492.405.9.753,1.389,1.129A5.344,5.344,0,0,0,3.7,6.512C3.386,4.4,2.894,2.344,2.4,0c-.376.261-.868.405-.984.724a16.557,16.557,0,0,0-.753,2.4C.492,3.647.347,4.2.087,4.863A.622.622,0,0,0,0,5.152a1.367,1.367,0,0,0,.116.608c.087.116.232.116.347.145.782.984.753,1.389-.058,2.026a.7.7,0,0,0,.087.318A2.618,2.618,0,0,1,.666,8.654Z" transform="translate(123.753 151.9)" fill="#9abf57"/>
    <path id="Pfad_470" data-name="Pfad 470" d="M2.918,2.344a2.626,2.626,0,0,0-.261-.984C2.078.868,1.557.463.978,0A1.247,1.247,0,0,0,.023,1.592C.284,3.907.4,6.223.573,8.539a18.812,18.812,0,0,0,.579,3.5,16.431,16.431,0,0,0,1.823-4.66A9.312,9.312,0,0,0,2.918,2.344Z" transform="translate(119.388 167.5)" fill="#9abf57"/>
    <path id="Pfad_472" data-name="Pfad 472" d="M.087.712A2.027,2.027,0,0,0,0,1.118,15.783,15.783,0,0,0,2.142.133,1.781,1.781,0,0,0,.087.712Z" transform="translate(75.358 246.095)" fill="#9bbf5a"/>
    <path id="Pfad_473" data-name="Pfad 473" d="M.376,1.968A17.17,17.17,0,0,0,.637,0,2.011,2.011,0,0,0,0,.781,4,4,0,0,0,.087,1.795a.243.243,0,0,0,.174.116l.116.058C.347,1.939.347,1.968.376,1.968Z" transform="translate(95.619 277.633)" fill="#9bbf5a"/>
    <path id="Pfad_474" data-name="Pfad 474" d="M.029.434A2.41,2.41,0,0,0,.145,0,1.383,1.383,0,0,0,0,.347.224.224,0,0,1,.029.434Z" transform="translate(94.201 234.217)" fill="#ac9b8a"/>
    <path id="Pfad_475" data-name="Pfad 475" d="M.347,0A1,1,0,0,0,0,.2.755.755,0,0,0,.318.116.456.456,0,0,0,.347,0Z" transform="translate(80.481 244.608)" fill="#9bbf5a"/>
    <path id="Pfad_476" data-name="Pfad 476" d="M0,.116C.145.087.289.029.434,0A.92.92,0,0,0,.058.058Z" transform="translate(79.15 245.158)" fill="#9bbf5a"/>
    <path id="Pfad_477" data-name="Pfad 477" d="M.695,0A2.687,2.687,0,0,0,.058.26L0,.347A2.687,2.687,0,0,0,.637.087Z" transform="translate(78.455 245.274)" fill="#9bbf5a"/>
    <path id="Pfad_478" data-name="Pfad 478" d="M.434,0C.289.029.145.087,0,.116A.92.92,0,0,0,.376.058Z" transform="translate(78.021 245.621)" fill="#9bbf5a"/>
    <path id="Pfad_479" data-name="Pfad 479" d="M.289.007C.232-.022.116.036,0,.181.058.181.145.123.289.007Z" transform="translate(70.235 218.233)" fill="#c6b8a8"/>
    <path id="Pfad_480" data-name="Pfad 480" d="M0,.013C0-.016.029.013,0,.013Z" transform="translate(78.976 280.081)" fill="#9cc159"/>
    <path id="Pfad_481" data-name="Pfad 481" d="M.232.239C.318.239.318.094.318.007.2-.022.116.036,0,.21.029.268.087.268.232.239Z" transform="translate(123.435 156.842)" fill="#94b74a"/>
    <path id="Pfad_482" data-name="Pfad 482" d="M0,.013Z" transform="translate(86.154 131.539)" fill="#b0d072"/>
    <path id="Pfad_495" data-name="Pfad 495" d="M.007,0A1.829,1.829,0,0,0,.181.868,1.888,1.888,0,0,0,.007,0Z" transform="translate(115.236 198.355)" fill="#99bd58"/>
    <path id="Pfad_497" data-name="Pfad 497" d="M31,4.436C28.539,5.449,26.166,6.4,23.879,7.5c-2.663,1.274-5.239,2.721-7.96,4.11-1.852,1.1-3.647,2.084-5.355,3.184A58.515,58.515,0,0,0,.405,23.539,3.344,3.344,0,0,0,0,24.2a19.749,19.749,0,0,0,3.1-2.142,67.41,67.41,0,0,1,11.665-8.539c1.36-.81,2.865-1.389,4.255-2.142,3.3-1.679,6.57-3.415,9.87-5.094a10.625,10.625,0,0,1,4.631-1.563,2.186,2.186,0,0,0,.984-.318,27.031,27.031,0,0,1,8.307-2.373c2.229-.376,4.515-.405,6.744-.724a14.184,14.184,0,0,1,5.065,0c.666.116,1.534.261,1.939-.81A29.175,29.175,0,0,0,51.318.007,53.234,53.234,0,0,0,31.9,4.06,3.336,3.336,0,0,1,31,4.436Z" transform="translate(60.597 165.351)" fill="#92b74a"/>
    <path id="Pfad_498" data-name="Pfad 498" d="M29.118,1.14c-2.981.9-5.818,1.708-8.625,2.721-2.142.782-4.168,1.795-6.368,2.721-.55.289-.926.637-1.389.839-1.621.81-3.271,1.592-4.921,2.316C6.31,10.4,4.8,11.068,3.242,11.618a9.3,9.3,0,0,0-3.242,2c.868.724,1.795.405,2.808.463a1.743,1.743,0,0,1,1.216-1.563c3.734-1.679,7.439-3.473,11.2-5.065C18.785,5.945,22.4,4.5,26.079,3.282A31.6,31.6,0,0,1,36.614,1.343c3.7.058,7.381-.261,11.2-.521A27.8,27.8,0,0,0,37.425.243C34.7.59,31.983.851,29.118,1.14Z" transform="translate(59.034 193.105)" fill="#92b74a"/>
    <path id="Pfad_499" data-name="Pfad 499" d="M7.728,7.062c2.055-.318,3.936-.579,5.818-.955,3.039-.637,6.078-1.36,9.262-2.055,2.721-1.1,5.3-2.2,7.96-3.386A1.4,1.4,0,0,0,28.828.2c-1.795.839-3.589,1.708-5.442,2.373a35.579,35.579,0,0,1-5.413,1.447C12.243,5.123,6.484,6.107.753,7.149A2.085,2.085,0,0,0,0,7.641c1.418,0,2.894-.116,4.342-.261C5.413,7.323,6.484,7.178,7.728,7.062Z" transform="translate(66.82 183.246)" fill="#92b74a"/>
    <path id="Pfad_500" data-name="Pfad 500" d="M2.894,2.316c-.174-.753-.81-1.3-.608-2.316C1.592.724.9,1.592,0,2.721A6.879,6.879,0,0,0,2.894,2.316Z" transform="translate(58.31 189.816)" fill="#92b74a"/>
    <path id="Pfad_501" data-name="Pfad 501" d="M0,.81C.579.926,1.129.868,1.331,0A5.287,5.287,0,0,0,0,.81Z" transform="translate(57.21 169.584)" fill="#92b74a"/>
    <path id="Pfad_502" data-name="Pfad 502" d="M.347.01C.289-.018.174.01,0,.126.058.184.174.126.347.01Z" transform="translate(65.141 191.166)" fill="#92b74a"/>
    <path id="Pfad_503" data-name="Pfad 503" d="M.232.116C.318.087.174,0,.174,0S.029.029,0,.087C0,.145.145.145.232.116Z" transform="translate(63.375 191.582)" fill="#92b74a"/>
    <path id="Pfad_504" data-name="Pfad 504" d="M14.762.174C11.433,2.46,7.67,3.5,4.081,5.007A10.78,10.78,0,0,0,0,7.641a2.792,2.792,0,0,0,.868-.289C3.85,5.47,7.236,4.573,10.42,3.213A48.807,48.807,0,0,0,14.964.81c.232-.116.376-.376.781-.81A4.719,4.719,0,0,0,14.762.174Z" transform="translate(19.322 98.932)" fill="#479a93"/>
    <path id="Pfad_505" data-name="Pfad 505" d="M1.274,0C.955.174.608.376,0,.724.926,1.013,1.129.695,1.274.145Z" transform="translate(34.981 97.745)" fill="#479a93"/>
    <path id="Pfad_506" data-name="Pfad 506" d="M.069.405A.69.69,0,0,0,.156,0H.011A.666.666,0,0,0,.069.405Z" transform="translate(18.356 106.833)" fill="#479a93"/>
    <path id="Pfad_507" data-name="Pfad 507" d="M.34,0A.512.512,0,0,0,.022.261c-.029.087-.029.087,0,.087A.415.415,0,0,0,.311.087Z" transform="translate(36.262 97.426)" fill="#479a93"/>
    <path id="Pfad_508" data-name="Pfad 508" d="M0,.145A.508.508,0,0,0,.116,0C.087,0,.058.029,0,.087Z" transform="translate(36.602 97.282)" fill="#479a93"/>
    <path id="Pfad_509" data-name="Pfad 509" d="M.008,0Z" transform="translate(17.577 107.528)" fill="#479a93"/>
    <path id="Pfad_510" data-name="Pfad 510" d="M0,.008Z" transform="translate(52.232 39.964)" fill="#749846"/>
    <path id="Pfad_511" data-name="Pfad 511" d="M1.1.145C1.1,0,1.017,0,1.017,0H.844C.178.087.062.492.062.984.178,3.792.294,6.628.352,9.436c.029.55-.145,1.1-.174,1.679-.058,1.3-.55,2.663.405,3.936.261-2.634.376-5.3.521-8.1C.467,4.6,1.162,2.46,1.1.145Z" transform="translate(94.862 279.602)" fill="#92b74a"/>
    <path id="Pfad_512" data-name="Pfad 512" d="M6.252,17.135a32.85,32.85,0,0,0,.637-3.821c.087-2.75.058-5.47,0-8.22-.029-1.65-.2-3.3-.318-5.094C5.731,0,5.9.666,5.9,1.216c-.029,2.344-.087,4.689,0,7a40.423,40.423,0,0,1-.753,8.973c-.434,2.344-.724,4.718-1.3,7-.926,3.5-2.084,6.976-3.1,10.449A26.8,26.8,0,0,0,0,38.149a11.3,11.3,0,0,0,1.447-2.576,102.988,102.988,0,0,0,3.85-13.2C5.615,20.724,5.934,19.016,6.252,17.135Z" transform="translate(80.8 261.193)" fill="#92b74a"/>
    <path id="Pfad_513" data-name="Pfad 513" d="M.55,0A2.357,2.357,0,0,0,0,.868c1.1,1.042.868,2.46,1.071,3.7.318,1.881.492,3.792.781,5.7a5.369,5.369,0,0,0,.55,1.071,5.518,5.518,0,0,0,.753-2.981c-.839-.087-.955-.579-1.071-1.3C1.795,4.834,1.389,2.6,1.013.405,1.013.232.81.145.55,0Z" transform="translate(91.422 297.46)" fill="#92b74a"/>
    <path id="Pfad_514" data-name="Pfad 514" d="M.666,8.654C.637,8.018.492,7.468.492,6.947.521,4.8.608,2.692.637.55.637.376.405.2.145,0,0,2.981,0,6.02,0,9.146A6.4,6.4,0,0,0,.666,8.654Z" transform="translate(79.121 292.655)" fill="#92b74a"/>
    <path id="Pfad_515" data-name="Pfad 515" d="M.2,7a.877.877,0,0,0,.318-.579C.55,4.515.55,2.6.521.724.521.492.289.261,0,0,0,2.258.116,4.544.2,7Z" transform="translate(78.918 284.783)" fill="#92b74a"/>
    <path id="Pfad_516" data-name="Pfad 516" d="M.985.055C.435-.09-.028.026,0,.692A31.662,31.662,0,0,0,.233,3.9,2.219,2.219,0,0,0,.667,2.95C.783,2.052.87,1.126.985.055Z" transform="translate(94.257 300.936)" fill="#92b74a"/>
    <path id="Pfad_517" data-name="Pfad 517" d="M.836.131C.779-.014.692-.014.663.015A5.008,5.008,0,0,0,.373,4.386C.6,3.025.721,1.636.836.131Z" transform="translate(94.754 295.737)" fill="#92b74a"/>
    <path id="Pfad_518" data-name="Pfad 518" d="M6.026,30.015c0,.174.174.145.261.145.2-2.344.376-4.66.434-7a25.327,25.327,0,0,0-1.505-8.191C3.739,10.1,2.031,5.326.439.521A1,1,0,0,0,.034,0,13.186,13.186,0,0,0,.874,5.094C2.147,9.407,3.421,13.72,4.752,18.032A38.4,38.4,0,0,1,6.026,30.015Z" transform="translate(85.802 44.603)" fill="#3b948e"/>
    <path id="Pfad_519" data-name="Pfad 519" d="M.45,1.245c-.724,1.679-.637,2.113.724,3.01.405-1.389.81-2.75,1.216-4.255A3.246,3.246,0,0,0,1.4.608,10.893,10.893,0,0,1,.45,1.245Z" transform="translate(93.896 77.657)" fill="#61a99e"/>
    <path id="Pfad_520" data-name="Pfad 520" d="M0,2.4a7.127,7.127,0,0,0,1.563.463C1.592,2,2.026.984.926,0,.55.868.289,1.563,0,2.4Z" transform="translate(92.551 74.329)" fill="#61a99e"/>
    <path id="Pfad_521" data-name="Pfad 521" d="M.554,2c.289.145.463.232.724.376A3.049,3.049,0,0,0,.323,0,1.368,1.368,0,0,0,.554,2Z" transform="translate(84.645 73.75)" fill="#61a99e"/>
    <path id="Pfad_522" data-name="Pfad 522" d="M0,0A1.468,1.468,0,0,0,.463.666,1.634,1.634,0,0,0,0,0Z" transform="translate(87.486 78.902)" fill="#61a99e"/>
    <path id="Pfad_523" data-name="Pfad 523" d="M0,.232A.293.293,0,0,0,.2.116.219.219,0,0,0,.145,0,.8.8,0,0,0,0,.232Z" transform="translate(85.373 43.214)" fill="#3b948e"/>
    <path id="Pfad_524" data-name="Pfad 524" d="M1.881,13.372c1.042,5.673,2.055,11.172,3.126,16.7a10.224,10.224,0,0,0,1.679,4.168c-.058-.318-.087-.637-.145-.955-1.1-5.615-2.229-11.23-3.271-16.875-.81-4.284-1.534-8.6-2.316-12.88A16.783,16.783,0,0,0,0,0,121.7,121.7,0,0,0,1.881,13.372Z" transform="translate(106.415 220.961)" fill="#abcd6d"/>
    <path id="Pfad_525" data-name="Pfad 525" d="M0,.013C0-.016.029.013,0,.013Z" transform="translate(106.068 219.703)" fill="#abcd6d"/>
    <path id="Pfad_526" data-name="Pfad 526" d="M22.4,6.455c2.518-1.1,4.892-2.171,7.323-3.155,2.431-.955,4.921-1.795,7.381-2.721.2-.058.347-.232.434-.579a11.9,11.9,0,0,0-1.766.347C31.26,2.084,26.716,3.763,22.287,5.7,19.943,6.715,17.859,8.278,15.6,9.465a39.582,39.582,0,0,1-4.11,1.708c-3.5,1.389-7,2.721-10.507,4.11A9.374,9.374,0,0,0,0,15.89c.55.029.753.116.9.058,2.75-.984,5.442-2.055,8.22-2.952a45.948,45.948,0,0,0,9.87-4.66C20.087,7.728,21.187,7.12,22.4,6.455Z" transform="translate(65.662 172.942)" fill="#abcd6d"/>
    <path id="Pfad_527" data-name="Pfad 527" d="M0,3.979C2.692,2.792,5.413,1.49,8.191.1a1.6,1.6,0,0,0-1.1,0C4.776,1.229,2.46,2.416.174,3.6.087,3.631.058,3.776,0,3.979Z" transform="translate(99.064 179.094)" fill="#92b74a"/>
    <path id="Pfad_528" data-name="Pfad 528" d="M.376,0A.821.821,0,0,0,0,.116.534.534,0,0,0,.376,0Z" transform="translate(105.2 172.305)" fill="#abcd6d"/>
    <path id="Pfad_529" data-name="Pfad 529" d="M.174,0C.087,0,.058.058,0,.087.058.058.145.058.174,0Z" transform="translate(104.1 172.681)" fill="#abcd6d"/>
    <path id="Pfad_530" data-name="Pfad 530" d="M0,.013Z" transform="translate(64.909 189.196)" fill="#abcd6d"/>
    <path id="Pfad_531" data-name="Pfad 531" d="M4.544,4.863A8.978,8.978,0,0,0,0,5.991c.9-.058,1.795-.087,2.721-.145,1.129-.087,2.258-.2,3.386-.289,2.431-.232,4.863-.376,7.294-.724,3.242-.463,6.512-.984,9.725-1.737a45.643,45.643,0,0,0,5.9-2.229,3.192,3.192,0,0,0,.724-.55C29.7.2,29.668.116,29.61,0c-1.187.463-2.4.868-3.589,1.36A34.079,34.079,0,0,1,16.932,3.5c-1.968.2-3.936.521-5.9.753-.666.087-1.36.174-2.026.232C7.554,4.631,6.136,4.747,4.544,4.863Z" transform="translate(74.229 198.905)" fill="#abcd6d"/>
    <path id="Pfad_532" data-name="Pfad 532" d="M0,4.573C3.155,3.821,5.818,2,8.51,0A7.412,7.412,0,0,0,6.657.521c-2,1.042-3.965,2.171-5.9,3.271A3.249,3.249,0,0,0,0,4.573Z" transform="translate(97.356 202.494)" fill="#92b74a"/>
    <path id="Pfad_533" data-name="Pfad 533" d="M0,1.924C2.344,1.432,4.718.8,7.149.1,5.094-.3,3.155.622,1.129.969.724,1.027.376,1.49,0,1.924Z" transform="translate(89.801 207.227)" fill="#92b74a"/>
    <path id="Pfad_534" data-name="Pfad 534" d="M.018.016c-.058.116.029.2.174.318C.279.306.279.248.308.1.25-.013.192-.013.018.016Z" transform="translate(89.089 209.598)" fill="#92b74a"/>
    <path id="Pfad_535" data-name="Pfad 535" d="M0,0Z" transform="translate(104.708 198.789)" fill="#abcd6d"/>
    <path id="Pfad_536" data-name="Pfad 536" d="M.471,30.826a97.486,97.486,0,0,1,4.6-13.691c2.055-4.747,3.936-9.581,5.9-14.356.347-.81.695-1.621,1.187-2.779a2.893,2.893,0,0,0-1.418,1.795C8.257,7.612,5.768,13.4,3.394,19.248A48.788,48.788,0,0,0,.008,30.826a7.429,7.429,0,0,0,.058.955A10.238,10.238,0,0,0,.471,30.826Z" transform="translate(67.159 264.522)" fill="#abcd6d"/>
    <path id="Pfad_537" data-name="Pfad 537" d="M24.921,1.534c-3.415,1.158-6.744,2.142-9.986,3.358C10.68,6.484,6.455,8.249,2.229,9.9A4.353,4.353,0,0,0,0,11.578c3.5-1.418,6.715-2.75,9.928-4.023,3.3-1.3,6.6-2.489,9.9-3.763,3.242-1.274,6.86-1.534,9.9-3.386C29.7.261,29.639.145,29.61,0,28.1.521,26.571,1.013,24.921,1.534Z" transform="translate(66.328 214.361)" fill="#abcd6d"/>
    <path id="Pfad_538" data-name="Pfad 538" d="M0,.013Z" transform="translate(65.575 226.563)" fill="#abcd6d"/>
    <path id="Pfad_539" data-name="Pfad 539" d="M3.388,2.055V.029C3.3.029,3.185,0,3.1,0A42.813,42.813,0,0,0,2.4,5.384C2.317,9.031,1.246,12.533.783,16.122A63.509,63.509,0,0,0,0,22.692a42.441,42.441,0,0,0,.608,5.673c.116,0,.232-.029.347-.029,0-1.968.058-3.936,0-5.9a39.525,39.525,0,0,1,.81-7.612c.463-2.837.868-5.7,1.274-8.568C3.243,4.949,3.272,3.589,3.388,2.055Z" transform="translate(81.58 261.454)" fill="#abcd6d"/>
    <path id="Pfad_540" data-name="Pfad 540" d="M.029,1.795C.868,1.274.9.868.116,0A4.759,4.759,0,0,0,0,1.216,4.5,4.5,0,0,0,.029,1.795Z" transform="translate(124.071 157.949)" fill="#92b74a"/>
    <path id="Pfad_541" data-name="Pfad 541" d="M.126,1.3A4.254,4.254,0,0,0,.213.145C.213,0,.068,0,.01,0A4.33,4.33,0,0,0,.126,1.3Z" transform="translate(123.858 157.804)" fill="#94b74a"/>
    <path id="Pfad_542" data-name="Pfad 542" d="M.157.261C.186.2.157.116.041,0-.046.058.012.145.157.261Z" transform="translate(124.204 160.264)" fill="#92b74a"/>
  </g>
</svg>
