<svg xmlns="http://www.w3.org/2000/svg" width="945.122" height="874.9" viewBox="0 0 945.122 874.9">
  <g id="Img" transform="translate(0.022 -0.6)">
    <g id="Img-2" data-name="Img" transform="translate(0 -0.4)">
      <path id="Pfad_543" d="M16,257.7S-4.3,234.4.8,233.7c0,0,10.8-2.9,13.1-.5l2.4,2.4a4.3,4.3,0,0,1,2.3,1c15,14.3,30.2,28.5,42.9,44.9,1.5,1.9,3.3,3.7,5.2,5.8,1.3-3.3.1-5.4-1.3-7.4-4.4-6.7-8.8-13.5-11.3-21.2-4-12.2-8.2-24.4-12.1-36.6-4.8-15.1-6.7-30.7-8.7-46.4-.9-7.8-1.5-15.7-2.1-23.5-.1-1,.3-2,.7-4.2,7.2,8.9,14.3,16.6,19.8,25.2,5.6,8.8,9.4,18.8,14.2,28.6a3.33,3.33,0,0,0,.4-1.7c-.4-9.3-.7-18.7-1.4-27.9a297.89,297.89,0,0,1-.5-45.3,5.867,5.867,0,0,1,.4-2.3c.3-.3,1.3-.1,2.1-.2.1,0,.6,0,.7.3.4,1.8.4,3.3,1,4.5a202.63,202.63,0,0,1,9.5,32.3,172.882,172.882,0,0,1,4.5,30.4c.3,5.2.8,10.4,1.3,15.6a29.245,29.245,0,0,0,2.5-8.1c1.9-12.5,6.9-24.1,12.3-35.3,2-4.3,5-7.7,10.9-8.2v4.9c0,6.5-.2,12.9,0,19.4.3,9.6.6,19.3,1,28.9a15.665,15.665,0,0,0,.8,3.1c2.4-3.4,2.9-6.6,3.9-9.6,1.2-4,2.1-8.1,3.3-12.1.4-1.4.7-3.4,3.7-2.4v4.5c-.3,10.4-.6,20.9-1,31.3-.2,4.3-.9,8.6-1.4,12.9a44.439,44.439,0,0,1-.7,4.9,5.019,5.019,0,0,0-.2,1.2,3.506,3.506,0,0,1,.6-1.4c2-2,1.4-5.4,4.3-6.8,1.5,16.7-2.8,32.6-4,48.8a102.559,102.559,0,0,0,6.1-11.9c1.7-4,3.1-8.1,4.6-12.2a9.807,9.807,0,0,1,2.2,4.3c2.3,9.1,1,18.3-.5,27.3-1.3,7.6-3.2,15.1-4.9,22.6-.5,2.4-.9,4.7.8,7.2,3.2-4.7,3-10.6,6.9-15.4.7,1.5,1.4,2.4,1.4,3.3a93.819,93.819,0,0,1-.3,10.6c-.4,6.6-1.1,13-1.6,19.6,0,.2.3.3.8.8,1.4-2.9,2.9-5.8,4.3-8.7a86.917,86.917,0,0,1,4.4-8.6c1.6-2.6,1.4-6.3,5.2-8.4.6,2.1,1.4,3.9,1.5,5.6a47.134,47.134,0,0,1,0,9.2c-1.8,12.9-3.7,25.8-8.7,38-2.7,6.7-1.2,12.4,1.7,18.8a262.925,262.925,0,0,0,11.4-29.9c2.3-5.4,4.3-10.6,6.1-15.8a6.164,6.164,0,0,0-.3-3.8c-1.3-4.5-2.9-8.8-4.4-13.2-.3-1-1.2-1.9-1.8-3.1a27.131,27.131,0,0,0-.9-4.1c-2.4-7-5-13.9-7.2-21-3.4-11.4-6.7-22.8-9.3-34.3-2.2-9.3-3.4-18.9-4.9-28.4-.9-6.3-1.4-12.7-2-19.1-.5-5.7-.4-11.5-1.2-17.2-1.7-12.4-.7-24.7.3-37,.3-3.5.8-7,1.3-10.5,1.1-7.7,2.2-15.6,3.4-23.3.6-3.6.9-7.3,2.9-11.6.5,1.9.8,2.5.9,3.3,1.3,8.4,2.6,16.7,3.9,25.2,1.1,7.3,2,14.6,3,21.9.8,6.1,1.6,12,2.6,18.1,1.3,8.2,2.8,16.4,4.2,24.7,1.2,6.5,2.5,12.9,3.8,19.7.9,8.3,2.1,16.2,2.8,24.2.8,9.8,1.4,19.4,1.9,29.2.5,9.4.6,18.9,1.1,28.4.3,5.7,1.1,11.4,1.7,17.2.2,1.5.4,2.9.7,4.5a6.363,6.363,0,0,0,2.4-3.2c4.9-11.9,9.7-23.7,14.8-35.5,1.3-3.2,2-5.9.3-9.1-1.6-2.8-2.5-5.9-4-8.8-6.3-11.6-10.7-24.1-15-36.5-1.7-4.8-3-9.8-4.6-15.1-.3-1.5-.4-2.6-.7-3.7-3.4-13-6.2-26.3-6.9-39.6-.6-12.1.5-24.3.9-36.5,0-.2.1-.3.1-.5.8-7.9,1.7-15.9,2.5-24.2a16.708,16.708,0,0,1,1.3-4.5c2.9,0,3.2,2.4,4,4,2.4,5.3,4.5,10.7,6.7,15.9.6,1.3,1.6,2.3,2.4,3.9a40.1,40.1,0,0,0,.8,5c1.7,6.9,3.5,13.8,5.2,20.7.9,3.8,1.8,7.7,2.7,11.9.8,5.1,1.7,9.8,2.3,14.6,1.6,11.7,3,23.5,4.5,35.7a30.955,30.955,0,0,0,.2,4.3c2.3,13.4,4.1,26.8,3.7,40.6.1,1.2.2,2.4.4,3.5a9.254,9.254,0,0,0,3-3.8c1-2.2,2-4.4,2.9-6.6,2.8-7.2,5.4-14.4,8.2-21.5,1.5-4,.4-6.8-2.9-9.5a20.715,20.715,0,0,0-1.3-4c-5.1-11.6-10.4-23.1-13.5-35.4-1.6-6.4-3.2-12.7-4.9-19.4-1.3-7.3-2.4-14.2-3.7-21.1-2.3-12.5-2.6-25.2-2.7-37.9-.1-13.5.6-27,.9-40.5a20.483,20.483,0,0,1,.5-2.4c.8.6,1.3.8,1.4,1.1.9,2.2,1.7,4.5,2.5,6.7,5.5,14.2,10.9,28.4,13.8,43.5,2.4,12.3,5,24.5,7.9,36.6,1,4.2,1.3,8.9,4.5,12.9a35.732,35.732,0,0,0,.4,4.7c2,7.2,2.3,14.6,2.4,21.9.2,6.6-.5,13.1-.8,19.6a27.963,27.963,0,0,0,.3,4,150.062,150.062,0,0,0,7.8-19.1c.5-1.5.1-3.4-.3-5-1.5-5.4-3.4-10.7-5-16.1-1.1-3.4-2-7-2.9-10.9-1.9-11.8-3.8-23.1-4-34.8-.1-4.6-.6-9.3-.9-13.9a94.542,94.542,0,0,1-.8-10.5c.3-6.4,1-12.8,1.8-19.1,1.3-10.5,2.6-21,4.1-31.4,1.4-10,3-19.9,4.6-29.9a47.678,47.678,0,0,1,1.3-5.1c.3,0,.7.1,1,.1a33.92,33.92,0,0,1,1.5,4.5c1.8,8.2,3,16.4,5.3,24.4,3.1,10.8,3.8,21.9,4.1,32.8.3,10.8,1.3,21.5,2.3,32.1a90.486,90.486,0,0,0,1.9,9.3c.6,5.6,1.2,10.8,1.8,16.3-1.1,9.6-2.1,18.8-3.2,27.9-.2,1.6-.8,3.3.3,5.3,2.1-2.9,4-5.1,5.6-7.7a7.681,7.681,0,0,0,1-4.5c-.8-7.2-1.8-14.2-2.7-21.8-.6-5.6-1.3-10.9-1.9-16.5-.2-2.2-.4-4-.5-5.6-.2-2.1-.2-4.1-.2-6.2.1-2.9.5-5.7.7-8.6.2-2.1-.2-4.2.2-6.2a195.478,195.478,0,0,1,9-35.4c1.9-5.6,3.7-11.3,5.4-16.9,1.6-5.4,3.1-10.8,4.7-16.2a20.161,20.161,0,0,1,1.8-3.2c.2,2.3.3,3.4.3,4.5.3,10.6.9,21.2.9,31.8,0,12.5,2.9,24.5,4.1,36.8.1,1.1.8,2.1,1.7,4,.8-2.6,1.3-4.1,1.9-5.6,5.2-13.6,10.4-27.3,15.8-40.9,4.1-10.3,8.8-20.3,15.4-29.4,7.7-10.5,15.1-21.2,26.2-28.4A30.71,30.71,0,0,1,320,1c-.5,1.3-1.1,2.6-1.7,3.8-3.9,7.2-8.2,14.1-10.8,22-2.2,6.9-5.1,13.5-7.6,20.3L289.1,78c-2.4,7.2-4.8,14.3-7.2,21.5-1.7,4.9-3.4,9.7-5.3,14.8-3.9,6.9-7.5,13.6-11,20.3-.8,1.5-1.5,3.1-2.4,4.6a3.552,3.552,0,0,0-.9.4,9,9,0,0,1,1.6-.3c16.6-8.3,34.2-12.2,52.4-18.2a50.864,50.864,0,0,1-2.2,4.9c-1.7,3.1-3.5,6.1-5.6,9.3a51.85,51.85,0,0,0-3.1,5c-7.2,13.3-14.1,26.7-24.1,38.2-.1.2.1.6.2,1.1,9.5.3,17.9-4.5,27.1-6.1a9,9,0,0,1-2,3.4,63.618,63.618,0,0,0-10.9,15.8c-2.1,4.3-4.5,8.6-6.6,12.9-1,2-1.8,4.1-2.9,6.4-4.2,5.5-8.2,10.7-12.5,16.2a36.646,36.646,0,0,0,13.4-2.9c6.9-.8,13.4-1.9,19.9-2.4,5.8-.4,11.7-.1,18-.1a14.621,14.621,0,0,1-1.6,1.9c-4.8,4-9.7,7.9-14.4,12-5.3,4.6-10.4,9.6-15.8,14.6-5.8,5.6-11.3,10.9-16.7,16.4a23.693,23.693,0,0,0-2.1,3.3l-.9.6a23.8,23.8,0,0,0-4,3.1,37.143,37.143,0,0,1-21.6,11.8c-7.6,1.2-15.3,1.3-23,1.6-9.7.3-19.2-.9-28.1-5.1-2.1-1-3.7-.7-4.6,1.6-1.3,3.1-2.8,6.1-4.1,9.3-2.3,5.6-4.5,11.2-7.2,17.8a41.078,41.078,0,0,0,4.4-1.8c4.9-2.4,9.8-5,14.6-7.3a97.582,97.582,0,0,1,56.5-9.4c4,.5,7.9,1.2,11.9,1.7,5.6.7,11.1,1.3,17,2,7.7.4,15.1.8,22.5,1a17.735,17.735,0,0,0,4-.8c1.9-.4,3.3-.7,5.1-1,2.8.1,5.2.1,7.9.2a35.831,35.831,0,0,1-3.1,4.5c-1.4.7-2.4,1.3-3.8,2-.4.1-.6.1-1.1.2-3.7-.3-5.9,2.3-8.6,3.5-7,3.2-13.9,6.7-20.7,10.3-12.6,6.4-25.1,13.2-38.4,18.1-11.2,4.1-22.9,5.1-34.6,5.6-14.1.6-27.9-.8-41.1-6.2a2.854,2.854,0,0,0-1.3,0c-7.4,14.5-10.8,30.1-15,46.5,5.3-2.2,9.8-4,14.4-5.8,17.8-7.2,35.3-14.6,53.3-21.4,10.1-3.8,20.9-4.8,31.6-6.2a463.5,463.5,0,0,1,48.5-3.7c3.2-.1,6.4-.7,9.9-1a14.676,14.676,0,0,1,8.8-.3c-3.4,2.2-6.3,4.1-9.6,6.1a116.488,116.488,0,0,0-11,7.3c-5.1,4.1-9.9,8.6-15.1,12.8-10.4,8.7-21,17-32.6,24-11.4,6.7-22.9,13-35.3,17.7-4.6,1.7-9.3,3.4-14.3,5.1-4.5.8-8.6,1.4-12.7,2.1a54.794,54.794,0,0,1-32.4-4.5c-2.9-1.3-6.1-2.3-9.3-3.5-2.8,16.2-5,32.1-9.8,47.5,6.1-8.2,14.5-13.5,22.4-18.9,8.5-5.9,18.4-9.7,27.9-14.1,4.9-2.4,10.1-4,15.6-6.1,3.6-1,6.7-2.2,10-2.9,13.5-2.9,26.9-5.8,40.5-8.4,11.5-2.2,23.1-4,34.6-6.1,5.3-1,10.6-2.5,16.2-3.8,3.7-.8,7.1-1.6,10.8-2.5,3-.8,5.7-1.4,8.3-2.2l-.1.3a21.171,21.171,0,0,1-9.7,11.9c-4.1,2.4-8.2,5-12.5,7.1-6.6,3.2-13.2,6.5-18.6,11.7-3.7,3.4-7.6,6.6-11.6,9.7-5,4-9.6,8-14.6,11.6-11,7.9-23.1,13.9-35.5,19.4-3.6,1.6-7.1,3.6-10.9,5.6a18.462,18.462,0,0,0-2.3.4,466.876,466.876,0,0,1-46.6,11.7c-4,.8-8.2,1.2-11.8,1.8-2.8,9.3-5.4,18.1-8,26.8a20.867,20.867,0,0,0-.4,4.3c5.1-2.7,10.6-2.4,13.5-6.2,1.9.3,3.4.9,4.7.7,4-.8,7.8-1.8,12.1-2.7,9.6-2.8,19.2-1.9,28.5-2.5,5.4-.4,10.9.3,16.3.8a210.533,210.533,0,0,0,29.7,1.8c1.1.1,2.2.2,3.3.4-1.3,1-1.9,1.4-2.5,1.9-3.9,3.5-8.1,6.9-11.6,10.8a184.96,184.96,0,0,1-24.5,23.1c-3,2.3-6,4.7-9.3,7.2-6.6,2.8-13,5.6-19.4,8.2a57.718,57.718,0,0,1-19.6,4.5c-5.3.3-10.5.9-16.2,1.4-2.4,6.5-3.8,13.2-5.4,20.2,5.7.2,10.8.4,15.8.5,7.9.1,15.8-.1,23.6.3,10.8.4,21.5,1.4,32.2,1.6,9.8.2,19.6-.6,29.4-.9a29.3,29.3,0,0,0,2.9-.5c3.9-.7,7.7-1.3,12.4-2.2a38.394,38.394,0,0,1-2.2,3.9c-3.8,4.6-7.4,9.3-11.5,13.6a102.75,102.75,0,0,1-28.8,20.9c-4.2,2-8.4,4.1-12.5,6.4-1.3.8-2.9,2-3.1,3.3-1.3,6.6-2.3,13.2-3.4,19.8,8.4,2.8,23.4,4.9,29.3,4,.3-1.2.8-2.5,1.3-3.9,2.9-8.8,5.6-17.8,8.8-26.5,2.9-7.7,6.1-15.2,11.1-21.9,1.3-1.7,2.3-3.5,4.7-3.6,3.1,19.3-1.6,37.6-6.4,56.2,3.4.2,6.1.3,10.1.5-2.9,2.6-5,4.5-7.2,6.4-4.3,3.8-9.4,6.7-13,11.9-9.8.4-19.2.8-28.9,1.2a2.384,2.384,0,0,1-1.1-.6c-1.1-6.1-1.3-6.4-7.1-6.7a84.193,84.193,0,0,0-8.7.1c-10.4.6-20.8,1.3-31.2,1.8a132.133,132.133,0,0,0-29.3,5c-5.5,1.4-10.2,3.8-13.5,8.8-.8.3-1.2.6-2.1.9-3.7.9-7,1.9-10.5,2.9a17.236,17.236,0,0,0-2.1.7,34.135,34.135,0,0,1-6.4,1c.7-7.9,4.4-14.3,9.3-19.9A59.033,59.033,0,0,1,134,651.3c1.5-.5,3.4-.9,4.1-2.1,1.9-3,3.8-6.2,4.4-9.7-5.3-1.1-10.4-2.1-15.3-3.3-2.2-.5-3.8-.2-4.7,2-.3.8-.8,1.4-1.1,2.2-6.9,13.5-14.5,26.5-24.8,37.8a59.865,59.865,0,0,1-5.1,5c-1.4,1.3-2.9,2.6-3.1,4.9a34.9,34.9,0,0,1-7.2.5c-2.6-9-3.4-17.9-3.9-26.8-.6-11.5-.7-23.1-1-34.6,0-.8-.3-1.5-.3-2.5a69.146,69.146,0,0,1-10.1-1.9,101.594,101.594,0,0,1,.8-12.3c3.3.5,6.1,2.1,9.8.1-.3-2.1.2-4.9-1-6.6-2.7-3.9-6.2-7.2-9.6-11A154.2,154.2,0,0,1,47,553.8c-2.9-8.8-6.1-17.6-9-26.4a8.784,8.784,0,0,1-.1-2.8s-.1.1.3.1c3.1,1.9,5.9,3.8,8.6,5.7,5.1,3.5,10.2,7.1,15.3,10.9a.661.661,0,0,0,.6.1.9.9,0,0,1-.6-.6,14.884,14.884,0,0,0-.9-3,140.782,140.782,0,0,1-12.1-34.4,52.252,52.252,0,0,1-.7-6.8,46.948,46.948,0,0,1,4.5,3.7c4.4,4,8.7,8.1,13.1,12.4,2.9,5.8,5.7,11.2,8.3,16.7s4.3,11.4,7.3,16.9c1.3-7.3,2.4-14.1,4-20.9a15.6,15.6,0,0,0-1.2-11.2c-4.3-8.5-8.3-17.1-12.5-25.6-1.9-3.7-3.8-7.4-5.8-11.4-.8-1.8-1.6-3.2-2.3-4.6-8.8-19.1-14.8-39-20-59.3-3.5-13.4-4.9-27.2-6.2-41a456.048,456.048,0,0,1-1.5-64s-.1.1.3.2c2.8,4.6,5,9.3,7.7,13.6a277.28,277.28,0,0,1,19,36.2c.7,1.5,1.5,2.9,2.3,4.5.2-.1.5-.2.7-.3.2-5.6.3-11.1.7-16.8,2.4-2.6,4.9-4.8,6.4-7.5,7.6-13.3,14.8-26.7,22.1-40.1a4.661,4.661,0,0,0-.3-5.5,19.1,19.1,0,0,0-2.4,3.2C87,306,81.3,316,73.8,324.8c-2.5,2.9-5,5.8-7.9,8.6C51.4,322,40,308.2,30.6,292.7c-5.4-9-9.3-18.7-13-28.4-.6-2.3-1.8-3.5-2.7-5m61.8,41.5c.1,0,.2-.1.5-.2-.1,0-.1.1-.5.2M92.7,407c-.1,0-.2.1-.5.2.2-.1.3-.2.5-.2M92,369.6v.9a2.851,2.851,0,0,1,.8-1.4,5.73,5.73,0,0,0,1.1-1.1,26.4,26.4,0,0,1,1.8-3.8,11.981,11.981,0,0,0,1.1-1.2c3.6-6.6,7.7-13,10.8-19.9,5.7-12.7,10.8-25.7,16.1-38.6.9-2.3,1.7-4.6,2.5-6.9a4.179,4.179,0,0,0-1-.4c-.6,1.2-1.3,2.4-1.9,3.6-3.2,7.8-6.2,15.8-9.7,23.6-5,11.3-10.5,22.4-15.7,33.6-.8,1.7-1.2,3.6-2.2,5.6a5.73,5.73,0,0,0-1.1,1.1,26.4,26.4,0,0,1-1.8,3.8,4.441,4.441,0,0,1-.8,1.1m9.5,73.8a4.532,4.532,0,0,1,1.1-1.9,14.648,14.648,0,0,0,1.7-2.4c3-6.6,6.1-13.1,8.9-19.8,4.4-10.2,8.8-20.4,13-30.5,3.4-8,6.6-16,9.8-24.1.7-1.7,1.2-3.5,1.8-5.2a3.582,3.582,0,0,0-1.1-.4c-.6,1.2-1.3,2.4-1.9,3.6-2.4,5.8-4.5,11.7-7,17.4-4,9.4-8.2,18.8-12.2,28.3-4.2,9.8-8.4,19.4-12.6,29.2-.6,1.3-.8,2.8-1.6,4.5a10.837,10.837,0,0,1-.8,1.9v.9l.9-1.5m10.8-163.7a3.4,3.4,0,0,0,.1,1,2.751,2.751,0,0,1,.8-1.5,6.632,6.632,0,0,1,.9-1.9c.1-.6.1-1.1.2-1.7-.2,0-.3-.1-.5-.1-.4.9-.8,1.8-1.1,2.7a2.146,2.146,0,0,1-.4,1.5m-33,17.8a5.076,5.076,0,0,1,.9-1.8c.3-.2.4-.4,1.1-1a39.475,39.475,0,0,1,2.9-3.9,12.438,12.438,0,0,1,1.9-3.6A20,20,0,0,1,88,285a51.479,51.479,0,0,0,8.5-15.6,3.022,3.022,0,0,0-1.9,1.4c-2.2,3.7-4.4,7.5-6.4,11.3-.5.9-.6,2.1-1.5,3.3a10.038,10.038,0,0,1-1.9,2.2,9.81,9.81,0,0,1-2,3.6c-.8,1.4-1.7,2.7-2.6,4a5.241,5.241,0,0,0-1,1.1,5.306,5.306,0,0,1-.8,1.7,2.058,2.058,0,0,0,.9-.5m38.6-50.3a8.331,8.331,0,0,0,.4-1.5c-.3,0-.4-.1-.7-.1a4.645,4.645,0,0,1-.6,2.3v.9c.3-.6.6-1.1.9-1.6M299.8,405.1c.5-.1.9-.2,1.4-.3-.1-.3-.2-.4-.3-.7a8.488,8.488,0,0,1-2.2.9c-.3.1-.5.3-.8.3.1.1.2.3.3.3a14.236,14.236,0,0,0,1.6-.5M109.3,245.9a9.989,9.989,0,0,1-2,2.9c-1.9,2.9-3.7,5.9-5.4,8.9-3.5,6.2-3.8,7.1-3.5,10.6,3.4-6.6,6.5-12.5,9.5-18.4a3.63,3.63,0,0,1,.7-1.7,17.481,17.481,0,0,1,1.8-2.9v-.9a9.733,9.733,0,0,1-1.1,1.5m-4.7,300.2a13.064,13.064,0,0,0,.8-2.1,4.118,4.118,0,0,0-.8-.3c-.3.9-.6,1.8-1,2.7.3-.1.7-.2,1-.3m-5.7,7.4c0,.4.1.8.1,1.2a16.385,16.385,0,0,1,1.9-1.9c1.1-1.2,2-2.4.9-4.5-.8,1.5-1.8,3.1-2.9,5.2M267.6,157.8c-1.3.8-2.6,1.8-4,2.6.3.3.4.6.7.9,1.9-.5,3.7-.9,4.7-3.5,1.5-.1,2.7-.5,2-2.9a19.865,19.865,0,0,1-3.4,2.9m19.8-15.5c3.6-2.3,7.2-4.5,11.1-6.9a8.152,8.152,0,0,0-1,.1,23.762,23.762,0,0,0-11.5,6.8c-.7.6-1.3,1.2-2.5,2.3,2.7.2,3-1.1,3.9-2.3M97.8,662c2.4-4,4.8-8.2,7.7-12.5,1.8-1.7,3.4-3.5,3.4-6.1-2,1.7-4,3.4-4.6,6.5-3.3,3.6-6.2,7.5-7.4,12.7v.9a2.747,2.747,0,0,1,.9-1.5M117,363a67.234,67.234,0,0,0-7.7,15.4c3-2.8,7.5-11.7,8.8-16.1,1.9-2.4,3.4-4.8,3.4-8-1.9,2.5-3.9,4.9-4.5,8.7M95.9,402.9A102.43,102.43,0,0,0,108,380.3c-.9.1-1.1.7-1.4,1.3-2.4,4-4.8,8-7,12.1-1.7,3-2.9,6.3-4.9,9.6l-.9.9c.2.2.4.3.6.5a8.965,8.965,0,0,1,1.5-1.8m-25.8,144c-.1-.1-.2-.1-.3-.2.2.2.3.3.3,1.1a18.034,18.034,0,0,0,.5,1.9c4.1,6.7,7.7,13.6,8.6,21.7,0,.3.5.7,1,1.3-.1-2.5-.8-4.8-.2-6.8,1.3-4.6,0-8-3.6-11-1.3-1.1-2.1-2.8-3.2-4.2-.9-1.2-2-2.3-3.1-3.8m25-5.5a26.038,26.038,0,0,0,3-3.6c4.6-7.7,9.1-15.5,13.6-23.3,6.6-11.6,10.9-24.2,16.2-36.5.2-.4-.1-1-.2-1.5a58.628,58.628,0,0,0-6.3,12.5,200.932,200.932,0,0,1-17,34.5c-3.5,5.9-6.7,11.9-10.7,18.3-.9.8-2.2,1.5-1.8,3.3,2.5-.4,2.3-2.1,3.2-3.7m6.6,36.5a13.648,13.648,0,0,0,1.7-1.7c5-8.2,10.2-16.3,14.9-24.7,3.4-6.1,6.2-12.7,9.1-19.1,2.9-6.6,5.7-13.3,8.4-19.9,4-10.1,8-20.3,11.9-30.5,1.2-3,2.4-6.1,3.7-9.1-3.2,2.4-4.5,5.8-5.9,9.2-6,15.1-11.7,30.2-18,45.1-6.2,14.6-12.9,29-21.8,42.3-1.8,2.7-4.8,5-5.4,8.8C95,583.7,90,592.9,89.7,598.2c2.4-4.4,4.6-8.2,6.8-12.1,1.7-2.6,3.2-5.3,5.2-8.2m10.4-49.6a54.915,54.915,0,0,0-5.8,13.4,65.514,65.514,0,0,0,7.8-14.2c8.2-15.5,18.1-30.1,26.1-46.5-2.3-.6-3.9-1-5.6-1.5-2.8,5.8-5.6,11.3-8.1,16.7-4.6,10.6-9.1,21.2-14.4,32.1M85.8,633.1a16.587,16.587,0,0,0-1.2,3.1c-1.7,7.1,1.1,13.7,1.8,20.7a12.135,12.135,0,0,0,2.8-3.9c4.1-8.2,8.2-16.3,12.3-24.6,3.8-7.7,3.4-8.7-4.6-11.7-.2-.1-.3.1-1.3.3-3,4.9-6.3,10.2-9.8,16.1M253.4,187.8c1.4-.8,2.9-1.6,4.4-2.4-4.5-.5-8.8-.3-12.2-3.3-3.2-2.8-6.2-5.7-9.6-8.8-6,9.7-9,20.2-12.3,31,6.1-3.7,11.7-7.1,17.4-10.4,3.9-2.1,7.9-3.8,12.3-6.1m-36.9,43.3c-1.4-1.1-2.5-1.2-3.2.8-2.5,7.4-5.2,14.8-7.7,22.2-.4,1.3-.7,2.7-1.3,5.1,4.5-2.6,8-4.7,11.5-6.7,3.7-2.2,7.4-4.4,11.3-6.5,3.5-1.9,7.2-3.5,10.8-5.3-3.2-.9-6.1-.9-8.8-1.4-5.1-1-8.7-4.2-12.6-8.2M122.3,419.2c-2.9,4.9-2.8,9.8-1.4,15.2,1,4,1.3,8.2,1.9,12.5.6-.3.8-.3.8-.4,3.6-10.4,7.2-20.9,10.7-31.4a3.055,3.055,0,0,0,.2-1.9c-1.4-3.3-2.9-6.5-5-10.9-2.6,6.2-4.8,11.2-7.2,16.9m54.3,217.7c-3.5.4-7,.8-10.5,1.3a2.61,2.61,0,0,0-2,1c-1.3,1.9-2.4,4-3.8,6.1,10.1.6,19.6,1.2,29.4,1.8,1.3-4.9,2.5-9.8,3.8-14.6-5.6,1.4-10.8,2.8-16.9,4.4M139.7,200c-.3,34.5,4.7,68.2,16,100.8a6.2,6.2,0,0,0,.2-3.3c-2.3-8.7-4.9-17.3-7-26a172.04,172.04,0,0,1-3.3-17.4c-.7-4.1-.8-8.3-1.3-12.5-.8-6.6-2.1-13.3-2.5-19.9-.7-10.3-.7-20.5-1.1-30.8-.3-5.9-.6-11.9-1-17.8-.3-3.4-.8-6.9-1.3-10.4a10.119,10.119,0,0,0-.5,4.2c.3,6.7.6,13.5,1,20.2.2,4,.5,7.9.8,12.9m36.7,250.8c-1.7.9-3.9,1.2-5.5,3.9a46.4,46.4,0,0,0,5.3-1.6c22.2-8.9,44.4-17.8,66.6-26.9a375.841,375.841,0,0,1,38.6-13.6c4.9-1.4,9.5-3.5,14.3-5.4-.1-.3-.2-.7-.3-1a22.074,22.074,0,0,0-3.5.8c-4.4,1.5-8.8,3.4-13.2,4.6-16.5,4.5-32.1,11.3-47.9,17.8-17.9,7.1-35.8,14-54.4,21.4M60.1,400.3c-6.3-16.1-9.1-33-11.6-50-.8,9.3,1.3,18.2,3,27.1,3,15.4,9.5,29.6,14.9,44.3,2.9,7.7,6,15.3,8.4,23.1,3.8,11.9,7.2,24,10.8,35.9a18.475,18.475,0,0,0,1.3,2.9c-6.1-28.5-16-55.7-26.8-83.3m53.7,186.2-4.3,7.2c3-1.1,4.9-1.9,6.9-2.5a9.225,9.225,0,0,0,6.1-5.6c1.5-3.9,3.4-7.6,5.1-11.4,1.9-4.4,3.7-8.8,5.7-13.5-2.3-.6-3.9-1-5.5-1.4-4.5,8.9-9.1,17.8-14,27.2M237.7,374c3.8-1.3,7.7-2.4,11.4-3.8,12.5-4.7,24.8-9.6,37.2-14.5,1.5-.6,2.9-1.3,4.4-2l-.5-1c-20.1,5.6-38.6,15.4-58.5,21.7s-39.6,12.5-60.1,16.7a4.5,4.5,0,0,0,2.8.4c8.9-1.9,17.9-3.4,26.7-5.9,12.1-3.3,24-7.5,36.6-11.6M107.1,479.2c-3.6,7.8-6.6,15.7-4.4,25.6,2.6-5,4.8-9.3,7-13.5a39.655,39.655,0,0,0,4.4-12.5c.6-4-.1-6.6-2.8-10-1.4,3.6-2.7,6.7-4.2,10.4m108.8-368c.4,8,.8,16,1.2,24.1.4,9.4.6,18.9,1,28.4.2,3.8.9,7.5,1.3,11.3a5.385,5.385,0,0,0,.5-2.8c-.3-5.5-.8-10.9-.9-16.3-.4-12.4-.6-24.7-1.1-37.1-.2-5-.7-9.9-1.1-14.9-.5-5.9-1.2-11.8-1.7-17.7a6.154,6.154,0,0,1,.2-1.9c.6-5.4,1.2-10.8,1.7-16.2a26.415,26.415,0,0,0-.2-2.9c-3.9,14.9-2.8,30-.9,46M94.2,390.5v-7.4c-5.7,5.8-9.8,12.1-17.1,15.1,1.2,3.9,2.4,7.6,3.8,11.9,6.1-5.6,9.4-12.4,13.3-19.6m123.9-75.7c2.9-.3,5.7-.4,8.6-.7,6.2-.6,12.5-1.2,18.6-1.8,4.3-.4,8.6-.8,12.9-1.3,12-1.8,24-3.6,36-5.5l12.6-2c-.1-.3-.1-.7-.2-1.1-3.3.3-6.5.8-9.8,1.1-6.6.8-13.5.8-20,2.3-16.7,3.8-33.6,4.8-50.4,6.3a126.444,126.444,0,0,0-19.4,3.1,15.949,15.949,0,0,0-2.7,1.2c.1.2.1.3.2.5,4.3-.6,8.5-1.2,13.6-2.1M128.6,612.9c11.4-25.2,20.3-52.7,19.2-59.7-8.8,31-19,61.3-37.4,88.4,8.2-8.1,12.4-18.5,18.2-28.7m58.5-465.3c1.9,12.8,4,25.6,5.6,38.4a118.5,118.5,0,0,0,6,26.2,9.909,9.909,0,0,0,2.7,4.5,18.107,18.107,0,0,0-1.2-5.6,121.7,121.7,0,0,1-6.3-30.5c-.5-6.1-1.3-12.1-2.1-18.1-1.4-9.6-3-19.3-4.6-28.9-.6-3.5-1.3-7.1-2.1-10.6a43.438,43.438,0,0,0,.3,11.4c.4,4.1,1.1,8.2,1.7,13.2m-22.2,23.1c.3,5.5.6,10.9,1.1,16.3.8,8.4,1.8,16.8,2.8,25.2.8,6.1,1.5,12,2.4,18.1,1.7,10.9,5.6,21,9.2,31.4a15.719,15.719,0,0,0,1.9,2.6,10.4,10.4,0,0,0-.3-3.5c-1.2-3.5-2.5-7-3.7-10.4-4.9-14-6.8-28.6-8.5-43.3-1.2-10.7-1.9-21.4-3.1-32-.2-1.7.1-3.9-1.8-4.4m-86,49.4c-1.1-15.4-1.7-30.8-5.5-45.8.4,7,1.1,14,1.8,21,.6,6.6,1.6,13,1.7,19.6.3,15,.1,30,.1,44.8,0,1.6-.6,3.4,1.9,4.5V220.1m13,202.4c-4.1,3.6-6.5,7.7-3.4,13.3.9,1.7.6,4,2.4,5.5.8-1.9,1.3-3.5,1.9-5.1,2.1-4.9,4.2-9.7,6.4-14.6a8.869,8.869,0,0,0,.4-7.3c-2.5,2.7-4.9,5.2-7.7,8.2m84.9,107.1c-5.3,1.3-10.6,2.6-16,3.9a3.092,3.092,0,0,0,2.7,1,360.6,360.6,0,0,0,45.6-13.3c10.1-3.6,20.2-7.2,30.3-10.9.7-.3,1.3-.8,1.9-1.1a5.792,5.792,0,0,0-3.9-.2c-7.6,2.6-15.3,4.9-22.6,8-12,5.3-24.7,8.7-38,12.6m110.6-477c-7.7,19.4-15.1,39.1-19.6,59.7,4.8-12.7,8.9-25.7,13.5-38.5,4.5-12.6,9.4-25.2,14-37.8-.4-.2-.8-.3-1.3-.5-2.1,5.4-4.2,10.8-6.6,17.1M244.2,106c.3-9.3.7-18.6,1-27.9,0-.8.3-1.6.3-2.4.3-3.5.5-7.1.7-10.6-3.3,8.1-6.3,78.9-4,87.4v-6.3a82.274,82.274,0,0,1,.2-11.1,201.265,201.265,0,0,0,1.8-29.1M63.3,243.3c-3.4-11.9-6.7-23.8-10.2-35.6-2.3-7.7-4.8-15.3-7.3-22.9a16.333,16.333,0,0,0-1.9-3.4c7.3,24.3,14.1,48.7,20.3,73l1-.3c-.4-3.2-1.1-6.6-1.9-10.8m221.8-53.9c1.6-.8,3.1-1.6,4.7-2.4,2.2-1.1,2.2-1.1,3.8-3.4-1.6.6-2.8,1-3.9,1.5-8.9,4-16.4,10-24.3,15.5-8,5.6-16.1,11.3-25.3,14.6-1.8.7-3.4,1.5-5,2.3a3.018,3.018,0,0,0,2.7.7c5.2-2.4,10.7-4.5,15.6-7.6,10.5-6.6,20.7-13.9,31.7-21.2m-105.3,414c-.1.2-.2.3-.2.4s.2.3.2.3c1.1.1,2.2.2,3.4.2,7.5-.9,14.9-2.1,22.3-2.8,11.1-1,21.7-4,32.2-7.2,2.9-.9,5.8-2.3,9-3.6-.8-.5-1-.8-1.3-.8a22.381,22.381,0,0,0-3.7,1,182.011,182.011,0,0,1-52.1,10.4,81.3,81.3,0,0,0-9.8,2.1M92.5,324.5c-2.2,5.2-6.1,9.5-7.7,15.8,5.6-5.4,26.7-52.3,26-58.1-6.1,14.4-12,28-18.3,42.3M74.4,372.4c-4.8,4.2-.8,8.2.4,12.5,3.4-7.7,7-15.6,10.4-23.3a2.506,2.506,0,0,0-.7-.4c-3.1,3.5-6.3,7.1-10.1,11.2M98.9,476.3c.3,1.3.6,2.4.8,3.7,3.3-7.9,7.6-15.1,8.6-23.3-2.7-.6-3.1,1-3.7,2.2-1.6,3.1-2.9,6.5-4.8,9.4a8.567,8.567,0,0,0-.9,8m-4,82.7-6,8.7c-2.2,3.1-2.6,7.2-1,9.8,3.4-6.9,6.8-13.9,10.3-20.8l-.8-.5c-.7.7-1.4,1.5-2.5,2.8M79.7,351.3c3.9-5.9,4.1-6.6,3.9-10-2.7,4.5-5,8.7-7.4,12.8a5.547,5.547,0,0,1,.8.6c.8-1.1,1.6-2,2.7-3.4M258.3,164.7c1.3-.6,2.7-1.2,4-1.8-.1-.3-.3-.6-.4-.9-5.2,1.7-10.3,3.4-15.7,5.1,4.1.8,7.8-.6,12.1-2.4M124.2,348.4c-.5,1.3-1.9,2.4-.8,4.9,2.1-3.8,3.9-7,5.6-10.1-.3-.2-.7-.4-1-.6-1.1,1.7-2.3,3.5-3.8,5.8M129.6,470c-.5,1.3-.9,2.5-1.4,3.8,3.2-2.7,3.2-2.7,3.3-6.6a15.4,15.4,0,0,0-1.9,2.8m7.4-15.9c.3-1.2.5-2.4.8-3.5-1.7,1.9-3,4-2,6.7a17.55,17.55,0,0,0,1.2-3.2M281.4,146.9c-2.7-.4-3.4,1.3-4,3.2a6.034,6.034,0,0,0,.8.8,20.82,20.82,0,0,0,3.2-4M163,161.8l1.3,4.5c.3-.1.5-.1.8-.2-.4-2.8-.9-5.6-1.3-8.4a2.2,2.2,0,0,0-.8.1v4m68,56.9c-.8.4-1.6.8-2.4,1.3a2.994,2.994,0,0,1,.4.8c1.2-.5,2.4-1,3.4-1.5a1.678,1.678,0,0,0-1.4-.6M132.3,463.9c.2.5.4,1,.6,1.4.3-.6.7-1.3,1-1.9a2.2,2.2,0,0,0-1.6.5M265.9,115.4c-.1.6-.1,1.3-.2,2.5,1.2-1.3,2.7-2,.2-2.5M130.6,339.2c-.3.4-.7.8-1,1.2.2.2.4.3.6.5a3.287,3.287,0,0,0,.4-1.7m71.2-21.5a5.019,5.019,0,0,0-1.2-.2,1.721,1.721,0,0,0,1.2.2M184.1,118.1c-.3.1-.4.1-.7.2a6.89,6.89,0,0,0,.3.8,1.777,1.777,0,0,0,.4-1M68.1,544.7l.1.3c0-.1.1-.3-.1-.3M246.8,61.2h0M141.3,438.6h0m-.8,3.1-.3.3s.1,0,.3-.3M280.2,179.5h0M139.1,444.9l.3-.3c-.1,0-.2,0-.3.3m-1,2.6a1.38,1.38,0,0,0,.3.4c0-.2,0-.3-.3-.4M42.4,179.1l.3-.3c-.1,0-.1,0-.3.3M88.2,486.5h0M244,508.2a1.38,1.38,0,0,1,.3-.4c-.2.1-.3.2-.3.4M134.4,459.9c-.1.2-.1.4-.2.6.2-.2.4-.3.2-.6M295.9,33.4h0m1.9-3.7h0M300.6,134h0M152.9,468.4h0M134.4,341.7h0M293,352.4h0M75.4,356.3h0m63,1h0M91,409.5h0M265,119.6h0M89.9,547.7h0m36.8-252.2h0m25.1,174.9h0m112.1-349Z" fill="#9abe57"/>
      <path id="Pfad_545" d="M563.3,584.1c-7.2,6.8-14.6,13.1-21.4,19.9-15.7,15.5-31.2,31.1-46.7,46.8-11.9,12.1-23.9,24.3-35.8,36.5-7.4,7.7-15,15.1-23.9,21a34.7,34.7,0,0,0-4.6,4,84.147,84.147,0,0,0-6,5.9c-6.4,8.1-15,12.1-25,14.2-9.9,2.6-19.5,5.2-29.2,7.3-14.4,3-28.9,5.7-43.3,8.6a105.8,105.8,0,0,1-11.3,1.5c-.7-1.9.1-3.6-2-4.5-2.6,2.5-5.4,4.9-8.2,7.2a9.737,9.737,0,0,0-2.4-.2c-6.7,1.1-13.5,2.4-20.3,3.4a21.466,21.466,0,0,1-6.2,0c-.5-.9-.9-1.6-1.5-2.7-2.7,2.5-5.4,4.8-8.3,7-10.7,2.2-20.4,6.1-30.1,10.3a47.448,47.448,0,0,1-2.6-7.5c.7-.8,1-1.3,1.6-1.6,3.6-1.7,7.1-3.7,10.9-4.8a27.439,27.439,0,0,0,9-4.2c.8-.7,2.1-.7,3.2-1,3.9-1.3,7.7-2.5,11.7-3.9.9-.3,1.9-1,2.7-.9,6.3.6,11.9-2.4,17.9-3.4,5.1-.8,10.1-3.4,15.5-1.7.8.3,1.9-.4,2.8-.7a22.885,22.885,0,0,1,2.8-.8c5.8-.7,11.7-1.2,17.5-2.1,4.3-.7,8.3-2.7,12.6-2.9,8.3-.6,16-3.2,23.6-6,8.6-3.1,17.3-5.8,25.9-8.8,4.2-1.5,9-2.4,12.3-5.2a81.063,81.063,0,0,1,14.9-9.7,38.7,38.7,0,0,0,7-5c6.4-5.8,12.5-12,18.8-17.8,5.5-4.9,9.6-11.1,15.9-15.1,3.4-2.1,6.1-5.1,9.3-7.7,1.9-1.6,4.2-2.9,6-4.6,2.9-2.9,5.4-5.9,8.1-8.9,2.3-2.5,4.9-4.8,6.6-7.7,4.2-7,10.7-11.8,16.4-17.2,3.7-3.5,7.7-6.8,11.3-10.4,5.2-5.4,10-11.3,15.4-16.6,8.9-8.8,18.3-17.1,27.1-25.9,7-7,15.1-12.4,23.1-17.8,4-2.8,8.3-5.4,12.4-8.2,3.4-2.4,6.6-5,9.9-7.6,1.4-1.1,2.9-2.1,4.2-3.3a59.062,59.062,0,0,1,18.7-10.7c4.1-1.5,7.9-3,11.3-6a17.33,17.33,0,0,1,8-4c6-1.3,11.8-2.9,16.7-6.6a21.017,21.017,0,0,1,2.6-1.3c3.5-2,7.5-3.5,10.2-6.2,5.5-5.4,10.3-11.4,15.3-17.2.1-.1.2-.3.3-.4,2.1-4.7,6.6-7.2,10.2-10.7a48.658,48.658,0,0,1,3.5,4.2c.9,1.6,1.8,2.9,2.6,4.3-5,6.9-10.2,13.9-15.2,20.8-2,2.7-4.1,5.3-6.4,8.2-5.6,3.5-10.6,7.3-16.2,9.8a222.781,222.781,0,0,1-24.8,9,125.44,125.44,0,0,0-55.9,32.7C582,566.2,572.7,575,563.3,584.1Z" fill="#150a07"/>
      <path id="Pfad_546" d="M67.6,768.6a163.057,163.057,0,0,1,.3-17c1.3-1.2,2.1-1.8,2.9-2.5.9-.8,1.6-2.3,2.6-2.5,2.6-.5,2.9-2.4,3.7-4.4a59.545,59.545,0,0,1,5.4-9.5,4.156,4.156,0,0,1,5.1-1.6c2.8,1.2,5,.3,7.3-1,4.2-2.2,7.9-4.9,10.4-8.9,1.3-2,2.6-3,5-2.9,2.6.1,4-1.7,5-3.8.6-1.3.7-2.8,1.3-4.1a13.057,13.057,0,0,1,2.1-3.6c2.4-2.5,5-4.9,7.7-7.2,3-2.4,6.4-4.4,7-8.7.1-.4.6-.8.8-1.1,1.3-1.6,2.9-3,3.7-4.8a7.867,7.867,0,0,1,6.6-5c5.6-.8,11-1.9,16.6-2a228.025,228.025,0,0,0,24.8-1.9c6.1-.9,12.2-2.8,18.6-2l.1.3c.8,2.4,1.4,5,4.3,4.3,2.4-.6,2.4-2.9,2.4-5,9.4-.4,18.8-.8,28.9-1.1,2.6-.1,4.5-.3,6.3-.5,6.1-.4,12.2-.8,18.6-1.1,2.4.1,4.9.1,7.3,0,3.5-.4,6.9-1.3,10.7-1.9a62.976,62.976,0,0,0,7.5-.5c5.6-1,11.1-2.3,16.8-3.5a1.345,1.345,0,0,0,.6-.7s0,.1.3.1a130.3,130.3,0,0,0,12.5-4.5c5.3-2.6,7.7-7.5,8.4-13.1.3-2,0-4.2.2-6.2a23.557,23.557,0,0,1,1-3.8c2.8.2,5,.3,7.6.5,6.2.4,12,.8,17.9,1.2,12.2.9,23.9-1.3,35.4-5.1a82.177,82.177,0,0,0,9.5-3.3c12.5-5.5,22.4-14.1,30.4-25.2a16.473,16.473,0,0,0,2.9-12.6c-.6-6.1-1.3-12-1.9-18-.7-7.3-.4-14.7-1.8-21.8-1.5-8.2.6-16,.5-24,0-2.7.5-5.3-.3-8.4.5-5,1.2-9.5,1.6-14.1.5-6.1.8-12.3,1.3-18.8.1-5.9,1.9-11.4,1.4-17.2.8-3.6,1.2-7.1,1.9-10.7a67.631,67.631,0,0,1,2.6-6.5c6.1-10.4,13.4-20,21-29.4,12.4-15.1,25.4-29.8,37.1-45.5a43.816,43.816,0,0,0,7.4-14c1.9-6.5,3.4-13,5-19.6.3-.9,0-1.9.2-3.1.3-1,.6-1.9.8-2.9.9-2.9,1.9-5.4,2.6-7.9.5-2,.6-4.1,1.1-6.2a20.683,20.683,0,0,0,3.5-14.5c-.8-6.6-2.8-13.5,0-20.2a17.553,17.553,0,0,1,2.4,4.2,35.015,35.015,0,0,1,1.2,6.6c.3,3.3.3,6.6.5,10,.1,2.2-.3,4.5.4,6.5a9.288,9.288,0,0,1-.7,7.8c-1.9,3.7-3.8,7.5-3.4,11.9a8.864,8.864,0,0,1-.7,2.8,119.85,119.85,0,0,0-5,21.3,13.736,13.736,0,0,1-1.1,3.6c-2.8,5.6-7.4,10.1-8.8,16.4-.1.6-.8,1-1.2,1.5-4.2,6.2-9.8,11.4-12.9,18.5a14.637,14.637,0,0,1-3.2,4.2c-2.4,2.7-5.4,5-7.4,8.1-4.6,6.7-9,13.6-13.1,20.6-1.9,3.1-3.9,6.6-4.3,10.1-.9,7.2-.8,14.4-1.2,21.6a20.751,20.751,0,0,1-.3,4.3c-2.2,8.3-1.4,16.9-2.5,25.3-1.3,10.4,2.7,20.5,2.4,31-.2,5.1,1.3,10.4,2.4,15.6,1.2,5.8,2.7,11.5,4.1,17.2,1.8,6.7,7.6,10.2,12.4,14.3.7.6,2.2.5,3.2.3a7.293,7.293,0,0,0,5.4-7.1c.1-2.3,0-4.5.3-7,7-7.3,15.5-11.9,24.1-16.4a3.85,3.85,0,0,1-.8,2.4c-1.6,1.6-3.7,2.7-4.9,4.5a12.074,12.074,0,0,0-2.1,6.1c-.1,3.2,2,4.5,5.1,3.4a88.287,88.287,0,0,0,9.9-4.5c3-1.6,6-3.5,8.9-5,.2,2.9,1.3,4,3.8,2.6a83.682,83.682,0,0,0,8.2-4.8c3.1-2.1,9.2-2.2,11.9.5,1.7,1.6,3.2,3.7.8,6.1-2.6-.3-5-1.1-6.9-.3-3.1,1.3-6.2,1.3-9.4,1.4a9.349,9.349,0,0,0-3.3.4c-4.5,1.9-9.5,2.9-13.3,6.5-1,1-2.4,1.5-3.6,2.4-4.8,3.5-9.5,6.9-14.2,10.5-2.2,1.7-4,4-6.3,5.2-4.8,2.5-7.5,7.7-13,9.4-.9.3-1.7,1.4-2.4,2.3-6.1,6.4-12.2,12.8-18.2,19.3-3.1,3.4-7.2,6-9,10.5-.2.5-.9.8-1.5,1.1-4.2,2.9-8.6,5.6-12.7,8.6-6,4.3-12,8.4-17.6,13.2a89.5,89.5,0,0,0-11,12,6.023,6.023,0,0,0,0,7.6c2.2,2.3,4.6,2.4,7.5,1.3,5.8-2.4,11.3-5.3,15.9-9.6.8-.7,1-1.9,1.5-2.9h.3a45.507,45.507,0,0,0,5.1-2.1c1.9-.8,3.7-2.4,5.6-2.6,10.9-1.3,19.1-7.4,26-15a130.4,130.4,0,0,0,9.5-11.4c3.9-5.1,8.9-8.8,13.7-12.6,3.5-2.8,7.9-4.2,11.4-6.9a81.109,81.109,0,0,1,12.6-7.6,3.442,3.442,0,0,1,2.4.4c-2.2,2-4.5,3.8-6.9,5.6a17.969,17.969,0,0,1-2,1.9,43.633,43.633,0,0,0-8.2,4.5c-2.5,1.9-5.6,3.9-6.9,6.6-3.5,7-9.2,11.8-14.9,16.6-5.5,4.6-11.4,8.8-16.9,13.4-4.9,4-9.5,8.2-14.4,12-6.4,5-13.1,9.8-19.4,15.1a125.584,125.584,0,0,1-37.7,21.7c-5,1.9-10.3,3.5-14.9,6.6-4.7,3.2-9.9,5.6-15,8.2a7.216,7.216,0,0,1-3.2.8c-10.2.8-19.7,4-29.2,7.3-5,1.8-10.4,3.1-16,1.8-1.7-.4-3.8.3-5.5.9a29.259,29.259,0,0,1-11.6,2.6c-8,.2-16,.6-24.1.9a20.016,20.016,0,0,0-2.4.4c-8.8,2.1-17.4,4.2-26.2,6.4a5.64,5.64,0,0,0-2,1.1,49.006,49.006,0,0,1-4.8,3.1c-10.6,5.6-22.1,9.5-32.2,16.1a14.261,14.261,0,0,1-2.7.9c-5.2,1.7-10.4,3.3-15.6,5-3.5,1.2-7,2.4-10.4,3.5-3.6,1.3-7.4,2.2-10.9,3.8-5.8,2.6-11.4,5.6-17.2,8.5-5.1,2.6-10.6,4.6-14.3,9.4a5.223,5.223,0,0,1-1.9,1.4c-6.6,3-13.1,6.1-19.8,9a4.517,4.517,0,0,1-3.6.3c-4-1.9-7.9-2.4-11.8-.6-4-3.8-4.5-5.6-2.4-10.2.8-1.6.7-2.8-.6-3.9-1.8-1.6-3.6-3.1-5.6-4.6-5.6-4.5-11.6-6.6-18.6-3.5-.6.3-2.1.4-3.6.8m204.1-84.2c-1.8.2-3.5.3-5.2.5L247,687.3c-7.2.9-14.3,1.7-21.4,2.9-6.7,1.3-13.4,3.4-20.1,4.5-5.1.8-10.4,1.9-15.7.3-8.2-2.4-16.2-.2-24.2,1.3-2.6.5-5.1,2.4-7.7,2.4-6.3.1-11.9,2.4-17.7,4.5a7.056,7.056,0,0,0-3.4,2.4c-2,2.5-.6,5.6,2.7,5.8,6.9.4,13.8.8,20.7.9,2.2.1,4.5-.6,6.6-.7,6.1-.2,12.3.7,18.1-.5,6-1.2,11.6-.3,17.2.6,6.5,1.1,12.5-.3,18.6-.8,5.6-.4,11-2,16.6-2.8,2.3-.3,5-.5,6.9.5a14.743,14.743,0,0,0,8.2,1.8,116.934,116.934,0,0,0,11.9-1.2c12.5-2.1,24.9-4.3,37.4-6.7,5.5-1.1,10.9-2.5,16.3-4,4.3-1.3,8.3-3.5,12.6-4.3,9.1-1.8,17.3-5.9,25.8-9a23.487,23.487,0,0,0,3.7-2.4c-1.6-2.4-2.8-4.2-4.2-6.2-8.6.2-17,1.9-25.6,3.3a36.564,36.564,0,0,1-8.1,0c-3.7-.3-7.3-1.3-10.4,1.7-.7.7-2.1.6-3.2.8-2.5.5-5,.9-7.5,1.4-1.3.3-2.6.8-3.8.5-4.7-1.2-9.3-2-14,0-3.5-1.5-7.1.2-11.6.1M97.4,758c6.6,1.9,13.3,3.7,19.9,5.5a7.013,7.013,0,0,0,2.9.2c5.8-1.2,11.6-2.3,17.3-3.6,3.7-.9,7.3-2.4,11.3-2.2,1.2.1,2.4-.6,3.7-.9l11.9-3.8c2.4-.8,5-1.2,7.4-2,5.9-2.1,11.5-5,17.6-6.5,11.1-2.7,21.2-7.2,29.8-14.8a4.051,4.051,0,0,0,1.4-3c0-.6-1.6-1.4-2.5-1.6a88.642,88.642,0,0,0-27.2-.9c-11.4,1.5-22.7,3.8-34.2,5-8.2.9-16.2,3.5-24.2,5.9-8.2,2.4-16.4,5.4-24.5,8.4-5.6,2.1-11.6,3.5-16.9,6.7-1.7,1-2.9,2.1-2.4,4.2a4.007,4.007,0,0,0,4.1,3.4C94,758,95.3,757.9,97.4,758Z" fill="#433015"/>
      <path id="Pfad_547" d="M204.5,673.8c-6.3-.8-12.4,1.1-18.6,2a186.93,186.93,0,0,1-24.8,1.9,131.948,131.948,0,0,0-16.6,2,8.373,8.373,0,0,0-6.6,5c-.8,1.8-2.4,3.2-3.7,4.8-.3.3-.8.7-.8,1.1-.6,4.3-4,6.3-7,8.7a86.465,86.465,0,0,0-7.7,7.2,13.057,13.057,0,0,0-2.1,3.6c-.6,1.3-.6,2.9-1.3,4.1-1,2.1-2.4,3.9-5,3.8-2.4-.1-3.8.9-5,2.9-2.5,4-6.2,6.7-10.4,8.9-2.4,1.3-4.5,2.2-7.3,1a3.88,3.88,0,0,0-5.1,1.6,80.341,80.341,0,0,0-5.4,9.5c-.8,2-1.1,3.9-3.7,4.4-1,.2-1.8,1.7-2.6,2.5a14.634,14.634,0,0,1-2.8,2.1,234.193,234.193,0,0,1-.1-23.7c1.6-.8,2.9-1,4-1.7,5.1-3.7,9.3-8.7,14.8-11.9a6.365,6.365,0,0,0,2-2c1.8-3.5,4.9-4.8,8.2-6.1,3.7-1.4,7.3-3.1,10.9-4.8,4-1.9,5.7-8.7.8-11.4-1.3-.7-1.9-2.4-2.9-3.5a3.194,3.194,0,0,1,1.9-.3c1.5.2,2.7-.3,3.6,0,3.4,1.1,5.4-.4,7.1-3a4.383,4.383,0,0,1,1.9-.7c4.3.3,7.7-.3,9.9-4,.5-.8,1.3-1.8,2-1.9a82.76,82.76,0,0,1,12.1-2.1c9.8-.6,19.4-.7,29.2-1.1,4.5-.2,8.9-.8,13.3-1.1,4.6-.3,9.3-.6,13.8-.8C202.9,670.9,204.3,671.6,204.5,673.8Z" fill="#3b2a14"/>
      <path id="Pfad_548" d="M105.4,686c1.3,1.2,2,2.8,3.3,3.5,5,2.8,3.2,9.5-.8,11.4-3.6,1.7-7.2,3.4-10.9,4.8-3.4,1.3-6.5,2.7-8.2,6.1a4.308,4.308,0,0,1-2,2C81.2,717,77.1,722,72,725.7a17.063,17.063,0,0,1-3.8,1.3,107.211,107.211,0,0,1-.1-17c5-1,8.6-2.7,10.7-7.2a7.74,7.74,0,0,1,2.6-2.8c5.3-3.4,9.2-8.9,15.6-10.7.6-.2.9-1.2,1.7-1.9a2,2,0,0,1,.8-.3C101.1,686.9,103.1,686.4,105.4,686Z" fill="#2f2012"/>
      <path id="Pfad_549" d="M204.5,673.8c-.2-2.3-1.7-2.9-3.6-2.9-4.6.3-9.3.5-13.8.8s-8.9.9-13.3,1.1c-9.8.4-19.5.5-29.2,1.1a82.768,82.768,0,0,0-12.1,2.1,4.063,4.063,0,0,0-2,1.9c-2.2,3.6-5.6,4.3-9.7,4,2.8-5.3,7.5-7.6,13-9,9.7-2.5,19.3-4.5,29.3-5,10.4-.4,20.8-1.3,31.2-1.8a84.159,84.159,0,0,1,8.7-.1c5.8.3,6,.6,6.8,6.9-1.7,2.9-3.7.3-5.3.9Z" fill="#2f2012"/>
      <path id="Pfad_550" d="M89.9,686.4c2.8.3,5.1.6,7.8,1.1-.1.8-.4,1.8-1,1.9-6.4,1.9-10.3,7.3-15.6,10.7a7.02,7.02,0,0,0-2.6,2.8c-2,4.4-5.7,6.1-10.5,6.7-.4-5.1-.5-10.3-.4-15.8,4.1-4.3,9.5-5,14.9-6.3C85.1,687,87.3,686.8,89.9,686.4Z" fill="#23160d"/>
      <path id="Pfad_551" d="M139.7,199.5c-.3-4.5-.7-8.4-.9-12.5-.4-6.7-.7-13.5-1-20.2a9.928,9.928,0,0,1,.5-4.2c.4,3.4,1.1,6.9,1.3,10.4.5,5.9.8,11.9,1,17.8.4,10.3.4,20.5,1.1,30.8.4,6.6,1.7,13.3,2.5,19.9.5,4.1.6,8.3,1.3,12.5.9,5.8,1.9,11.7,3.3,17.4,2.1,8.8,4.7,17.3,7,26a6.2,6.2,0,0,1-.2,3.3C144.5,268.1,139.5,234.4,139.7,199.5Z" fill="#aecf70"/>
      <path id="Pfad_552" d="M176.7,450.6c18.3-7.2,36.3-14.2,54.1-21.5,15.7-6.4,31.4-13.2,47.9-17.8,4.5-1.3,8.8-3.1,13.2-4.6,1.1-.3,2.3-.5,3.5-.8.1.3.2.7.3,1-4.7,1.8-9.4,4-14.3,5.4-13.1,3.9-25.9,8.5-38.6,13.6-22.1,9.1-44.3,18-66.6,26.9-1.4.6-2.9.8-5.3,1.6C172.6,451.9,174.7,451.7,176.7,450.6Z" fill="#aecf70"/>
      <path id="Pfad_553" d="M60.2,400.6C71,428,80.8,455.1,86.9,483.7a25.5,25.5,0,0,1-1.3-2.9c-3.6-11.9-7-24.1-10.8-35.9-2.5-7.8-5.6-15.4-8.4-23.1-5.4-14.6-11.9-28.9-14.9-44.3-1.8-8.9-3.8-17.8-3-27.1C50.9,367.3,53.7,384.2,60.2,400.6Z" fill="#aecf70"/>
      <path id="Pfad_554" d="M101,578.1c0-3.8,2.9-6.1,4.7-8.7,8.9-13.3,15.6-27.7,21.8-42.3,6.3-14.9,12-30.1,18-45.1,1.3-3.4,2.7-6.7,5.9-9.2-1.3,3-2.4,6.1-3.7,9.1-4,10.2-7.9,20.4-11.9,30.5-2.7,6.7-5.5,13.4-8.4,19.9s-5.7,13-9.1,19.1c-4.6,8.4-9.8,16.5-14.9,24.7a9.024,9.024,0,0,1-2,1.9C101.1,578.2,101,578.1,101,578.1Z" fill="#aecf70"/>
      <path id="Pfad_555" d="M237.4,374.1c-12.3,4-24.1,8.2-36.1,11.6-8.8,2.5-17.8,4-26.7,5.9a5.478,5.478,0,0,1-2.8-.4c20.4-4.2,40.3-10.4,60.1-16.7,19.9-6.3,38.4-16.2,58.5-21.7l.5,1c-1.4.7-2.9,1.4-4.4,2-12.4,4.9-24.8,9.7-37.2,14.5C245.3,371.7,241.5,372.8,237.4,374.1Z" fill="#aecf70"/>
      <path id="Pfad_556" d="M215.8,110.8C214,95.2,213,80.2,216.9,65a14.645,14.645,0,0,1,.2,2.9c-.5,5.4-1.1,10.9-1.7,16.2a12.252,12.252,0,0,0-.2,1.9c.6,5.9,1.2,11.8,1.7,17.7.4,5,.9,9.9,1.1,14.9.4,12.4.7,24.7,1.1,37.1.2,5.5.6,10.9.9,16.3a5.385,5.385,0,0,1-.5,2.8,108.6,108.6,0,0,1-1.3-11.3c-.5-9.4-.7-18.9-1-28.4C216.7,127.2,216.3,119.2,215.8,110.8Z" fill="#aecf70"/>
      <path id="Pfad_557" d="M217.7,314.9c-4.6.8-8.8,1.4-13,2.1-.1-.2-.1-.3-.2-.5a15.951,15.951,0,0,1,2.7-1.2,128.427,128.427,0,0,1,19.4-3.1c16.8-1.4,33.8-2.5,50.4-6.3,6.5-1.4,13.3-1.5,20-2.3,3.3-.3,6.5-.8,9.8-1.1.1.3.1.7.2,1.1l-12.6,2c-12,1.9-24,3.7-36,5.5-4.3.6-8.6.9-12.9,1.3l-18.6,1.8C223.9,314.4,221,314.5,217.7,314.9Z" fill="#aecf70"/>
      <path id="Pfad_558" d="M128.5,613.2c-5.6,9.9-9.9,20.3-18,28.3,18.3-26.9,28.6-57.3,37.4-88.4C148.9,560.2,140.1,587.7,128.5,613.2Z" fill="#aecf70"/>
      <path id="Pfad_559" d="M187.1,147.2c-.7-4.5-1.3-8.6-1.9-12.7a54.356,54.356,0,0,1-.3-11.4c.7,3.5,1.5,7.1,2.1,10.6,1.6,9.6,3.2,19.2,4.6,28.9.9,6,1.6,12,2.1,18.1a122.621,122.621,0,0,0,6.3,30.5,18.107,18.107,0,0,1,1.2,5.6,9.414,9.414,0,0,1-2.7-4.5,118.5,118.5,0,0,1-6-26.2C191.2,173.2,189,160.4,187.1,147.2Z" fill="#aecf70"/>
      <path id="Pfad_560" d="M164.9,170.4c1.9.9,1.6,3.1,1.8,4.8,1.2,10.7,1.9,21.4,3.1,32,1.7,14.6,3.6,29.3,8.5,43.3,1.3,3.5,2.5,6.9,3.7,10.4.3.7.1,1.5.3,3.5a24.76,24.76,0,0,1-1.9-2.6c-3.5-10.3-7.5-20.5-9.2-31.4-.9-6-1.8-12-2.4-18.1-1-8.4-2-16.8-2.8-25.2C165.5,181.6,165.2,176.1,164.9,170.4Z" fill="#aecf70"/>
      <path id="Pfad_561" d="M102,441.8a27.458,27.458,0,0,1,1.1-4.1c4.1-9.8,8.4-19.4,12.6-29.2,4.1-9.4,8.2-18.8,12.2-28.3,2.4-5.7,4.6-11.6,7-17.4.5-1.3,1.3-2.4,1.9-3.6a3.582,3.582,0,0,0,1.1.4c-.6,1.8-1.1,3.5-1.8,5.2-3.3,8-6.5,16.1-9.8,24.1-4.3,10.2-8.7,20.4-13,30.5-2.9,6.6-5.9,13.2-8.9,19.8a11.78,11.78,0,0,1-1.9,2.5Z" fill="#aecf70"/>
      <path id="Pfad_562" d="M78.9,220.6v43.7c-2.5-1.2-1.9-3-1.9-4.5-.1-15,.2-30-.1-44.9-.1-6.6-1.1-13-1.7-19.6-.7-7-1.4-13.9-1.8-21C77.2,189.3,77.8,204.8,78.9,220.6Z" fill="#aecf70"/>
      <path id="Pfad_563" d="M177.1,529.4c13-3.7,25.7-7.2,37.8-12.5,7.3-3.1,15.1-5.5,22.6-8a5.824,5.824,0,0,1,3.9.2c-.7.3-1.3.8-1.9,1.1-10.1,3.7-20.2,7.3-30.3,10.9a360.574,360.574,0,0,1-45.6,13.3,2.847,2.847,0,0,1-2.7-1C166.1,532.2,171.5,530.9,177.1,529.4Z" fill="#aecf70"/>
      <path id="Pfad_564" d="M287.6,52.1c2.2-5.8,4.4-11.3,6.5-16.7.4.2.8.3,1.3.5-4.6,12.6-9.4,25.2-14,37.8-4.6,12.8-8.8,25.7-13.5,38.5C272.4,91.6,279.7,72,287.6,52.1Z" fill="#aecf70"/>
      <path id="Pfad_565" d="M244.2,106.4a196.657,196.657,0,0,1-1.8,28.7c-.5,3.6-.2,7.4-.2,11.1v6.3c-2.3-8.5.8-79.4,4-87.4-.3,3.5-.4,7.1-.7,10.6a9.863,9.863,0,0,0-.3,2.4C244.8,87.4,244.5,96.7,244.2,106.4Z" fill="#aecf70"/>
      <path id="Pfad_566" d="M63.4,243.8c.7,3.8,1.3,7.2,1.9,10.5l-1,.3Q54.85,218,44,181.6a37.185,37.185,0,0,1,1.9,3.4c2.5,7.7,5,15.2,7.3,22.9C56.7,219.6,60,231.5,63.4,243.8Z" fill="#aecf70"/>
      <path id="Pfad_566_00000118382338367147880730000000553821765220532608_" d="M58.4,297c2.1,3.2,4,5.9,5.9,8.7l-.8.6q-22.95-29.4-46.9-58a23.721,23.721,0,0,1,3,2.3c5.3,5.9,10.5,11.8,15.6,17.8C42.8,277.8,50.4,287.2,58.4,297Z" fill="#aecf70"/>
      <path id="Pfad_567" d="M94.3,541.4c3.4-6,6.6-12.1,10.1-18a200.932,200.932,0,0,0,17-34.5,58.628,58.628,0,0,1,6.3-12.5,4.145,4.145,0,0,1,.2,1.5c-5.2,12.2-9.6,24.9-16.2,36.5-4.5,7.8-9,15.6-13.6,23.3a17.01,17.01,0,0,1-3.4,3.7C94.3,541.5,94.3,541.4,94.3,541.4Z" fill="#aecf70"/>
      <path id="Pfad_568" d="M96.2,363.6a48.829,48.829,0,0,1,1.8-5.4c5.2-11.2,10.6-22.3,15.7-33.6,3.4-7.7,6.4-15.7,9.7-23.6.5-1.3,1.3-2.4,1.9-3.6a4.179,4.179,0,0,0,1,.4c-.8,2.3-1.6,4.6-2.5,6.9-5.3,12.9-10.4,25.9-16.1,38.6-3,6.8-7.2,13.2-11.1,20Z" fill="#aecf70"/>
      <path id="Pfad_569" d="M284.8,189.6c-10.7,7.2-20.9,14.4-31.4,21.1-4.8,3.1-10.4,5.1-15.6,7.6a2.681,2.681,0,0,1-2.7-.7c1.7-.8,3.4-1.7,5-2.3,9.3-3.4,17.3-9,25.3-14.6,7.8-5.6,15.4-11.6,24.3-15.5,1.1-.5,2.3-.9,3.9-1.5-1.6,2.4-1.6,2.3-3.8,3.4C288.3,187.8,286.7,188.6,284.8,189.6Z" fill="#aecf70"/>
      <path id="Pfad_570" d="M180.1,603.2a60.361,60.361,0,0,1,9.8-1.9A185.473,185.473,0,0,0,242,590.9a22.381,22.381,0,0,1,3.7-1c.2-.1.5.3,1.3.8-3.2,1.3-6.1,2.7-9,3.6-10.6,3.2-21.2,6.1-32.2,7.2-7.5.7-14.9,1.9-22.3,2.8a12.968,12.968,0,0,1-3.4-.2c-.1,0-.3-.2-.2-.3C179.6,603.6,179.7,603.6,180.1,603.2Z" fill="#aecf70"/>
      <path id="Pfad_571" d="M92.7,324.2c6.1-14,11.9-27.6,18.1-41.9.7,5.8-20.4,52.7-26,58.1C86.4,334,90.4,329.8,92.7,324.2Z" fill="#aecf70"/>
      <path id="Pfad_572" d="M95.2,403.1c1.4-3.2,2.8-6.4,4.4-9.5,2.2-4.1,4.6-8.1,7-12.1.3-.6.5-1.2,1.4-1.3a94.889,94.889,0,0,1-12.5,22.7C95.3,403.2,95.2,403.1,95.2,403.1Z" fill="#aecf70"/>
      <path id="Pfad_573" d="M101.1,578.2c-1.5,2.7-3,5.3-4.5,7.9-2.2,3.9-4.4,7.7-6.8,12.1.2-5.3,5.2-14.6,10.9-20C101,578.1,101.1,578.2,101.1,578.2Z" fill="#aecf70"/>
      <path id="Pfad_574" d="M107.9,248.5a3.21,3.21,0,0,1-.1,1.4c-3,5.9-6.1,11.8-9.5,18.4-.3-3.5,0-4.4,3.5-10.6,1.7-3,3.6-6,5.7-9.1Z" fill="#aecf70"/>
      <path id="Pfad_575" d="M87.5,285.2a15.831,15.831,0,0,1,.9-3.1c2-3.8,4.2-7.5,6.4-11.3a3.022,3.022,0,0,1,1.9-1.4,46.752,46.752,0,0,1-8.8,15.7A.6.6,0,0,1,87.5,285.2Z" fill="#aecf70"/>
      <path id="Pfad_576" d="M117.6,362.7c-.8,4-5.2,13-8.2,15.7a61.916,61.916,0,0,1,7.9-15.6C117.5,362.6,117.6,362.7,117.6,362.7Z" fill="#aecf70"/>
      <path id="Pfad_577" d="M79.5,351.5c-1,1.2-1.8,2.1-2.5,3a5.547,5.547,0,0,1-.8-.6c2.4-4.1,4.8-8.2,7.4-12.8C83.9,344.6,83.6,345.3,79.5,351.5Z" fill="#aecf70"/>
      <path id="Pfad_578" d="M204.5,674.2c1.6-1,3.5,1.6,5.2-.9a1.673,1.673,0,0,1,1.2.1c.3,2.2.3,4.5-2.1,5.1C206,679.1,205.4,676.6,204.5,674.2Z" fill="#3b2a14"/>
      <path id="Pfad_579" d="M258,164.8c-4,1.7-7.7,3-11.9,2.3,5.4-1.8,10.5-3.4,15.7-5.1.1.3.3.6.4.9A42.841,42.841,0,0,1,258,164.8Z" fill="#aecf70"/>
      <path id="Pfad_580" d="M105,649.7c-2.4,4-4.8,8.2-7.5,12.4l-.3.2c.8-5,3.8-8.8,7.4-12.5h.4Z" fill="#aecf70"/>
      <path id="Pfad_581" d="M118.1,682.6c-1.3,2.6-3.4,4.2-6.7,3.1-.9-.3-2.1.1-3.4,0A73.449,73.449,0,0,1,118.1,682.6Z" fill="#493415"/>
      <path id="Pfad_582" d="M298.3,135.5c-3.6,2.3-7.2,4.5-11.3,6.7a.584.584,0,0,1-.4-.1,19.211,19.211,0,0,1,11.3-6.7Z" fill="#aecf70"/>
      <path id="Pfad_583" d="M124.3,348.1l3.7-5.6c.3.2.7.4,1,.6-1.8,3.1-3.5,6.3-5.6,10.1C122.3,350.9,123.7,349.7,124.3,348.1Z" fill="#aecf70"/>
      <path id="Pfad_584" d="M232.5,143.8c-.2.4-.4.3-.8.3-.8-5.2-1.4-10.4-2-15.9,0-.4.4-.4.7-.5C231.2,132.9,231.9,138.1,232.5,143.8Z" fill="#a9cd82"/>
      <path id="Pfad_585" d="M117.5,362.6c.1-3.4,2.1-5.8,4-8.2,0,3.2-1.5,5.6-3.6,8.2C117.6,362.7,117.5,362.6,117.5,362.6Z" fill="#aecf70"/>
      <path id="Pfad_586" d="M104.9,649.7c0-2.9,1.9-4.7,4-6.4.1,2.7-1.5,4.5-3.6,6.3C105,649.7,105,649.7,104.9,649.7Z" fill="#aecf70"/>
      <path id="Pfad_587" d="M129.7,469.7c.6-.9,1-1.5,1.7-2.5-.1,3.9-.1,4-3.3,6.6C128.6,472.5,129.1,471.3,129.7,469.7Z" fill="#aecf70"/>
      <path id="Pfad_588" d="M137,454.5c-.4,1.2-.8,2-1.1,2.9-1.1-2.7.3-4.7,2-6.7C137.6,451.8,137.3,452.9,137,454.5Z" fill="#aecf70"/>
      <path id="Pfad_589" d="M281.4,147.2a39.2,39.2,0,0,1-3.4,3.7,6.034,6.034,0,0,0-.8-.8C278.1,148.2,278.8,146.5,281.4,147.2Z" fill="#aecf70"/>
      <path id="Pfad_590" d="M163,161.5v-3.6a2.2,2.2,0,0,0,.8-.1c.4,2.8.9,5.6,1.3,8.4-.3.1-.5.1-.8.2C163.9,164.8,163.5,163.3,163,161.5Z" fill="#aecf70"/>
      <path id="Pfad_591" d="M268.4,157.8c-.3,2.5-2.1,3-4,3.5-.3-.3-.4-.6-.7-.9,1.4-.9,2.8-1.8,4.3-2.6C268.3,157.7,268.4,157.8,268.4,157.8Z" fill="#aecf70"/>
      <path id="Pfad_592" d="M94.4,541.5c-.1,1.5.1,3.2-2.4,3.5-.5-1.7.8-2.4,2-3.4C94.3,541.4,94.3,541.5,94.4,541.5Z" fill="#aecf70"/>
      <path id="Pfad_593" d="M268.3,157.7c.9-1,1.9-1.9,2.8-2.9.7,2.4-.5,2.9-2.4,2.9C268.4,157.8,268.3,157.7,268.3,157.7Z" fill="#aecf70"/>
      <path id="Pfad_594" d="M231.3,218.6a3.379,3.379,0,0,1,1.2.6c-1.2.5-2.4,1-3.4,1.5a2.994,2.994,0,0,1-.4-.8C229.4,219.5,230.2,219.1,231.3,218.6Z" fill="#aecf70"/>
      <path id="Pfad_595" d="M286.8,142.3c-.2,1.3-.5,2.5-3.2,2.3a22.565,22.565,0,0,1,2.9-2.3C286.7,142.2,286.7,142.2,286.8,142.3Z" fill="#aecf70"/>
      <path id="Pfad_596" d="M83.8,291.1c-.8,1.2-1.6,2.4-2.6,3.7-.3.2-.3.1-.3.1a31.94,31.94,0,0,1,2.6-3.8C83.7,291,83.8,291.1,83.8,291.1Z" fill="#aecf70"/>
      <path id="Pfad_597" d="M132.3,463.6a3.4,3.4,0,0,1,1.4-.2c-.3.6-.7,1.3-1,1.9C132.6,464.8,132.4,464.2,132.3,463.6Z" fill="#aecf70"/>
      <path id="Pfad_598" d="M266,115.3c2.4.8.8,1.3-.4,2.8A23.578,23.578,0,0,1,266,115.3Z" fill="#aecf70"/>
      <path id="Pfad_599" d="M83.7,291a24.773,24.773,0,0,1,1.7-3.7c.3-.2.3-.1.3-.1a24.773,24.773,0,0,1-1.7,3.7C83.8,291.1,83.7,291,83.7,291Z" fill="#aecf70"/>
      <path id="Pfad_600" d="M95.3,364.5a24.773,24.773,0,0,1-1.7,3.7l-.3.2a24.773,24.773,0,0,1,1.7-3.7Z" fill="#aecf70"/>
      <path id="Pfad_601" d="M130.7,339.3a3.946,3.946,0,0,1-.6,1.5,7.361,7.361,0,0,0-.6-.5A5.8,5.8,0,0,1,130.7,339.3Z" fill="#aecf70"/>
      <path id="Pfad_602" d="M109.8,245.7a25.433,25.433,0,0,1-1.6,2.8c-.3.2-.3.1-.3.1a16.091,16.091,0,0,1,1.7-2.8C109.8,245.6,109.8,245.7,109.8,245.7Z" fill="#aecf70"/>
      <path id="Pfad_603" d="M95.3,403.2c-.3.5-.6,1-.9,1.4-.2-.2-.4-.3-.6-.5a2.73,2.73,0,0,1,1.2-.9C95.2,403.1,95.3,403.2,95.3,403.2Z" fill="#aecf70"/>
      <path id="Pfad_604" d="M112.7,277.6a19.832,19.832,0,0,1,1.1-2c.2,0,.3.1.5.1a3.41,3.41,0,0,1-.7,1.9C113.4,277.5,113,277.6,112.7,277.6Z" fill="#abcd6c"/>
      <path id="Pfad_605" d="M85.6,287.2a10.048,10.048,0,0,1,1.6-1.9c.3-.1.3,0,.3,0a7.35,7.35,0,0,1-1.6,1.9C85.7,287.3,85.6,287.2,85.6,287.2Z" fill="#aecf70"/>
      <path id="Pfad_606" d="M299.3,405.1l1.8-.9c.1.3.2.4.3.7-.5.1-.9.2-1.7.3Z" fill="#aecf70"/>
      <path id="Pfad_607" d="M201.7,317.8a1.69,1.69,0,0,1-1-.3A1.93,1.93,0,0,1,201.7,317.8Z" fill="#aecf70"/>
      <path id="Pfad_608" d="M184.1,118.4a1.235,1.235,0,0,1-.4.8,6.89,6.89,0,0,0-.3-.8A.483.483,0,0,1,184.1,118.4Z" fill="#aecf70"/>
      <path id="Pfad_609" d="M79.8,295.9a7.1,7.1,0,0,1-.8,1.8l-.3.2a7.1,7.1,0,0,1,.8-1.8Z" fill="#aecf70"/>
      <path id="Pfad_610" d="M68.2,544.7c.1,0,0,.3,0,.3S68.1,544.7,68.2,544.7Z" fill="#665c4c"/>
      <path id="Pfad_611" d="M97.3,662.2a5.274,5.274,0,0,0-.3,1.2,2.153,2.153,0,0,1,.2-1.1Z" fill="#aecf70"/>
      <path id="Pfad_612" d="M112.7,279.5a5.274,5.274,0,0,0-.3,1.2,2.153,2.153,0,0,1,.2-1.1Z" fill="#aecf70"/>
      <path id="Pfad_613" d="M112.7,277.8c0-.3.5-.3.8-.3a2.383,2.383,0,0,1-.5,1.8l-.3.2Z" fill="#aecf70"/>
      <path id="Pfad_614" d="M246.7,61.2" fill="#aecf70"/>
      <path id="Pfad_615" d="M109.8,245.6a5.274,5.274,0,0,0,.3-1.2,2.153,2.153,0,0,1-.2,1.1C109.8,245.7,109.8,245.6,109.8,245.6Z" fill="#aecf70"/>
      <path id="Pfad_616" d="M141.3,438.7" fill="#aecf70"/>
      <path id="Pfad_617" d="M140.5,441.8c-.1.1-.2.2-.3.2C140.2,441.9,140.4,441.8,140.5,441.8Z" fill="#aecf70"/>
      <path id="Pfad_618" d="M101.1,443.8a7.1,7.1,0,0,1,.8-1.8l.3-.2a7.1,7.1,0,0,1-.8,1.8Z" fill="#aecf70"/>
      <path id="Pfad_619" d="M280.1,179.5a.6.6,0,0,1-.4-.1C279.8,179.4,280,179.5,280.1,179.5Z" fill="#574f46"/>
      <path id="Pfad_620" d="M101.1,443.8a5.274,5.274,0,0,0-.3,1.2,2.153,2.153,0,0,1,.2-1.1Z" fill="#aecf70"/>
      <path id="Pfad_621" d="M139.1,444.8c.1-.1.2-.2.3-.2C139.3,444.7,139.2,444.8,139.1,444.8Z" fill="#aecf70"/>
      <path id="Pfad_622" d="M138.2,447.4c.2.1.2.3.2.5C138.3,447.7,138.2,447.6,138.2,447.4Z" fill="#aecf70"/>
      <path id="Pfad_623" d="M299.3,405.1a6.072,6.072,0,0,1-1,.7c-.1-.1-.2-.3-.3-.3a1.929,1.929,0,0,1,1-.3Z" fill="#aecf70"/>
      <path id="Pfad_624" d="M264.5,138.4a2.663,2.663,0,0,1-1.2.3,3.552,3.552,0,0,1,.9-.4C264.5,138.3,264.5,138.3,264.5,138.4Z" fill="#c5b8a9"/>
      <path id="Pfad_625" d="M42.4,179c.1-.1.2-.2.3-.2C42.6,178.9,42.5,179,42.4,179Z" fill="#aecf70"/>
      <path id="Pfad_626" d="M88.2,486.5" fill="#aecf70"/>
      <path id="Pfad_627" d="M243.9,508.1q.15-.3.3-.3A.265.265,0,0,1,243.9,508.1Z" fill="#aecf70"/>
      <path id="Pfad_628" d="M134.6,460c0,.3-.2.3-.3.5A.55.55,0,0,1,134.6,460Z" fill="#aecf70"/>
      <path id="Pfad_629" d="M92.5,369.4a5.274,5.274,0,0,0-.3,1.2,2.153,2.153,0,0,1,.2-1.1C92.3,369.4,92.4,369.4,92.5,369.4Z" fill="#aecf70"/>
      <path id="Pfad_630" d="M63.4,539.5a4.876,4.876,0,0,0,.7.3.661.661,0,0,1-.6-.1C63.4,539.4,63.4,539.5,63.4,539.5Z" fill="#fff"/>
      <path id="Pfad_631" d="M295.9,33.5" fill="#aecf70"/>
      <path id="Pfad_632" d="M297.8,29.6" fill="#aecf70"/>
      <path id="Pfad_633" d="M300.6,133.9C300.7,133.9,300.6,134,300.6,133.9Z" fill="#aecf70"/>
      <path id="Pfad_634" d="M298.3,135.5c.1,0,.2-.1.2,0Z" fill="#aecf70"/>
      <path id="Pfad_635" d="M152.9,468.5C152.8,468.5,152.9,468.4,152.9,468.5Z" fill="#aecf70"/>
      <path id="Pfad_636" d="M134.5,341.8C134.5,341.9,134.4,341.7,134.5,341.8Z" fill="#906846"/>
      <path id="Pfad_637" d="M293,352.4" fill="#aecf70"/>
      <path id="Pfad_638" d="M75.5,356.3" fill="#aecf70"/>
      <path id="Pfad_639" d="M138.3,357.4" fill="#aecf70"/>
      <path id="Pfad_640" d="M95.3,364.5a1.085,1.085,0,0,1,.8-.8c.1,0,.2-.1.3-.1a1.085,1.085,0,0,1-.8.8Z" fill="#aecf70"/>
      <path id="Pfad_641" d="M93.4,368.4a1.085,1.085,0,0,1-.8.8c-.1,0-.2.1-.3.1a1.085,1.085,0,0,1,.8-.8Z" fill="#aecf70"/>
      <path id="Pfad_642" d="M92.4,407.1c.1,0,.2-.1.2,0Z" fill="#aecf70"/>
      <path id="Pfad_643" d="M92.5,407.1c-.1,0-.2.1-.2,0Z" fill="#aecf70"/>
      <path id="Pfad_644" d="M90.9,409.5" fill="#aecf70"/>
      <path id="Pfad_645" d="M70.2,547.2c-.1-.2-.3-.3-.3-.4.1.1.2.1.3.3Z" fill="#665c4c"/>
      <path id="Pfad_646" d="M265,119.6" fill="#aecf70"/>
      <path id="Pfad_647" d="M89.9,547.7" fill="#aecf70"/>
      <path id="Pfad_648" d="M126.7,295.4C126.6,295.4,126.7,295.5,126.7,295.4Z" fill="#aecf70"/>
      <path id="Pfad_649" d="M80.8,294.9a1.085,1.085,0,0,1-.8.8c-.1,0-.2.1-.3.1a1.085,1.085,0,0,1,.8-.8A.438.438,0,0,0,80.8,294.9Z" fill="#aecf70"/>
      <path id="Pfad_650" d="M151.9,470.4C151.9,470.3,151.8,470.4,151.9,470.4Z" fill="#aecf70"/>
      <path id="Pfad_651" d="M67.2,124.3a.319.319,0,0,1,.3.3c0,.1-.4.2-.5.2C67,124.6,67,124.3,67.2,124.3Z" fill="#aa8766"/>
      <path id="Pfad_652" d="M77,300.7c-.1,0-.2.1,0,0Z" fill="#aecf70"/>
      <path id="Pfad_653" d="M263.9,121.4" fill="#aecf70"/>
      <path id="Pfad_654" d="M77,300.7c.1,0,.1-.1,0,0Z" fill="#aecf70"/>
      <path id="Pfad_655" d="M295.8,183.3" fill="#aecf70"/>
      <path id="Pfad_656" d="M78.9,297.9c-.1,0-.2.1-.2,0Z" fill="#aecf70"/>
      <path id="Pfad_657" d="M514.8,600.4c2.2-1.8,4.3-3.5,6.9-5.6,1.2-.9,1.9-1.6,3-2.4a46.1,46.1,0,0,0,5.5-4.4,42.478,42.478,0,0,0,3.1-4.3c.4-.3.7-.6,1.1-.9,7.2-5.5,14.1-10.8,21-16.2.6-.5.8-1.3,1.3-1.9,3.5-4.2,6.7-8.6,10.5-12.5a133.906,133.906,0,0,1,13-12,95.462,95.462,0,0,1,14.1-9.3c7.2-3.9,13.1-9.8,21-12.5,6.2-2.1,11.9-5.6,18.3-7.3a166.635,166.635,0,0,0,19.6-6.5c7.7-3,14.8-7.1,19-14.7,1.4-2.7,2.9-5.4,4.5-7.9,2.4-3.5,4.6-7,7.6-9.8A182.687,182.687,0,0,1,698.5,460c.2.1.7.3.7.7,1.3,2.7,2.7,5,4,7.3-3.3,3.6-7.8,6.1-9.9,10.9-.1.2-.1.3-.3.4-5,5.8-9.8,11.9-15.3,17.2-2.8,2.7-6.7,4.2-10.2,6.2a21.013,21.013,0,0,0-2.6,1.3c-5,3.8-10.8,5.3-16.7,6.6a20.127,20.127,0,0,0-8,4c-3.4,2.9-7.2,4.5-11.3,6a59.062,59.062,0,0,0-18.7,10.7c-1.3,1.2-2.8,2.2-4.2,3.3-3.3,2.5-6.5,5.1-9.9,7.6-4,2.9-8.2,5.4-12.4,8.2-8.1,5.6-16.2,10.9-23.1,17.8-8.8,8.8-18.2,17.1-27.1,25.9-5.4,5.3-10.1,11.2-15.4,16.6-3.5,3.7-7.6,6.9-11.3,10.4-5.7,5.5-12.2,10.3-16.4,17.2-1.7,2.9-4.4,5.1-6.6,7.7-2.7,3-5.2,6.1-8.1,8.9-1.8,1.8-4,3-6,4.6-3.1,2.5-5.9,5.6-9.3,7.7-6.4,4-10.4,10.3-15.9,15.1-6.5,5.7-12.5,11.9-18.8,17.8a30.9,30.9,0,0,1-7,5,81.063,81.063,0,0,0-14.9,9.7c-3.3,2.7-8.1,3.7-12.3,5.2-8.6,3-17.3,5.8-25.9,8.8-7.7,2.8-15.4,5.4-23.6,6-4.2.3-8.3,2.3-12.6,2.9-5.8.9-11.6,1.3-17.5,2.1a14.735,14.735,0,0,0-2.8.8c-.9.3-1.9.9-2.8.7-5.5-1.7-10.4.9-15.5,1.7-6,.9-11.6,4-17.9,3.4-.8-.1-1.8.6-2.7.9-3.9,1.3-7.7,2.6-11.7,3.9-1.1.3-2.4.3-3.2,1a25.557,25.557,0,0,1-9,4.2c-3.8,1.1-7.3,3.1-10.9,4.8a14.624,14.624,0,0,0-1.9,1.6,31.674,31.674,0,0,1-4.1,2.1,11.5,11.5,0,0,0-4.1.8c-6.9,3.3-13.7,6.7-20.5,10.1-4.1,2-8.1,4.9-12.5,6-8.2,2.1-15.1,6.9-22.9,10-9.2,3.7-18,8.2-27.1,12.3-7.3,3.3-15.1,5.7-22,9.5-6.5,3.4-13.5,6.2-18.8,11.4-2.3,2.2-4.5,4.5-6.6,6.8-6,6.9-12.7,13.1-17.7,21-2.3,3.5-5,7.2-10,7.6-.1-5.6-.2-11.2-.2-16.8,0-16,0-32.1.5-48.5,6.3.6,11.5,2.4,13.8,8.8a7.9,7.9,0,0,0,4.4,4c5.4,2.3,11.3,2.1,16.9,3a4.865,4.865,0,0,0,2.9-.2c4-2.3,8.9-2.9,12.1-6.6,3.9-4.3,9-6.8,14-9.3,8.6-4.3,17.6-7.7,26.4-11.6,14.2-6.1,28.4-12.5,42.8-18.4a214.486,214.486,0,0,1,22.1-7.8,183.694,183.694,0,0,0,31.3-12.4c7-3.5,13.9-6.5,21.5-7.7a65.909,65.909,0,0,0,7.6-1c6.1-1.4,12-3.4,18.2-4.6,10.2-2.1,20.2-5,30.5-6.5a6.97,6.97,0,0,0,1.9-.6c6.6-4.3,14.4-4.2,21.8-5a139.872,139.872,0,0,0,20.4-3.3,116.228,116.228,0,0,0,11.9-3.4c5.2-1.9,11-3,14.5-8,2.9-4.1,7.1-6.2,11.5-7.4a23.219,23.219,0,0,0,9.3-4.6c7.7-6.7,15.2-13.6,22.7-20.7,5.8-5.5,11.4-11.3,17-16.9l19.4-19.4a22.844,22.844,0,0,0,2.9-3.3c3.6-5.6,8.7-9.9,13.8-14,5.8-4.5,9.6-10.3,13.7-16.2A3.451,3.451,0,0,0,514.8,600.4Z" fill="#291c10"/>
      <path id="Pfad_658" d="M512.5,602.3c-3.4,5.9-7.2,11.7-13,16.2-5.1,4-10.2,8.3-13.8,14a18.066,18.066,0,0,1-2.9,3.3c-6.4,6.5-12.9,12.9-19.4,19.4-5.6,5.6-11.2,11.4-17,16.9-7.4,7.1-15,14-22.7,20.7a23.218,23.218,0,0,1-9.3,4.6c-4.4,1.2-8.7,3.3-11.5,7.4-3.5,5-9.3,6.1-14.5,8-3.9,1.3-7.9,2.5-11.9,3.4a139.872,139.872,0,0,1-20.4,3.3c-7.4.8-15.1.7-21.8,5a6.033,6.033,0,0,1-1.9.6c-10.3,1.4-20.3,4.4-30.5,6.5-6.1,1.3-12,3.2-18.2,4.6-2.4.6-5,.6-7.6,1-7.7,1.2-14.6,4.1-21.5,7.7a183.7,183.7,0,0,1-31.3,12.4,214.488,214.488,0,0,0-22.1,7.8c-14.4,6-28.5,12.3-42.8,18.4-8.8,3.8-17.8,7.3-26.4,11.6-5,2.4-10.1,5-14,9.3-3.2,3.6-8.1,4.4-12.1,6.6a4.764,4.764,0,0,1-2.9.2c-5.6-.9-11.6-.8-16.9-3-1.8-.8-3.8-2.4-4.4-4-2.3-6.5-7.5-8.2-13.7-9.3-.4-8.4-.5-16.8-.4-25.7,1.5-.8,2.9-.9,4.3-1.5,7-3.1,13-1,18.6,3.5,1.9,1.5,3.7,3,5.6,4.6,1.3,1.1,1.3,2.3.6,3.9-2.1,4.6-1.6,6.4,2.4,10.2,4-1.9,7.8-1.3,11.8.6a5.551,5.551,0,0,0,3.6-.3c6.6-2.9,13.2-6,19.8-9a6.69,6.69,0,0,0,1.9-1.4c3.7-4.8,9.3-6.8,14.3-9.4,5.7-2.9,11.4-5.9,17.2-8.5,3.4-1.6,7.2-2.5,10.9-3.8,3.4-1.2,7-2.4,10.4-3.5,5.2-1.7,10.4-3.3,15.6-5a14.261,14.261,0,0,0,2.7-.9c10.2-6.6,21.6-10.5,32.2-16.1,1.7-.9,3.2-2.1,4.8-3.1a7.814,7.814,0,0,1,2-1.1c8.7-2.2,17.4-4.3,26.2-6.4a10.038,10.038,0,0,1,2.4-.4c8-.3,16-.8,24.1-.9a28.881,28.881,0,0,0,11.6-2.6,8.738,8.738,0,0,1,5.5-.9c5.6,1.3,10.9-.1,16-1.8,9.6-3.3,19.1-6.5,29.2-7.3a8.873,8.873,0,0,0,3.2-.8c5-2.6,10.4-5,15-8.2,4.6-3.1,9.8-4.6,14.9-6.6a125.584,125.584,0,0,0,37.7-21.7c6.2-5.3,13-9.9,19.4-15.1,4.9-3.9,9.5-8.1,14.4-12,5.6-4.5,11.4-8.8,16.9-13.4,5.7-4.8,11.4-9.6,14.9-16.6,1.3-2.7,4.3-4.6,6.9-6.6A27.878,27.878,0,0,1,512.5,602.3Z" fill="#3b2a14"/>
      <path id="Pfad_659" d="M67.5,860.8c5-.8,7.8-4.5,10.1-8,5-7.8,11.7-14.1,17.7-21,2.1-2.4,4.4-4.6,6.6-6.8,5.4-5.2,12.5-8,18.8-11.4,7-3.8,14.7-6.2,22-9.5,9.1-4,17.9-8.6,27.1-12.3,7.7-3.1,14.6-7.9,22.9-10,4.4-1.2,8.3-4,12.5-6,6.8-3.4,13.6-6.8,20.5-10.1a7.794,7.794,0,0,1,4-.5c.2.3,0,.4-.3.6a4.81,4.81,0,0,0-1.1.9c-3,4.2-5.8,8.3-8.8,12.4-8.2,3.6-16.1,7.2-23.9,10.8-3.5,1.7-7.1,3.5-10.9,5.2a35.389,35.389,0,0,0-3.1,1.9,38.093,38.093,0,0,0-4.5,1.3c-12.9,6.2-25.7,12.6-38.6,18.7-8.2,3.8-16.5,7.2-24.7,10.7-7.3,3-13.2,7.4-17,14.8-5.9,11.4-14.9,20.4-24,29.4a62.543,62.543,0,0,1-5,4C67.5,870.9,67.5,866.1,67.5,860.8Z" fill="#150a07"/>
      <path id="Pfad_660" d="M37.3,306.5a.747.747,0,0,0-.3-.3c.1.1.2.1.3.3Z" fill="#9abe57"/>
      <path id="Pfad_661" d="M39.3,523l-.4-.1c0,.1.2,0,.4.1Z" fill="#9abe57"/>
      <path id="Pfad_662" d="M791.3,484.8c-4.7,2.7-9.4,5.4-14.2,8-1.5.8-3.2,1.5-5,2.5-1.2.3-2.2.3-3,.6-7.7,3.2-15.8,2.4-23.6,1.8-4.6-.3-9-2.9-14-4.7a15.381,15.381,0,0,0-1.9-.8,4.628,4.628,0,0,1-1.8-1.3c-.3-1.9-.7-3.5-.1-4.5,1.9-3.5,4-7,6.1-10.3,2.6-4.1,2.7-4.1,7.9-3.2,7,3.9,14.2,5.4,22.2,5.6,7.3-.2,13.6-2.5,19.9-5.2,2.1,1.1,3.5.5,4.8-1.4a19.67,19.67,0,0,1,3.8-2.6c-.5,4.1.9,6.9,4.5,8.8C794.9,480.4,793.1,482.6,791.3,484.8Z" fill="#90c1e9"/>
      <path id="Pfad_663" d="M741.3,472.5c-5-.8-5-.8-7.7,3.4-2.2,3.4-4.3,6.8-6.1,10.3-.6,1.1-.2,2.7-.2,4.4-4.4-.7-6.9-4.3-10.3-7.6-.8-1.9-1.4-3.4-1.8-4.4,3.3-5.2,6.5-10.1,9.4-15.1a4.1,4.1,0,0,1,4.4-2.4C733.3,465.1,737.4,468.8,741.3,472.5Z" fill="#8dcbd7"/>
      <path id="Pfad_664" d="M728.9,461a4.412,4.412,0,0,0-4.1,2.6c-2.9,5-6.1,9.8-9.4,15.1q.6,1.5,1.5,4.2c-2.1-1.8-4.3-4-6.7-6.2a20.16,20.16,0,0,1-2.8-4.7,19.651,19.651,0,0,1,1.3-2.5,59.2,59.2,0,0,1,14.3-20,26.482,26.482,0,0,1,2.4,4C726.5,456.1,727.7,458.6,728.9,461Z" fill="#98cdb5"/>
      <path id="Pfad_665" d="M729.6,492.3a2.6,2.6,0,0,1,1.5.4A2.146,2.146,0,0,1,729.6,492.3Z" fill="#8dcbd7"/>
      <path id="Pfad_666" d="M722.8,449.2a66.688,66.688,0,0,0-14.1,20.3c-.5.8-1,1.5-1.5,2.3a29.764,29.764,0,0,1-3.5-3.6,36.388,36.388,0,0,1-3.9-7.6c.6-.6,1-.8,1-.9a21.293,21.293,0,0,1,5.7-10.1c.4-.3.3-1.2.7-2a6.821,6.821,0,0,1,1.2-2.6c3.5-1,4.2-4,5.8-6.3.9-1.4,1.4-3.3,3.7-2.9.9,2.4,1.8,4.5,2.7,7C721.3,444.9,722,447.1,722.8,449.2Z" fill="#a0cb99"/>
      <path id="Pfad_667" d="M698.6,459.8c-4.7,4.1-9.6,8-14.1,12.4-2.9,2.9-5.2,6.5-7.6,9.8a88.891,88.891,0,0,0-4.5,7.9c-4.2,7.7-11.3,11.7-19,14.7a195.548,195.548,0,0,1-19.6,6.5c-6.3,1.7-12,5.2-18.3,7.3-7.9,2.7-13.9,8.6-21,12.5a107.251,107.251,0,0,0-14.1,9.3,123.22,123.22,0,0,0-13,12c-3.8,4-7.1,8.3-10.5,12.5-.5.6-.8,1.5-1.3,1.9-6.9,5.5-13.8,10.9-21,15.9,1.9-7.4,5-13.9,10.6-19a71.384,71.384,0,0,0,5.6-5.4c.9-1.1,1.3-2.8,1.9-4.2,2-2.5.5-4.6-1.2-6.2-2.8-2.6-8.8-2.5-11.9-.5-2.6,1.8-5.5,3.3-8.2,4.8-2.4,1.3-3.5.3-3.6-2.8.3-.8.6-1,1.2-1.1,1.1-.7,1.9-1.3,2.9-1.9,4.3-2.9,9.2-5.1,11.4-9.6,1.9-3.8,4.7-5.9,8-7.9,3.5-2.2,7.1-4.3,10.7-6.3,7.5-4.3,9.5-8,8.6-15.8,5.2-3.3,10.2-6.4,15.5-9.6,7.7-4.1,14.8-8.4,22.3-12.2,7.2-3.6,14.6-6.7,22.2-10,6.6-3,13-5.6,18.9-9,9.8-5.5,18.6-12.5,27.4-20,2.3-2.1,4.4-4,6.3-6,1.3-1.3,2.5-2.9,4.9-2.3,1.4,3,2.7,5.7,4,8.8C694.1,450.8,696.3,455.4,698.6,459.8Z" fill="#422f15"/>
      <path id="Pfad_668" d="M272.1,684.4c4,.1,7.7-1.7,11.4,0,4.6-2.1,9.3-1.2,14,0,1.2.3,2.5-.3,3.8-.5,2.5-.4,5-.9,7.5-1.4,1.1-.3,2.5-.2,3.2-.8,3.2-3,6.8-2,10.4-1.7a36.564,36.564,0,0,0,8.1,0c8.5-1.4,17-3.1,25.6-3.3,1.3,2,2.6,3.9,4.2,6.2a18.051,18.051,0,0,1-3.7,2.4c-8.6,3.2-16.7,7.2-25.8,9-4.3.8-8.4,3-12.6,4.3a154.925,154.925,0,0,1-16.3,4c-12.5,2.4-24.8,4.6-37.4,6.7-4,.7-8,.8-11.9,1.2a14.56,14.56,0,0,1-8.2-1.8c-1.9-1-4.6-.8-6.9-.5-5.6.8-11,2.3-16.6,2.8-6.1.5-12.2,1.9-18.6.8-5.5-.9-11.2-1.8-17.2-.6-5.8,1.2-12,.3-18.1.5-2.2.1-4.5.8-6.6.7-6.9-.2-13.8-.6-20.7-.9a3.476,3.476,0,0,1-3.6-3.4,3.407,3.407,0,0,1,.9-2.4,7.343,7.343,0,0,1,3.4-2.4c5.7-2,11.4-4.3,17.7-4.5,2.6-.1,5.1-1.9,7.7-2.4,8-1.5,16.1-3.7,24.2-1.3,5.4,1.6,10.5.6,15.7-.3,6.7-1.1,13.4-3.2,20.1-4.5,7.1-1.3,14.2-2,21.4-2.9,6.5-.8,13-1.7,19.5-2.4C268.4,684.8,270.3,684.5,272.1,684.4Z" fill="#4b3514"/>
      <path id="Pfad_669" d="M97,758c-1.7,0-3,0-4.3-.1a4.007,4.007,0,0,1-4.1-3.4c-.4-2.1.7-3.1,2.4-4.2,5.2-3.3,11.2-4.6,16.9-6.7,8.1-3,16.2-6,24.5-8.4,8-2.4,16.1-5,24.2-5.9,11.4-1.3,22.7-3.5,34.2-5a95.373,95.373,0,0,1,27.2.9c1,.2,2.5,1,2.5,1.6a4.075,4.075,0,0,1-1.4,3c-8.5,7.7-18.6,12.1-29.8,14.8-6.1,1.4-11.7,4.4-17.6,6.5-2.4.8-5,1.3-7.4,2-4,1.2-7.9,2.5-11.9,3.8-1.2.4-2.4,1.1-3.7.9-4-.3-7.6,1.3-11.3,2.2-5.7,1.4-11.5,2.5-17.3,3.6a5.74,5.74,0,0,1-2.9-.2C110.7,761.7,104.1,759.8,97,758Z" fill="#4b3514"/>
      <path id="Pfad_670" d="M552.1,553.9a8.864,8.864,0,0,1-1.5,4.2,57.339,57.339,0,0,1-5.6,5.4c-5.6,5.1-8.8,11.6-10.9,19.1-.1.7-.3.9-1.1,1.3a15.938,15.938,0,0,0-2.9,1.5c-1.1.8-1.9,2.1-3.1,2.6-2.3.9-2.7,2.5-2.5,4.6a24.768,24.768,0,0,1-2.6,1.9c-1.2,0-2.2-.4-2.9-.1a62.107,62.107,0,0,0-12.6,7.6c-3.5,2.7-7.9,4.1-11.4,6.9-4.9,3.9-9.9,7.5-13.7,12.6a147.1,147.1,0,0,1-9.5,11.4c-6.9,7.6-15.1,13.7-26,15-1.9.3-3.8,1.7-5.6,2.6a22.052,22.052,0,0,1-5.1,1.8,3.583,3.583,0,0,1,.9-2.4c8.1-5.8,16.2-11.5,24.2-17.4,2.4-1.7,5.6-2.7,6.6-6.1,3.3-2.6,6.1-5,9.2-7.4,4.9-3.9,10-7.5,14.8-11.4,8.5-7,16.9-14.1,25.4-21.3.9-.8,1.7-1.9,2.6-2.8,1.8-1.8,3.4-4,5.4-5.3,5.5-3.5,9.6-8.4,14.3-12.6.6-.5.8-1.4,1.3-2.8a17.483,17.483,0,0,0-8.2,2.8c-2.4,1.6-5,2.9-7.4,4.5-6,3.7-12,7.2-17.8,11.2-5.3,3.5-10.2,7.7-15.6,11.2a54.8,54.8,0,0,0-13.9,12.4c-4,5.1-8.5,9.9-12.9,14.9-2.7,3-5.5,5.8-8.6,8.8a15.279,15.279,0,0,0-3,1.9l-15.6,13.2a5.291,5.291,0,0,1-2.1,1.1c-5.9,1.7-9.9,6.2-14.8,9.4a43.462,43.462,0,0,0-4.1,3.4c1.3.8,2.4,1.8,3,1.6,4.4-1,8.8-1.9,12.5-4.7a17.4,17.4,0,0,1,3.3-1.8c-.5.9-.8,2.2-1.5,2.9-4.6,4.3-10.1,7.2-15.9,9.6-2.9,1.2-5.3,1.1-7.5-1.3a6.023,6.023,0,0,1,0-7.6c3.5-4.2,6.9-8.5,11-12,5.6-4.8,11.6-8.9,17.6-13.2,4.1-2.9,8.4-5.7,12.7-8.6.5-.3,1.3-.7,1.5-1.1,1.8-4.5,5.9-7.2,9-10.5,6-6.5,12.1-12.9,18.2-19.3.8-.8,1.5-1.9,2.4-2.3,5.4-1.7,8.2-6.9,13-9.4,2.4-1.3,4.1-3.5,6.3-5.2,4.7-3.5,9.4-7,14.2-10.5,1.2-.8,2.6-1.3,3.6-2.4,3.8-3.5,8.8-4.5,13.3-6.5a7.512,7.512,0,0,1,3.3-.4c3.2-.1,6.3-.1,9.4-1.4C547,552.8,549.5,553.8,552.1,553.9Z" fill="#493415"/>
      <path id="Pfad_671" d="M485.3,557.8a15.937,15.937,0,0,1,1.3,1.3q.3,3.45.3,6.9a7.183,7.183,0,0,1-5.4,7.1,4.424,4.424,0,0,1-3.2-.3c-4.8-4.2-10.6-7.6-12.4-14.3-1.5-5.7-2.9-11.4-4.1-17.2-1.1-5.1-2.6-10.4-2.4-15.6.3-10.4-3.7-20.5-2.4-31,1.1-8.4.3-17,2.5-25.3a20.749,20.749,0,0,0,.3-4.3c.3-7.2.3-14.5,1.2-21.6.4-3.5,2.4-7,4.3-10.1,4.2-7,8.5-13.9,13.1-20.6,2-2.9,5-5.4,7.4-8.1a14.638,14.638,0,0,0,3.2-4.2c3.1-7,8.7-12.3,12.9-18.5.3-.5,1-.9,1.2-1.5,1.3-6.3,6-10.9,8.8-16.4a11.547,11.547,0,0,0,1.1-3.6,143.1,143.1,0,0,1,5-21.3,8.866,8.866,0,0,0,.7-2.8c-.4-4.4,1.5-8.2,3.4-11.9a9.669,9.669,0,0,0,.7-7.8c-.7-2-.3-4.3-.4-6.5-.2-3.4-.2-6.6-.5-10a38.184,38.184,0,0,0-1.2-6.6,17.551,17.551,0,0,0-2.4-4.2c-.8-2.9,1.3-4.3,3.7-6.3,1.8,2.8,3.4,5.3,5.2,8.3a57.026,57.026,0,0,1,1.4,26.3c-.8,4.7-1.4,9.4-2.4,14.4-1.1,4.3-1.9,8.3-2.9,12.5-2.8,4.6-2.9,10.1-6,14.3a1.613,1.613,0,0,0-.3.9,98.524,98.524,0,0,1-3.4,10.9c-2.1,5.3-4,10.8-8,15.1-1.9,2.1-3.5,4.5-5.6,6.9a34.2,34.2,0,0,0-7.6,8.9c-4.7,8-10.5,15.3-15,23.4a96.643,96.643,0,0,0-8.8,21.3c-2.2,8-2.8,16.3-4.1,24.8a4.216,4.216,0,0,1-.3,1.9c-1.1,4-2.3,7.7-1.3,11.6.2.8-.3,1.9-.5,2.8a53.908,53.908,0,0,0-.8,5.6c.3,8.9-.3,17.9.7,26.9.7,6.6,1.4,13,3.6,19.2a94.94,94.94,0,0,0,5.4,12.7,83.471,83.471,0,0,0,5.8,8.8c.6.8,1.8,1.8,2.5,1.7a3.155,3.155,0,0,0,2.1-2.1C482.1,558,483.5,557.8,485.3,557.8Z" fill="#2f2012"/>
      <path id="Pfad_672" d="M265,670.8a24.209,24.209,0,0,1,.8-7.1c5.2-17.7,11.9-34.6,24.1-48.8,4.3-5,8.2-10.2,12.5-15.2a43.557,43.557,0,0,1,4-3.5c1.3,5-.2,9.3-.8,13.4-2.9,17.9-9.7,34.5-17.2,50.9-1.3,2.9-3.5,5.3-5.6,8.2-3.4.9-6.9,1.6-10.4,2.2C269.9,670.9,267.5,670.9,265,670.8Z" fill="#9abd59"/>
      <path id="Pfad_673" d="M308.4,664.2a141.372,141.372,0,0,1,4.4-17c5.3-14.9,13.4-28.4,21.6-41.8,2.9-4.8,5.9-9.5,8.9-14.3.8-1.3,1.8-2.5,2.7-3.8a4.876,4.876,0,0,1,1.1.8c-.3,11.9-.8,24-4.2,35.6-1.3,4.3-3.3,8.3-5,12.8a44.48,44.48,0,0,1-7.3,0,16.369,16.369,0,0,0-1,3.8c-.2,2.1.1,4.2-.2,6.2-.8,5.6-3.1,10.6-8.4,13.1A127.751,127.751,0,0,1,308.4,664.2Z" fill="#9abd59"/>
      <path id="Pfad_674" d="M511.2,542.6c4-2.9,8-5.8,12.2-8.3,8.5-5.1,17.2-10,25.7-15.1,6.7-4,13.5-8.2,20.4-12.4,1.5,7.5-.5,11.3-8,15.6-3.6,2-7.2,4.2-10.7,6.3-3.3,2-6.1,4.1-8,7.9-2.2,4.5-7.1,6.7-11.7,9.7a12.132,12.132,0,0,0-2.9,1.9,1.085,1.085,0,0,0-.8.8,105.682,105.682,0,0,1-9.1,5.6,88.287,88.287,0,0,1-9.9,4.5c-3,1.2-5.2-.3-5.1-3.4a12.074,12.074,0,0,1,2.1-6.1c1.2-1.8,3.3-2.9,4.9-4.5A6.316,6.316,0,0,0,511.2,542.6Z" fill="#4b3514"/>
      <path id="Pfad_675" d="M514.5,600.5a4.968,4.968,0,0,1-1.3,1.9A3.278,3.278,0,0,1,514.5,600.5Z" fill="#3b2a14"/>
      <path id="Pfad_676" d="M307.4,664.8c-.1-.2,0-.4.4-.6C308,664.4,307.8,664.7,307.4,664.8Z" fill="#9abd59"/>
      <path id="Pfad_677" d="M311.8,172a3.553,3.553,0,0,1-.2-1,1.884,1.884,0,0,0,.8.2A2.1,2.1,0,0,1,311.8,172Z" fill="#9abe57"/>
      <path id="Pfad_678" d="M329.2,390.7l.2-.4A.759.759,0,0,1,329.2,390.7Z" fill="#9abe57"/>
      <path id="Pfad_679" d="M698.8,459.9a136.791,136.791,0,0,1-6.7-13.9c1.9-2.3,3.9-4,5.3-6,4.4-6.4,8.5-13,12.8-19.5,1.2-1.8,2-4.1,5-3.5.7,3.7,1.2,7,1.7,10.8.3,2.7.6,5,.9,7.4-2.2,0-2.7,1.9-3.6,3.3-1.5,2.3-2.4,5.3-6.1,6.1a32.823,32.823,0,0,1-3.8-2.7c-1.9,1.1-3.6,2.2-2.5,4.1.5,1,2.6,1.2,4,1.7a3.3,3.3,0,0,0,1.4,0c-.2.6-.1,1.4-.5,1.8a20.4,20.4,0,0,0-5.7,10.1c-.1.3-.5.3-1.1.6A2.016,2.016,0,0,1,698.8,459.9Z" fill="#adca71"/>
      <path id="Pfad_680" d="M524.7,592.5a3.569,3.569,0,0,1,2.2-4.5c1.2-.5,2.1-1.8,3.1-2.6a8.671,8.671,0,0,1,2.7-1.4,13.587,13.587,0,0,1-2.6,4.1A33.415,33.415,0,0,1,524.7,592.5Z" fill="#422f15"/>
      <path id="Pfad_681" d="M229.5,765.7c.1.2-.2.5-.6.8C228.9,766.2,229,766,229.5,765.7Z" fill="#291c10"/>
      <path id="Pfad_682" d="M723.1,449.4a43.453,43.453,0,0,1-2.4-7.2c3.5-5.1,6.7-9.7,10.3-14,6.4-7.5,13.2-14.6,18.3-23.1,2.2-3.6,4.5-7.2,6.8-10.8,1-1.6,2.4-3.2,2.7-5,.8-4.3,4-6.7,6.5-9.8.8-.9,2.5-1,4-1.1.3,2.1.3,3.8.6,6.2,4.9-3.6,9.1-6.6,8.5-13a10.448,10.448,0,0,1,.6-4.3c2.4,1,4.1.8,6-.8,4.1-3.8,8.6-7.1,12.6-10.9,8.9-8.5,17.2-17.8,26.7-25.6,3.5-2.9,7.2-5.9,10.7-8.8,1.3-1.1,3.1-1.9,3-4,2.8,2.5,5.2,5,7.7,7.4-.7.8-1.4,1.5-2.5,2.7-2.9,2.7-5.6,4.9-8.2,7.2-.6.3-1.1.6-1.6.9-6.9,6.6-13.8,13.1-20.8,20-.8.9-1.6,1.5-2.3,2.2-16.3,16.2-32.7,32.2-48.7,48.7-5.9,6.1-10.9,13-16.7,19.9-2.2,2.7-4,5-5.6,7.3-4.6,6.6-9.3,13.1-13.9,19.6C724.6,451.8,723.9,450.6,723.1,449.4Z" fill="#160b07"/>
      <path id="Pfad_683" d="M944.4,239.9c-2.4,8.5-8.2,13.7-16.1,17.5-7.1,3.5-13.6,7.8-20.4,11.7a36.292,36.292,0,0,1-8.3,3.7c-8,2.4-16.1,4.5-24.9,6.7-3.3-.1-5.7.3-8.1-.2a144.984,144.984,0,0,1-16.2-3.2,36.394,36.394,0,0,1,7.2-2.6c2.9-.7,5.3-1.8,6.5-4.9.8-1.9,2.4-3.4,3.5-5,2.2-3.3,5-6.3,5.5-10.5,3,.1,5.6.2,8.6.3,3.8-.9,7.2-1.6,10.5-2.7,8.7-2.9,17.2-6.2,25.9-9.1s17.5-5.2,26.9-4.5a10.871,10.871,0,0,1,.1,1.8s0-.1-.2.1C944.4,239.3,944.3,239.5,944.4,239.9Z" fill="#90c1e9"/>
      <path id="Pfad_684" d="M923.7,199.2c3.4,3,7.1,6,10.4,9.2,4.2,4.1,6.9,9.3,9.2,15.3a50.293,50.293,0,0,1,1.1,9.5c-7.7,1.3-14.9,2.5-22.1,4-10.6,2.1-20.3,6.9-30.3,10.9-3.5,1.3-7.2,2.3-11.2,3.4a23.553,23.553,0,0,1-4.6-1c1.9-2.7,3.5-5.3,5.4-7.8a28.1,28.1,0,0,1,2.9.1c2.1.3,3.9,1,5.6.9,11.9-.7,21.3-5.7,28.1-15.6,5.6-8.2,5.8-16.8,3.3-26-.3-1.2.3-2.6.5-4a.367.367,0,0,0,.1.3A2.449,2.449,0,0,0,923.7,199.2Z" fill="#90c1e9"/>
      <path id="Pfad_685" d="M845.9,324.8c-2.8-2.5-5.2-5-8-7.7a22.845,22.845,0,0,1-2.2-2.2,46.155,46.155,0,0,0-5-3.7c-7.6-2-14.8-3.7-22-5.6.1-.3.2-.7.5-.7,7.2-2,13.8-4.9,21-5.3a64.221,64.221,0,0,0,9.7-2c.2.1.5.3.7.4a7.461,7.461,0,0,0,1.2.7c1.4.9,2.9,1.9,4.7,3,2.2,1.2,3.9,2,5.8,3.2,1.9,2.6,3.6,4.9,5.3,7.2a48.29,48.29,0,0,0,2.3,5.2,5.058,5.058,0,0,0,5,2.9,17.307,17.307,0,0,1,8.6,2.3c-2.4,4-5.4,6.6-9.8,6.9a44.131,44.131,0,0,1-10.9-.7C850.4,328.2,848.3,326.2,845.9,324.8Z" fill="#78ccee"/>
      <path id="Pfad_686" d="M921.7,197.8c-.1,1.6-.7,3-.3,4.2,2.5,9.2,2.4,17.8-3.3,26-6.8,9.9-16.2,14.9-28.1,15.6a15.769,15.769,0,0,1-5.6-1.3,35.215,35.215,0,0,1,3-8.8c4.1-.8,7.9-1.4,11.5-2.4,8.8-2.5,18-14.6,14.2-26-1.3-4-3.4-7.8-4.9-11.9,2.1-.8,4-1.5,5.7-2.3a.55.55,0,0,1,.3.5l.3.6h.4c.1.1.2.3.3.4a22.029,22.029,0,0,0,3.2,2.1C919.5,195.6,920.5,196.5,921.7,197.8Z" fill="#78b6e5"/>
      <path id="Pfad_687" d="M850.1,276.6c5.5,1,10.9,2.1,16.3,2.9,2.5.2,5.1.2,7.7.2-4,2.3-8.4,4.5-12.9,6.6-7.1,3.5-14.1,6.9-21.6,10.4a15.739,15.739,0,0,1-3.8-4.7,70.6,70.6,0,0,0,8.9-14,22.654,22.654,0,0,1-5.2-.9,14.638,14.638,0,0,1,5-1.2C846.7,276.2,848.4,276.4,850.1,276.6Z" fill="#79b5c7"/>
      <path id="Pfad_688" d="M835.6,292.1c1.2,1.5,2.4,3,3.9,4.8.3.3.3.3.3.4-3.2.8-6.4,1.9-9.7,2.1-7.2.5-13.8,3.3-21.1,5.2a1.428,1.428,0,0,1-.7-.3v-.8c3.5-5.6,6.7-10.9,10.5-16.3C825.4,286.8,830.6,289.2,835.6,292.1Z" fill="#98cdb5"/>
      <path id="Pfad_689" d="M857.8,311.6a37.522,37.522,0,0,1-5.3-7.1,44.741,44.741,0,0,1,4.5-4.2c1.5-1.4,3.3-2.8,3-5.2,2.1-.8,4.1-1.8,6.2-2.4.8-.3,2.4-.2,2.5.3a4.423,4.423,0,0,1,.1,3,9.858,9.858,0,0,1-1.3,2.5C864.2,302.7,861.1,306.9,857.8,311.6Z" fill="#2f2012"/>
      <path id="Pfad_690" d="M859.5,295.1c.6,2.4-1.2,3.8-2.7,5.2-1.4,1.3-2.9,2.4-4.6,4a27.308,27.308,0,0,1-5.5-2.5C850.9,299.4,855,297.2,859.5,295.1Z" fill="#543a18"/>
      <path id="Pfad_691" d="M918.5,194.4a9.679,9.679,0,0,1-3.1-1.8,5.679,5.679,0,0,1,2.2.7A2.012,2.012,0,0,1,918.5,194.4Z" fill="#98cdb5"/>
      <path id="Pfad_692" d="M923.5,199a2.271,2.271,0,0,1-1.6-.6A2.452,2.452,0,0,1,923.5,199Z" fill="#78b6e5"/>
      <path id="Pfad_693" d="M944.5,239.7c-.3-.2-.1-.4.3-.8C944.9,239.1,944.9,239.4,944.5,239.7Z" fill="#fcfdf8"/>
      <path id="Pfad_694" d="M841.6,298.3c-.2.1-.5,0-.8-.3C840.9,297.8,841.2,297.9,841.6,298.3Z" fill="#98cdb5"/>
      <path id="Pfad_695" d="M761.8,474.6c-7.2-2.3-12.6-6.8-15.5-13.9-1.3-3.4-1.6-7.2-2.4-10.7-1.4-6.2.4-11.9,2.1-17.8.4-1.3.9-2.7,1.4-4.3a29.483,29.483,0,0,0,2.5-2.5c4.1-6.6,10.5-9.2,17.8-10.3,4-.6,8-.9,12-1.2,11.5-.7,19.5,5.4,25.8,14.1,6.4,8.9,8.3,19.1,6.8,29.8a26.072,26.072,0,0,1-3.4,8.9c-4,7.5-9.4,13.8-17.5,17.9a61.331,61.331,0,0,1,5.6-6.8,34.672,34.672,0,0,0,10.4-14.1c3.2-8.2,2.7-16.5.4-24.6-3.3-11.5-10.9-18.8-22.7-21.7-7.7-1.9-15.3.2-23,.5-.8,0-1.4,1.2-2.4,1.8-5.9,2.9-9.9,7.2-11.9,13-2.9,8.8-3.3,17.8.2,26.8,2.3,5.9,6.1,10.3,12.1,12.2,9.7,3.1,17.9,0,25.4-6.8,3.5-2.4,4.5-5.7,4.5-9.4v-4.8c-.1-9.5-7.4-16.3-16.8-15.6-2.9.3-5.8.8-7.7,3.8-3.3.9-2,4.1-3.9,5.8-.6,0-.8,0-1-.3.6-5,2.4-9,7.2-10.1a44.169,44.169,0,0,1,10.9-.8,11.329,11.329,0,0,1,5.4,1.6c7.3,4.6,10.7,15.6,7.6,23.7-3.6,9.5-11.3,13.4-20.6,14.8C768.2,474.1,765,474.3,761.8,474.6Z" fill="#57c4f2"/>
      <path id="Pfad_696" d="M760.3,419.7c.7-.6,1.4-1.7,2.1-1.8,7.7-.3,15.2-2.4,23-.5,11.8,2.9,19.5,10.2,22.7,21.7,2.3,8.1,2.8,16.4-.4,24.6a31.585,31.585,0,0,1-10.3,13.9c-4-1.5-5.5-4.3-4.9-8.8,1.9-5.3,3.9-9.9,5.6-14.8a15.15,15.15,0,0,0,.7-5.6c-.8-6.6-4.3-12.2-8.8-16.7-3.5-3.5-8.1-6.1-13.5-5.3-3.9.6-7.7,1.9-11.4,2.4-.9-1.5-2-2.6-2.7-4a38.809,38.809,0,0,1-1.4-4.5A4.341,4.341,0,0,0,760.3,419.7Z" fill="#78cdf4"/>
      <path id="Pfad_698" d="M787.3,470.7a24.957,24.957,0,0,0,8.2-14.9c1.4-7.7-.1-15-6.1-20.9-6.6-6.4-16.8-6.7-22.8-4.2-6.1,2.6-10.9,12.1-8.8,19.5a22.609,22.609,0,0,0,5.9,10.4,3.584,3.584,0,0,1-2.8-.8c-4.4-5-6.9-10.9-5.3-17.6,1.3-5.5,3-11.2,9.3-13.3,3.8-.9,7.6-2.2,11.4-2.8,5.4-.8,9.9,1.9,13.5,5.3,4.5,4.5,8.1,10,8.8,16.7a11.9,11.9,0,0,1-.7,5.6c-1.8,4.8-3.8,9.5-5.9,14.6a14.115,14.115,0,0,1-4,2.9C787.8,471.3,787.4,471.1,787.3,470.7Z" fill="#57c4f2"/>
      <path id="Pfad_699" d="M787,470.9a8.344,8.344,0,0,1,1.2.8c-.8,1.9-2.2,2.4-4.3,1.4A9.73,9.73,0,0,1,787,470.9Z" fill="#78b6e5"/>
      <path id="Pfad_700" d="M769.2,378.1c-1.3.5-3.1.6-3.9,1.5-2.4,3.1-5.7,5.6-6.5,9.8-.3,1.8-1.7,3.4-2.7,5-2.3,3.6-4.6,7.2-6.8,10.8-5.1,8.5-12,15.7-18.3,23.1-3.6,4.3-6.8,8.8-10.3,13.6a52.393,52.393,0,0,1-2.9-6.4,49.93,49.93,0,0,1-.6-7.7c1.9-1.9,4.1-3.1,5.1-5,5.2-9.3,12.5-16.8,19.4-24.8,4.2-4.8,8.3-9.6,12.5-14.4,2.2-2.5,4.5-4.9,6.7-7.4a23.484,23.484,0,0,0,1.9-2.5,13.159,13.159,0,0,1-2.9-1.9,33.463,33.463,0,0,1,6.3-.5c.6,0,1.1,1.1,1.8,1.9.3.5.6.8,1,1.4A10.334,10.334,0,0,1,769.2,378.1Z" fill="#2f2012"/>
      <path id="Pfad_701" d="M707.2,447.4a2.059,2.059,0,0,1-1.5.3c-1.3-.5-3.5-.7-4-1.7-1-1.9.8-3,2.5-4.1,1.1.8,2.1,1.7,3.5,2.7A5.386,5.386,0,0,1,707.2,447.4Z" fill="#e4e488"/>
      <path id="Pfad_702" d="M856,184.8c1.7.3,3.4.7,5.4,1a12.049,12.049,0,0,1,4.1,2,67.309,67.309,0,0,1-5.2,10.4c-5.1,8.3-10.4,16.6-15.7,24.8-9.3,14.6-18.6,29.2-27.6,44-2.1,3.5-4,5.1-8,3.8a7.484,7.484,0,0,0-2.6.1c1.9,1.3,3.4,2.4,5.4,3.8-1.5,2.6-2.9,5.1-4.5,7.5-3,4.9-6.1,9.8-9.1,14.6-.3.5-.2,1.3-.5,1.8a52.079,52.079,0,0,1-7.2-6c3.5-5.5,7-10.7,10.3-16,1.2-1.9,2.1-4,0-6.4.1-.8.1-1.1.5-1.5,1.9-.1,3.3-.2,4.2-.2,4.7-8.1,9.1-15.8,13.8-23.3,6.1-9.7,12.5-19.2,18.8-28.8a6.71,6.71,0,0,0,.6-2.8c2.3-1.1,1.8-3.1,2.3-5.4.8-.5,1.5-.4,1.7-.7,1.4-2.3,2.6-4.6,4-6.8,2.3-3.5,4.8-7,7-10.6A42.338,42.338,0,0,0,856,184.8Z" fill="#b4cf65"/>
      <path id="Pfad_703" d="M797.9,298.8c.1-.7-.1-1.4.3-1.9l9.1-14.6c1.5-2.4,2.9-4.9,4.5-7.5-2-1.4-3.5-2.5-5.4-3.8a7.583,7.583,0,0,1,2.6-.1c4,1.3,5.9-.3,8-3.8,9-14.8,18.3-29.4,27.6-44,5.2-8.2,10.5-16.5,15.7-24.8,1.9-3.2,3.6-6.6,5.5-10.3a2.966,2.966,0,0,1,2.7.8,7.381,7.381,0,0,1-.8,3.2c-4.4,4.9-7.6,10.4-8.1,17.1-.3,3.1.3,6.3.2,9.5-1.1.7-2,1.1-2.4,1.9-9.8,15.5-19.8,31-29.5,46.6-1.3,1.9-1.8,4.4-2.9,6.6a4.217,4.217,0,0,1-1.9-.3c-2.2-.8-4.1-1.1-6.5.3,2.2.9,3.8,1.7,4.7,2.1a36.521,36.521,0,0,1-2.2,6.6c-2.3.1-4,.2-5.9.3a4.146,4.146,0,0,0,1.9,2.4c1.2.8,2.4,1.3,3.5,2.1-3.4,5.3-6.6,10.6-10.4,16.2C803.8,303.2,800.9,301,797.9,298.8Z" fill="#a9cd82"/>
      <path id="Pfad_704" d="M859.9,218.5c-.2-3.2-.8-6.4-.5-9.5.6-6.6,3.7-12.2,8.1-17.1a7.907,7.907,0,0,0,1.1-2.9c.6-.4,1.3-.3,1.9-.7,4.2-2.9,9-4.4,14-5.6a14.764,14.764,0,0,0,2.9-1.2,2.506,2.506,0,0,1,1.9.5,6.544,6.544,0,0,0-2.8,4.5c-6.5.5-10.8,4.2-14.3,8.5-2,2.4-4.2,4.9-4.7,8.6-.8,6.2-.6,12.1,1.9,17.8-3,.1-4.4,2-5.9,3.8C862.2,223,861,220.8,859.9,218.5Z" fill="#95be71"/>
      <path id="Pfad_705" d="M715.1,416.7c-2.9-.3-3.7,2-4.9,3.9-4.3,6.5-8.4,13-12.8,19.5a31.885,31.885,0,0,1-5.4,5.6,71.819,71.819,0,0,1-4.2-8.3,12.8,12.8,0,0,1-.7-3.9c4.9-7.1,9.7-13.6,14.1-20.5,4.2-6.6,7.7-13.5,13.1-19.4,1-1.2,1.1-3.2,1.9-5a4.887,4.887,0,0,1,1.8-1.4c-.3,1.9-.7,3.5-.8,5-.5,4.4-.8,8.8-1.4,13.5A85.546,85.546,0,0,0,715.1,416.7Z" fill="#bbcf48"/>
      <path id="Pfad_706" d="M528.7,548.2a7.1,7.1,0,0,1,2.3-1.9A10.105,10.105,0,0,1,528.7,548.2Z" fill="#433015"/>
      <path id="Pfad_707" d="M477.9,462.1c-.3,4.5-.8,9.2-1,14.1-.3,3.4-.6,6.3-.8,9.3-.2,1.9-.1,3.8-.2,6.6a147.122,147.122,0,0,0,2.4,28.9l2,14.1a107.621,107.621,0,0,1,1.3,12.6c-7,.4-7,.4-8.8-6-1.3-4.5-2.9-9.1-3.9-13.8-1.7-7.7-3.9-15.3-4.2-23-.4-9.7-1.5-19.5,1.2-29.1a2.394,2.394,0,0,0-1.3-3.1c-.1,0-.1,0-.2-.1a4.672,4.672,0,0,1,.3-1.7,9.13,9.13,0,0,0,1.5-2.3c2.9-9.8,5.7-19.6,8.8-29.4a66.254,66.254,0,0,1,2.9-6c1.9-4.4,3.9-8.8,5.7-13.1a34.778,34.778,0,0,1,2.1-4.8c3.2-4.8,6.7-9.3,9.8-14.2,1.7-2.8,4.4-5.1,4.5-8.8,1.8-2.3,3.4-4.6,5.3-6.8,4-4.4,5.8-9.8,8-15.1,1.4-3.5,2.3-7.3,3.4-10.9l.3-.9c3.1-4.2,3.2-9.6,6-13.8.5,8-1.3,15.5-3.4,22.9-2.6,9.2-7.3,17.4-12.4,25.4-4.9,7.7-10.5,15-15.5,22.6-3.1,4.8-6.9,9.7-8.2,15.1C481,441.2,479.8,451.7,477.9,462.1Z" fill="#150a07"/>
      <path id="Pfad_708" d="M464.3,473.1A2.1,2.1,0,0,1,466,476c-2.7,9.6-1.6,19.4-1.2,29.1.3,7.7,2.5,15.4,4.2,23,1,4.6,2.5,9.2,3.9,13.8,1.9,6.4,1.9,6.4,8.8,6.4a60.819,60.819,0,0,1,3.4,9.3c-1.6.4-3,.7-3.4,2.9-.2.8-1.3,2.1-2.1,2.1-.8.1-1.9-.8-2.5-1.7a74.281,74.281,0,0,1-5.8-8.8,100.816,100.816,0,0,1-5.4-12.7c-2.2-6.2-2.9-12.6-3.6-19.2-.9-9-.4-17.9-.7-26.9a21.047,21.047,0,0,1,.8-5.6c.2-.9.8-1.9.5-2.8C462,480.7,463.2,477,464.3,473.1Z" fill="#23160d"/>
      <path id="Pfad_709" d="M455.8,628.4c2.8-2.9,5.6-5.8,8.2-8.8,4.4-4.9,8.8-9.8,12.9-14.9a56.766,56.766,0,0,1,13.9-12.4c5.4-3.5,10.3-7.7,15.6-11.2,5.8-3.9,11.9-7.5,17.8-11.2,2.4-1.5,5-2.9,7.4-4.5a16.762,16.762,0,0,1,8.2-2.8,12.5,12.5,0,0,1-1.3,2.8c-4.8,4.2-8.8,9.2-14.3,12.6-2.1,1.3-3.6,3.5-5.4,5.3-.9.9-1.7,1.9-2.6,2.8-8.4,7.2-16.8,14.3-25.4,21.3-4.8,4-9.9,7.6-14.8,11.4-3,2.4-5.9,4.9-9.5,7.5a63.3,63.3,0,0,0-6.1,3.9C457.8,632,456.8,631.6,455.8,628.4Z" fill="#543a18"/>
      <path id="Pfad_710" d="M455.5,628.5c1.3,3.1,2.3,3.5,4.8,1.8,1.8-1.3,3.7-2.4,5.9-3.7-.5,3.4-3.6,4.3-6,6-8.1,5.9-16.2,11.6-24.2,17.4a6.983,6.983,0,0,0-1.3,2.4c0,.3-.1.3,0,.3a27.9,27.9,0,0,0-3.3,1.9c-3.7,2.8-8.1,3.7-12.5,4.7-.8.2-1.7-.8-3-1.6,1.8-1.4,2.9-2.5,4.1-3.4,4.9-3.2,8.9-7.8,14.8-9.4a5.291,5.291,0,0,0,2.1-1.1l15.6-13.2A10.185,10.185,0,0,1,455.5,628.5Z" fill="#4b3514"/>
      <path id="Pfad_711" d="M500,392.7c.2,3.5-2.5,5.8-4.2,8.6-3,4.9-6.6,9.4-9.8,14.2a34.784,34.784,0,0,0-2.1,4.8c-1.9,4.4-3.8,8.8-5.7,13.1-.9,2-2.3,3.9-2.9,6-3,9.8-5.8,19.6-8.8,29.4a4.26,4.26,0,0,1-1.5,2c.9-8.1,1.6-16.5,3.8-24.5a101.724,101.724,0,0,1,8.8-21.3c4.5-8.1,10.2-15.5,15-23.4A31.688,31.688,0,0,1,500,392.7Z" fill="#23160d"/>
      <path id="Pfad_712" d="M714.2,250.6c3-3.5,5.9-6.6,9.3-10.3a123.91,123.91,0,0,1,36.8-26.1c6.2-2.9,12.6-5.5,20-5.5a19.806,19.806,0,0,0,3.3-.8,1.7,1.7,0,0,1,1,0c.7.3,1.3.7,1.3,1-.5,4.9-1.1,9.7-5.4,13a5.111,5.111,0,0,0-1.9,3.1c-.3,3.5-2.4,6.1-4.4,8.8a30.527,30.527,0,0,0-5.6-.7c-3,.3-4,2.2-3.1,5,.8,2.8,2.8,3.3,5,3.6-.3.7-.4,1.2-.6,1.2-5.2-.1-7.6,3.3-9,7.7a9.738,9.738,0,0,1-1.5,2.4c-4,6-8.1,11.9-12,17.9-3.5,5.2-7,10.4-10,15.8a187.322,187.322,0,0,1-14,22.1c-4.6,6.3-8.8,13-13.1,19.5-.7,1.1-1.2,2.3-1.9,3.4-4.4,7.1-8.7,14.1-13.1,21.1-2.4,3.9-6,7.3-5.5,12.5-5.2.2-5.4.3-5.3,5.6-2.4,3.8-4.4,7.5-6.6,11a5.786,5.786,0,0,1-3.1,2c-.3-4.1-.8-7.8-.8-11.4,0-5,.5-9.9.8-14.9.1-1.8.1-3.5.3-5.3.5-6.1,1.1-12.1,1.7-18.2l.3-.3a50.4,50.4,0,0,0,.7-5.6,4.711,4.711,0,0,1,.4-1.7,48.713,48.713,0,0,0,1.5-6.1,6.889,6.889,0,0,1,.3-.8c.4-.7.5-.9.4-1.3,1.3-5.1,2.4-10.3,4.1-15.3a179.835,179.835,0,0,1,7-19,120.308,120.308,0,0,1,9.5-16.2c4.4-5.5,8.8-11.1,13.2-17.2m32.3-9.8c-1.2.9-1.7,2-.8,3.4,1.1,1.8,2.3,3.5,3.6,5.5a25.443,25.443,0,0,0,4.2-2.8,2.569,2.569,0,0,0,.5-3.6l-.6-.6c-1.7-1.4-3.6-3.2-6.9-1.9m-49.2,54.6c-1.9-.8-4-.7-4.2,1.4a6.844,6.844,0,0,0,1.9,5c.7.8,3.1.6,4.3-.1.7-.4.7-2.5.5-3.8-.2-.7-1.3-1.3-2.5-2.5M748,262c1.9-3,1.9-5-.2-5.4a6.173,6.173,0,0,0-4.4.8,4.291,4.291,0,0,0-1.3,3.7c.3,1.9,2.2,2,3.9,1.9a4.526,4.526,0,0,0,2-1m-60.9,76.4c-.3,2.1.1,4,2.3,4.7,2.3.7,4-.3,4.9-2.6-3-4.3-3.1-4.4-7.2-2.1Z" fill="#c9d215"/>
      <path id="Pfad_713" d="M774.8,234.2c1.7-2.9,3.8-5.4,4-9a5.111,5.111,0,0,1,1.9-3.1c4.3-3.4,4.9-8.2,5.4-13,0-.3-.7-.6-1.1-1.3a15.238,15.238,0,0,1,5.1-.9c5.4-.2,10.9-.2,16.2-.3,5.4.8,10.8,1.5,16.2,2.4a11.12,11.12,0,0,1,4.3,1.9c-4.2,8.2-8.7,16.3-13.7,24.1-4.1-.8-5.6.4-5,3.9.2,1.1.4,2.1.5,3.2a5.775,5.775,0,0,1-.6,1.7c-3.8,5.6-8.2,10.8-11.2,16.7-2,4.1-4.3,6.4-8.7,7.1-.1,0-.1.5-.3,1.1a19.092,19.092,0,0,1,3.3.6c0,.3,0,.7-.4.7a31.8,31.8,0,0,0-9.7,1.6c-12.2,4.3-23.6,9.9-33.8,17.9a110.175,110.175,0,0,0-19.4,19.2c-1.3,1.8-1.6,3.3-.4,5.2,5.7,9.5,8.8,20.1,12.3,30.6-2.9,4.6-7.1,8-8.5,13.2-.5,1.9-2.1,2.2-4,1.9-4.4-5.3-9.3-9.5-14.1-15.4-1,2.9-1.9,4.6-2.1,6.4-.5,5.4-.6,10.9-1.1,16.2-.7,6.6,1.3,12.7,2.7,19a102.151,102.151,0,0,0-6.5,8.6c-2.8,4-5.3,8.2-8,12.4-2.1,3.2-5,6.1-6.1,9.7-1.4,4.5-4.4,6.3-8.4,7.2v-.3a.969.969,0,0,0-.7-.8,16.509,16.509,0,0,1-1.1-3.6,9.039,9.039,0,0,0-.8-2.1,4.012,4.012,0,0,1-.3-1.5,2.091,2.091,0,0,0-.7-1.3,6.889,6.889,0,0,0-.3-.8c-.2-.7-.3-.8-.5-1a23.8,23.8,0,0,1-.5-2.6,6.311,6.311,0,0,0-.8-2.3,2.921,2.921,0,0,1-.2-.9c-.3-1.7-.5-2.8-.8-3.9a4.254,4.254,0,0,1-.2-1.1c-.3-2.4-.6-4-.8-5.8,0-.3-.1-.6-.2-1.3-.3-3.4-.7-6.3-1-9.3,1-.8,2.4-1.4,3.1-2.4,2.3-3.5,4.3-7.2,7-11,6.3-.5,6.8-1.2,5.3-5.6-.8-5.2,2.6-8.7,5-12.5,4.5-7,8.8-14.1,13.1-21.1a37.174,37.174,0,0,1,1.9-3.4c4.3-6.6,8.5-13.2,13.1-19.5a222.153,222.153,0,0,0,14-22.1c3-5.5,6.6-10.6,10-15.8,4-6.1,8-11.9,12-17.9a12.038,12.038,0,0,0,1.5-2.4c1.4-4.5,3.7-7.7,9-7.7.2,0,.3-.5.8-1.3a29.959,29.959,0,0,1,3.2-3c2.3-2,2.3-3.6,1.1-5.2m20.1-10.9c-1.2-1.9-2.4-3.7-5-1.9-2.1,1.5-1.9,3,1.1,6.5,2.1-.5,4.1-1.1,3.9-4.6M685.5,388.9a15.532,15.532,0,0,0-.5,2.3c0,1.8.6,3.2,2.7,2.9a3.608,3.608,0,0,0,2.8-4.2h0C689.7,387.6,688,387.4,685.5,388.9Z" fill="#c6d220"/>
      <path id="Pfad_714" d="M683.7,424.1c4.1-1.3,7-3,8.5-7.6,1.1-3.5,4-6.4,6.1-9.7,2.7-4.1,5.2-8.3,8-12.4A68.562,68.562,0,0,1,713,386a14.982,14.982,0,0,1,2.9,2.7c-.5,1.6-.6,3.6-1.7,4.8-5.3,5.9-8.9,12.8-13.1,19.4-4.3,6.8-9.2,13.4-14.1,20.2A68.994,68.994,0,0,1,683.7,424.1Z" fill="#c3d025"/>
      <path id="Pfad_715" d="M676.3,395.5c.3,1.7.6,3.4.9,5.5a44.616,44.616,0,0,1-3.5-18.8c.1-3.5-.3-7.1-.2-10.6.5-10.3,1.2-20.5,1.9-30.8a24.58,24.58,0,0,1,1.6-5.9c-.3,5.8-.9,11.9-1.4,17.9-.2,1.8-.2,3.5-.3,5.3-.3,5-.8,9.9-.8,14.9,0,3.7.5,7.3.8,11.4.3,3.4.7,6.3,1,9.9Z" fill="#bbcf48"/>
      <path id="Pfad_716" d="M679.8,321.2a28.022,28.022,0,0,1-1.2,5.6A25.326,25.326,0,0,1,679.8,321.2Z" fill="#bbcf48"/>
      <path id="Pfad_717" d="M677.9,329a18.7,18.7,0,0,1-.4,5.3A18.7,18.7,0,0,1,677.9,329Z" fill="#bbcf48"/>
      <path id="Pfad_718" d="M677.3,402.6a13.232,13.232,0,0,1,.8,3.3A13.237,13.237,0,0,1,677.3,402.6Z" fill="#c3d025"/>
      <path id="Pfad_719" d="M678.2,407.4a3.464,3.464,0,0,1,.8,1.6A3.047,3.047,0,0,1,678.2,407.4Z" fill="#c3d025"/>
      <path id="Pfad_720" d="M681.1,417.1a4.351,4.351,0,0,1,.8,1.5A4.352,4.352,0,0,1,681.1,417.1Z" fill="#c3d025"/>
      <path id="Pfad_721" d="M680.2,414.1c.2,0,.4.3.7.8C680.7,415,680.5,414.6,680.2,414.1Z" fill="#c3d025"/>
      <path id="Pfad_722" d="M683.1,422.8c.3-.1.5.1.7.6A.953.953,0,0,1,683.1,422.8Z" fill="#c3d025"/>
      <path id="Pfad_723" d="M680.6,319c.3.2.2.5-.2.8C680.2,319.7,680.2,319.4,680.6,319Z" fill="#bbcf48"/>
      <path id="Pfad_724" d="M679.5,412.2c.3-.1.4.2.5.6C679.7,412.9,679.5,412.7,679.5,412.2Z" fill="#c3d025"/>
      <path id="Pfad_725" d="M715.2,417a72.615,72.615,0,0,1,.6-11.4c4.5-4,8.5-7.2,12.5-10.7a6.966,6.966,0,0,0,1.3-2.3c6.3-5,12.5-9.9,18.8-14.8,1.4-.8,2.6-1.6,4.2-2.5,2.6-1.2,4.9-2.3,7.2-3.3,1,.5,2.1,1.1,3.1,1.6a23.476,23.476,0,0,1-1.9,2.5c-2.2,2.5-4.5,4.9-6.7,7.4-4.2,4.8-8.3,9.6-12.5,14.4-6.9,7.9-14.3,15.5-19.4,24.8-1,1.9-3.2,3-5.1,4.5C716.4,424,715.9,420.7,715.2,417Z" fill="#493415"/>
      <path id="Pfad_726" d="M835.7,315.1a10.217,10.217,0,0,1,1.8,1.8c.4,2.5-1.3,3.3-2.6,4.4-3.6,2.9-7.2,5.9-10.7,8.8-9.5,7.9-17.8,17.1-26.7,25.6-4,3.9-8.6,7.2-12.6,10.9-1.9,1.7-3.5,1.9-6.1.6a8.9,8.9,0,0,1-1.2-3.8c5.9-5.7,11.5-11.2,17.3-16.5,3.9-3.5,8-7,12.1-10.3,3.4-2.7,7.1-5,10.4-7.7,4.3-3.4,8.2-7.2,12.5-10.5C831.8,317.1,833.9,316.2,835.7,315.1Z" fill="#291c10"/>
      <path id="Pfad_727" d="M777.5,363.7c.3,1,.6,2.1,1,3.5,0,1.8-.3,3.2-.2,4.6.5,6.3-3.6,9.3-8.5,13-.2-2.4-.3-4.1-.6-6.2-.1-1.4,0-2.4,0-4.1a2.19,2.19,0,0,0-1.2-1.3c-.6-.6-1.1-1.7-1.7-1.7a33.463,33.463,0,0,0-6.3.5,53.337,53.337,0,0,1-7.4,3.2,113.271,113.271,0,0,1,4-15.2c5.6,0,10.8-.1,16.1.2C774.5,361.4,776,362.6,777.5,363.7Z" fill="#78ccee"/>
      <path id="Pfad_728" d="M850.3,276.2a11.955,11.955,0,0,1-5.6-.8c8.2-13.9,16.5-27.2,25.2-40.3a19.218,19.218,0,0,0,8.6,5.3,7.954,7.954,0,0,1,2.7,2.2,67.842,67.842,0,0,1-5.4,7.8,58.866,58.866,0,0,1-7-2.6c-.3,3.3,2.4,3.7,3.6,5.2,0,4.3-2.9,7.3-5,10.6-1.2,1.7-2.8,3.2-3.5,5-1.3,3.1-3.5,4.2-6.5,4.9A74.579,74.579,0,0,0,850.3,276.2Z" fill="#8dcbd7"/>
      <path id="Pfad_729" d="M944.4,233.3a6.659,6.659,0,0,1,.4,3.1c-9.3-.1-18.2,2.3-26.8,5.1s-17.2,6.1-25.9,9.1a63.8,63.8,0,0,1-10.5,2.4,1.971,1.971,0,0,1-.3-1.5c3.6-1.1,7.3-2,10.9-3.4,10-4,19.7-8.8,30.3-10.9C929.5,235.8,936.7,234.7,944.4,233.3Z" fill="#3775ba"/>
      <path id="Pfad_730" d="M880.7,251.5a2.223,2.223,0,0,1,.3,1.6,74.479,74.479,0,0,1-8.2.1c-1.8-1.5-4.4-2-4-5.2,2.4,1,4.4,1.9,6.6,2.8A48.078,48.078,0,0,1,880.7,251.5Z" fill="#3e8d88"/>
      <path id="Pfad_731" d="M886.8,186.4c-.1-1.9,1-3.2,2.8-4.3,7.5-2.3,13.9.4,19.9,4,1.7,1,2.9,2.9,4.4,4.6a20.344,20.344,0,0,1-5.9,2.4C901.6,187.7,894.7,185.5,886.8,186.4Z" fill="#98cdb5"/>
      <path id="Pfad_732" d="M915,191.9c.1.2-.3.2-.3.2a2.186,2.186,0,0,1-.3-.5C914.7,191.5,914.8,191.6,915,191.9Z" fill="#98cdb5"/>
      <path id="Pfad_733" d="M881.5,242.7c-1.3-.8-2-1.9-3-2.2a19.575,19.575,0,0,1-8.8-5.6,91.366,91.366,0,0,1-5.9-7,23.736,23.736,0,0,1-.1-2.4c1.3-1.9,2.6-3.9,5.9-3.7,4.7,6.2,10.3,10.1,17.4,11.9-1,2.8-2,5.6-3.1,8.8A6.347,6.347,0,0,1,881.5,242.7Z" fill="#79b5c7"/>
      <path id="Pfad_734" d="M781.8,351c4.3-3.5,8.8-6.9,12.9-10.8,11.1-10.5,23.4-19.5,36.1-28.6a19.7,19.7,0,0,1,4.9,3.2c-1.9,1.4-4,2.3-5.6,3.6-4.3,3.4-8.2,7.2-12.5,10.5-3.4,2.7-7.1,5-10.4,7.7-4.1,3.3-8.2,6.6-12.1,10.3-5.8,5.3-11.4,10.8-17.3,16.5a15.423,15.423,0,0,1-4.7-3.7A118.934,118.934,0,0,1,781.8,351Z" fill="#4b3514"/>
      <path id="Pfad_735" d="M808.7,305.4c-.3.3-.4.3-.8,0a1.7,1.7,0,0,1,.6-1l.3.3C808.9,304.8,808.7,305.3,808.7,305.4Z" fill="#98cdb5"/>
      <path id="Pfad_736" d="M887.5,233.6A29.031,29.031,0,0,1,870,221.7c-3.1-5.9-3.5-11.7-2.5-17.9.5-3.8,2.7-6.1,4.7-8.6,3.6-4.4,7.9-8,14.3-8.5a25.294,25.294,0,0,1,21.3,6.7,98.924,98.924,0,0,1,5.5,11.9c3.8,11.4-5.5,23.5-14.2,26-3.8.9-7.6,1.5-11.6,2.3M906.2,196c-.1-.3-.3-.5-1.1-1.1-5.5-6.1-12.8-7.4-17.3-3.1,4,2.4,5.1,4.8,3.4,7.5-2.3,3.6-4.4,3.4-10-.7-1.4,5.1-1.3,9.8,2.9,13.8,1,1,2,2.1,3.4,3.7.9.2,1.8.3,3,.6a2.7,2.7,0,0,1,.7.8c5.5,2.4,10.9.5,13.4-5,.2-.3.4-.4,1.3-.8.2-.5.3-1.1.5-1.7.2,0,.3-.1.5-.2a2.01,2.01,0,0,1,.4-.8s-.1,0,.5-.4c1.6-3.1,2.6-6.3-.4-9.8a4.1,4.1,0,0,1-.1-1.1,6.418,6.418,0,0,1-1-1.3C906.2,196.4,906.2,196.5,906.2,196Z" fill="#f5faf9"/>
      <path id="Pfad_737" d="M863.9,228.2c1.8,2.1,3.6,4.1,5.6,6.5-8.2,13.5-16.6,26.9-25,40.6-1.6.7-3.2,1.1-5.2,1.9a38.663,38.663,0,0,1-8.3,1.2,22.547,22.547,0,0,0-3.6-2.4c-1.3-.8-2.8-1.4-4.1-2.2h2c5.9.8,9.8-.5,11.7-5.9.7-1.9,2.4-3.5,3.5-5.1,7-10.9,13.8-21.9,20.9-32.7C861.6,229,862.9,228.8,863.9,228.2Z" fill="#98cdb5"/>
      <path id="Pfad_738" d="M830.9,278.6c2.6-.4,5.2-.8,8.2-1.2,1.9.2,3.5.3,5.7.6a70.6,70.6,0,0,1-8.9,14c-5.3-2.8-10.5-5.1-17-4.7a30.47,30.47,0,0,1-4-2.1,4.48,4.48,0,0,1-1.9-2.4c1.9-.1,3.6-.2,6.2-.3C824,282.1,827.9,281.5,830.9,278.6Z" fill="#71b1a5"/>
      <path id="Pfad_739" d="M808.4,304.3a12.486,12.486,0,0,0-.8,1.2c-3,1.4-6.1,2.4-8.8,3.9a93.36,93.36,0,0,0-21.6,16.4c-2.9,2.9-6.7,4.7-10.5,6.7a92.763,92.763,0,0,1,6.5-13c4-6.6,8.5-12.8,12.6-19.4,1.4-2.3,2.4-4.8,3.9-7.2a2.2,2.2,0,0,1,.8.1c2.4,1.9,4.7,3.7,7.4,5.6,3.2,2.4,6.1,4.5,10.3,5.1C808.2,303.8,808.4,304,808.4,304.3Z" fill="#92b54d"/>
      <path id="Pfad_740" d="M765.1,428.9c-6.3,2.5-8.1,8.2-9.3,13.6-1.6,6.6.9,12.5,5.3,17.6.5.6,1.7.7,2.9,1,.3,0,.3,0,.3.3,3.9,3.8,8.3,2.9,12.7,1.9a36.936,36.936,0,0,1,5.6-1.1,37.647,37.647,0,0,0,2.9,2.8c-7.2,6.6-15.4,9.8-25.1,6.6-6-1.9-9.8-6.3-12.1-12.2-3.5-8.9-3.1-17.9-.2-26.8a21.815,21.815,0,0,1,11.9-13,1.272,1.272,0,0,1,.9.7c.4,1.5.9,3.1,1.4,4.5C763,426.3,764.2,427.4,765.1,428.9Z" fill="#88c7ef"/>
      <path id="Pfad_741" d="M785.8,464.9a11.5,11.5,0,0,1-3.3-2.9,9.79,9.79,0,0,1,1.6-4.1c2.7-4,1.3-12.9-4.4-15.2-3.4-1.4-6.5-1-10-.9-1.4-1-2.5-1.9-3.7-2.9,1.6-2.9,4.5-3.5,7.4-3.8,9.4-.8,16.7,6.1,16.8,15.6v4.8C790.3,459.3,789.3,462.5,785.8,464.9Z" fill="#78cdf4"/>
      <path id="Pfad_742" d="M765.7,439a17.6,17.6,0,0,1,4,3.2,18.707,18.707,0,0,1-1.3,4c-1.7,5.4.5,9.1,6.1,10.4.3.1.5.6.7.8-1.5,1-2.9,1.9-4.3,2.8-3.5.6-5.5-1.7-7.7-4.6-.4-4-.8-7.4-1.1-10.8C763.7,443.1,762.5,439.9,765.7,439Z" fill="#90c1e9"/>
      <path id="Pfad_743" d="M761.8,444.8a72.1,72.1,0,0,1,1.3,10.4c-3.8-2.3-2.6-6.1-2.4-10.1A1.129,1.129,0,0,1,761.8,444.8Z" fill="#78ccee"/>
      <path id="Pfad_744" d="M771.4,460.2a39.474,39.474,0,0,1,3.9-2.9c-.2-.2-.4-.8-.7-.8-5.6-1.3-7.8-5-6.1-10.4.4-1.2,1-2.4,1.5-3.9,3.4-.5,6.5-.9,9.8.5,5.6,2.4,7.1,11.3,4.4,15.2a13.842,13.842,0,0,0-1.8,3.9,24.092,24.092,0,0,1-5.4,1.6c-4.4.9-8.8,1.9-12.7-1.9,6.1,1.9,12,1.9,16.7-3.4,2.3-2.6,3.3-5.8,1.7-9.3a7.994,7.994,0,0,0-7.2-4.9c-2.6-.2-4.2,1.3-5.4,3.3-1.3,2.2-.6,4,1,5.6.3.3.8.3,1.8.5-.3-1.2-.6-2-.8-2.9-.4-1.8,0-3.5,1.7-4a5.857,5.857,0,0,1,4.5.3,6.567,6.567,0,0,1,2.3,9.1,10.1,10.1,0,0,1-1.3,1.6C777.1,459.5,774.7,460.7,771.4,460.2Z" fill="#57c4f2"/>
      <path id="Pfad_745" d="M768.2,373.3c.3,0,.6.2.9.8C768.8,374,768.6,373.8,768.2,373.3Z" fill="#160b07"/>
      <path id="Pfad_746" d="M813.4,235.1c4.5-7.9,9.1-15.7,13.6-24a9.275,9.275,0,0,1,7.2,1.6c.9.7,2.4.7,4,1a4.5,4.5,0,0,1-.2,2.8c-6.2,9.6-12.7,19.1-18.8,28.8-4.7,7.5-9.1,15.3-13.8,23.3-1,.1-2.4.1-4.6.2h-9.6c-1.1-.1-2.2-.3-3.3-.3.1-.6.2-1.1.3-1.1,4.3-.6,6.6-2.9,8.7-7.1,2.9-6,7.4-11.2,11.2-16.7a8.634,8.634,0,0,1,1-1.6C814.3,240.9,815,239.8,813.4,235.1Z" fill="#bbcf48"/>
      <path id="Pfad_747" d="M855.7,184.6a17.823,17.823,0,0,1-2,5.6c-2.2,3.6-4.7,7.1-7,10.6-1.4,2.2-2.6,4.5-4,6.8-.2.3-.9.3-1.7.3-1.3-5.8-2.7-11.6-3-17.4-.3-5.6,7.2-9.8,12.5-7.6C851.9,183.7,853.6,183.9,855.7,184.6Z" fill="#bbcf48"/>
      <path id="Pfad_748" d="M791.2,269.1a89.26,89.26,0,0,1,9.2-.3c.4.4.3.8,0,1.5A26.92,26.92,0,0,0,789,281.8c-2.1,3.8-2.6,7.4.3,11a61.034,61.034,0,0,1-3.7,7.2c-4.1,6.5-8.6,12.8-12.6,19.4a134.02,134.02,0,0,0-6.8,13A98.35,98.35,0,0,1,758,338c-3.8,2.4-7.2,4.5-10.9,6.4-2.1-1.1-2.8-2.2-1.2-3.9a26.081,26.081,0,0,0,4.2-4.6c6.6-10.4,13.1-21,19.6-31.4,5.2-8.3,10.4-16.5,15.6-24.8,2-3.2,3.8-6.6,5.6-9.9C791.2,269.8,791.2,269.3,791.2,269.1Z" fill="#9cae24"/>
      <path id="Pfad_749" d="M789.5,293c-3.2-3.6-2.6-7.2-.6-11,2.6-4.8,6-8.8,11.4-11.3,2.5,2,1.5,4.1.3,6.1-3.3,5.3-6.7,10.4-10.3,16C790.3,293,789.8,293,789.5,293Z" fill="#bbcf48"/>
      <path id="Pfad_750" d="M863.8,227.8c-.9.8-2.2,1.2-2.7,1.9-7,10.9-13.9,21.9-20.9,32.7-1.1,1.8-2.8,3.3-3.5,5.1-1.9,5.4-5.8,6.7-11.4,5.9a17.184,17.184,0,0,1,2.2-6.6c9.8-15.6,19.6-31,29.5-46.6a8.758,8.758,0,0,1,2.4-1.9c1.4,2.1,2.5,4.3,3.9,6.6A8.045,8.045,0,0,1,863.8,227.8Z" fill="#a0cb99"/>
      <path id="Pfad_751" d="M830.8,278.3c-2.9,3.3-6.8,3.9-11.1,4.1a31.11,31.11,0,0,1,1.4-6.6c-.9-.4-2.6-1.2-4.7-2.1,2.4-1.4,4.2-1.1,6.5-.3a49.867,49.867,0,0,0,4.4,2.4C828.5,276.6,829.7,277.4,830.8,278.3Z" fill="#a0cb99"/>
      <path id="Pfad_752" d="M716.1,388.7a24.433,24.433,0,0,1-2.9-2.7c-1.9-6.3-3.8-12.5-3.2-19,.5-5.4.6-10.9,1.1-16.2.2-1.8,1.1-3.5,2.1-6.4,4.8,5.8,9.7,10,14.1,15.6a12.263,12.263,0,0,1,1.9,4c-2.4,4-4.5,7.7-6.9,11.7-1.3,2.9-2.4,5.6-3.8,8.5a9,9,0,0,0-.8,2.8h0A14.167,14.167,0,0,0,716.1,388.7Z" fill="#a4b11c"/>
      <path id="Pfad_753" d="M774.5,234c1.5,1.9,1.5,3.4-.2,4.7-.9.8-1.9,1.7-3.1,2.7-2.6.2-4.6-.3-5.4-3-.8-2.9.1-4.8,3.1-5C770.6,233.1,772.4,233.7,774.5,234Z" fill="#eee761"/>
      <path id="Pfad_754" d="M746.8,240.6c3-1.3,4.9.6,6.7,2a2.478,2.478,0,0,1,.6,3.6,3.4,3.4,0,0,1-.6.6,43.772,43.772,0,0,1-4.2,2.8c-1.3-2-2.5-3.7-3.6-5.5C744.8,242.8,745.3,241.7,746.8,240.6Z" fill="#eee761"/>
      <path id="Pfad_755" d="M697.6,295.6c.9.9,1.9,1.6,2.1,2.4.2,1.3.2,3.4-.5,3.8-1.2.7-3.5.8-4.3.1a6.943,6.943,0,0,1-1.9-5C693.3,294.7,695.5,294.7,697.6,295.6Z" fill="#eee761"/>
      <path id="Pfad_756" d="M747.8,262.3a3.63,3.63,0,0,1-1.7.7c-1.7.2-3.5.1-3.9-1.9a4.193,4.193,0,0,1,1.3-3.7,6.172,6.172,0,0,1,4.4-.8C750,257,750,259,747.8,262.3Z" fill="#eee761"/>
      <path id="Pfad_757" d="M687.3,338.1c3.9-1.9,4-1.9,6.9,2.4a3.687,3.687,0,0,1-4.9,2.6C687.2,342.5,686.8,340.5,687.3,338.1Z" fill="#eee761"/>
      <path id="Pfad_758" d="M690.2,365.7c1.9,4.5,1.3,5.1-4.6,5.5C684.9,366,685,365.9,690.2,365.7Z" fill="#eee761"/>
      <path id="Pfad_759" d="M780.4,208.8a8.423,8.423,0,0,1,2.7-.8A7.733,7.733,0,0,1,780.4,208.8Z" fill="#c6d220"/>
      <path id="Pfad_760" d="M790.8,269.8a71.711,71.711,0,0,1-5.2,9.9c-5.1,8.3-10.4,16.6-15.6,24.8-6.6,10.4-13,21-19.6,31.4a30.6,30.6,0,0,1-4.2,4.6c-1.6,1.7-.9,2.9.9,4.2a16.159,16.159,0,0,1-3.5,3.4,1.729,1.729,0,0,1-1-.1,36.94,36.94,0,0,1-2.6-3.8c-3.8-10.4-6.9-21-12.6-30.5-1.2-2-.9-3.5.4-5.2A112.213,112.213,0,0,1,781,271.4,32.954,32.954,0,0,1,790.8,269.8Z" fill="#a4b11c"/>
      <path id="Pfad_761" d="M739.7,344.4a21.937,21.937,0,0,1,2.9,3.9,14.3,14.3,0,0,1,1.1,2.1c.2.8.3,1.2-.1,1.6-1.6.7-3.1,1-4,1.9-2.2,2.6-4,5.6-6.1,8.3-.5.7-1.6.9-2.7,1.3a8.6,8.6,0,0,0-1.6.1c-.6-1.1-1.1-2.2-1.8-3.6,1.5-.3,3.1-.5,3.6-2.4C732.6,352.4,736.9,348.9,739.7,344.4Z" fill="#c3d025"/>
      <path id="Pfad_762" d="M813.2,234.9c1.9,4.9,1.3,6-4,6.7a7.543,7.543,0,0,1-.9-2.9C807.6,235.3,809,234.2,813.2,234.9Z" fill="#eee761"/>
      <path id="Pfad_763" d="M795,223.6c.1,3.1-1.9,3.8-4,4.2-2.9-3.4-3.2-5-1.1-6.5C792.5,219.6,793.6,221.5,795,223.6Z" fill="#eee761"/>
      <path id="Pfad_764" d="M685.8,388.7c2.3-1.3,4-1.1,4.7,1.3a3.541,3.541,0,0,1-2.7,4.2h0c-2.1.2-2.7-1.3-2.7-2.9A5.28,5.28,0,0,1,685.8,388.7Z" fill="#eee761"/>
      <path id="Pfad_765" d="M676.4,395.4c-.2.1-.2-.4-.2-.6C676.3,394.7,676.4,395,676.4,395.4Z" fill="#c3d025"/>
      <path id="Pfad_767" d="M748.5,377.9A4,4,0,0,1,747,376c.3-2.4.3-4.2,1-5.7a26.9,26.9,0,0,0,3.1-12.5c1.9.7,3.5,1.3,5.2,2-1.3,5-2.4,9.9-3.8,15.3A35.958,35.958,0,0,1,748.5,377.9Z" fill="#c3d025"/>
      <path id="Pfad_769" d="M905.2,211.8a10.385,10.385,0,0,0-1.2.7,2.978,2.978,0,0,1-.8-1.8c-.3-2.2-1.8-3.7-3.8-3.6a5.618,5.618,0,0,0-3.8,2.4c-1,1.6-.3,3.4,1.2,4.7a32.743,32.743,0,0,1,2.4,2.7h-8.6l-.7-.5a17.1,17.1,0,0,0-3-.9c-1-1-1.9-2.1-3-3.1-4.2-3.9-4.3-8.6-2.9-13.8,5.6,4.1,7.8,4.2,10,.7,1.7-2.7.6-5.1-3.4-7.5,4.5-4.3,11.9-2.9,17.6,3.6a4.441,4.441,0,0,0,.8,1.1s.1-.1,0,.3a5.715,5.715,0,0,0,1.1,1.6c0,.2.1.3.2,1.1-.1,3.6-.2,6.6-.3,9.5,0,0,.1,0-.2.1a1.8,1.8,0,0,0-.6.9s-.1,0-.3.2A12.619,12.619,0,0,0,905.2,211.8Z" fill="#0f3538"/>
      <path id="Pfad_770" d="M890.9,217.1a58.988,58.988,0,0,1,8.4-.3c-1.3-1.4-1.8-2.1-2.4-2.7-1.5-1.3-2.2-3.1-1.2-4.7a5.409,5.409,0,0,1,3.8-2.4c2-.1,3.4,1.4,3.8,3.6a4.382,4.382,0,0,0,.7,1.9C901.9,217.9,896.6,219.8,890.9,217.1Z" fill="#c3e3ee"/>
      <path id="Pfad_771" d="M907.4,208.7c-.1-3-.1-6.1.1-9.1C910.4,202.2,909.4,205.4,907.4,208.7Z" fill="#c3e3ee"/>
      <path id="Pfad_772" d="M887.2,215.7a4.022,4.022,0,0,1,2.6.6A4.023,4.023,0,0,1,887.2,215.7Z" fill="#c3e3ee"/>
      <path id="Pfad_773" d="M905.5,211.7a2.352,2.352,0,0,1,.5-1.6A3.022,3.022,0,0,1,905.5,211.7Z" fill="#c3e3ee"/>
      <path id="Pfad_774" d="M907.2,198c-.4-.1-.8-.5-1.2-1.3C906.5,196.8,906.9,197.2,907.2,198Z" fill="#c3e3ee"/>
      <path id="Pfad_775" d="M906.2,196.2c-.3,0-.4-.2-.7-.6C905.9,195.5,906.1,195.6,906.2,196.2Z" fill="#c3e3ee"/>
      <path id="Pfad_776" d="M906.6,209.8c-.1-.3,0-.5.3-.9C907.1,209.2,906.9,209.4,906.6,209.8Z" fill="#c3e3ee"/>
      <path id="Pfad_777" d="M718.6,384a5.835,5.835,0,0,1-.6,2.6A6.159,6.159,0,0,1,718.6,384Z" fill="#bbcf48"/>
      <path id="Pfad_778" d="M743.6,348.1a2.257,2.257,0,0,1,.2,1.6,2.875,2.875,0,0,1-.9-1.3A.779.779,0,0,1,743.6,348.1Z" fill="#bbcf48"/>
      <path id="Pfad_779" d="M743.8,352a60.506,60.506,0,0,1,6.8,5.5,22.783,22.783,0,0,1-2.6,12.8c-.8,1.5-.8,3.4-1.1,5.5-5-3.6-10.1-7.6-15.2-11.9.6-.7,1.7-.9,2.2-1.6,2.1-2.7,3.9-5.7,6.1-8.3C740.6,352.9,742.2,352.6,743.8,352Z" fill="#bbcf48"/>
    </g>
    <path id="Pfad_27194" data-name="Pfad 27194" d="M66.8,621.2s-20.1-5.1-14.4-9.1c5.7-4.1,9.8-3,9.8-3h4.6l1.3.1-.8,12.3Z" fill="#9abe57"/>
  </g>
</svg>
